<svg xmlns="http://www.w3.org/2000/svg" viewBox="0 0 300 200" xml:space="preserve"><path d="M39.5 110.2c12.1-11.9 27.4-19.5 44.3-22 1.2-.2 2.3.7 2.5 1.9.2 1.2-.7 2.3-1.9 2.5-15.2 2.2-29 8.8-40.2 19.2 28.2 26.2 72.1 26.8 101 2-41.3-3-74.2-37.3-74.4-78.9 0-.6.2-1.1.6-1.6.4-.4 1-.6 1.6-.6 16.7.1 32.7 5.3 46.1 15 1 .7 1.2 2.1.5 3.1s-2.1 1.2-3.1.5c-12.1-8.8-26.4-13.6-41.3-14.1 1.4 38.2 31.9 69.5 70.1 72.3-27-31.1-26.1-78.4 3.2-107.8.8-.8 2.3-.8 3.1 0 12 12.1 19.6 27.3 22.1 44.1.2 1.2-.7 2.3-1.9 2.5-1.2.2-2.3-.7-2.5-1.9-2.2-15.1-8.9-28.9-19.3-40-26 27.8-26.5 71.3-1.5 100.1 3-40.7 37-73.3 78.3-73.7.5 0 1.2.2 1.6.6.4.4.7 1 .7 1.6 0 16.9-3.6 30.2-13.9 44.8-.7 1-2.1 1.2-3.1.5s-1.2-2.1-.5-3c8.3-11.8 13.1-25.6 13.1-40-37.9 1.5-68.9 31.8-71.7 69.5 30.9-26.5 78-25.4 107.5 3.4.4.4.7 1 .7 1.6 0 .6-.2 1.1-.6 1.6-15.3 15.2-33.3 23.1-55.5 23.1h-.1c-14.2 0-28.2-3.8-40.4-11-1-.6-1.4-2-.8-3 .6-1 2-1.4 3-.8 11.5 6.8 24.7 10.4 38.1 10.4h.2c18.7 0 37.5-7 50.8-20.2-29.2-26.8-75.2-26.2-103.7 1.8-15.5 15.3-35.9 22.9-56.3 22.9s-40.8-7.7-56.4-23c-.4-.4-.7-1-.7-1.6 0-.8.2-1.4.7-1.8m249 67.4c-2.7-.9-4.8-2.1-6.4-3.7-1.6-1.6-2.4-3.4-2.4-5.7 0-2.2.8-4 2.4-5.6 1.6-1.6 3.5-2.3 5.7-2.3s4.1.8 5.7 2.3c.9.8 1.5 1.8 1.8 2.8l-1.9.8c-.3-.8-.8-1.5-1.4-2.1-1.2-1.1-2.5-1.7-4.2-1.7-1.6 0-3 .6-4.2 1.7-1.2 1.1-1.7 2.5-1.7 4.2 0 1.6.6 3 1.7 4.2 1.1 1.1 2.6 2 4.5 2.9 3 1 5.6 2.5 7.7 4.6 2.2 2.2 3.3 4.8 3.3 7.9 0 3.1-1.1 5.8-3.3 7.9-2.2 2.2-4.9 3.3-8 3.3-3.1 0-5.8-1.1-8-3.3-1.8-1.8-2.8-3.8-3.2-6.1l2-.7c.2 2 1.1 3.8 2.6 5.4 1.8 1.8 3.9 2.7 6.5 2.7 2.5 0 4.7-.9 6.5-2.7 1.8-1.8 2.7-3.9 2.7-6.5 0-2.5-.9-4.6-2.7-6.4-1.5-1.7-3.5-3-5.7-3.9m-18.8-16.9h2.2v27.2c-.4 2.9-1.6 5.3-3.6 7.3-2.4 2.4-5.3 3.6-8.8 3.6-3.4 0-6.4-1.2-8.8-3.6-2.4-2.4-3.6-5.3-3.6-8.7v-25.8h2.2v25.8c0 2.8 1 5.2 3 7.2s4.4 3 7.3 3c2.8 0 5.2-1 7.2-3s3-4.4 3-7.2v-25.8zm-37 2.2v35.7h-2.1v-35.7H221v-2.1h21.4v2.1h-9.7zm-33.7-.5c-4.8 0-8.9 1.7-12.2 5-3.4 3.4-5.1 7.4-5.1 12.2 0 4.8 1.7 8.8 5.1 12.2 3.4 3.4 7.5 5.1 12.2 5.1 4.8 0 8.9-1.7 12.2-5.1 3.4-3.4 5.1-7.4 5.1-12.2 0-4.8-1.7-8.8-5.1-12.2-3.3-3.4-7.4-5-12.2-5zm0-2.2c5.4 0 10 1.9 13.8 5.7 3.8 3.8 5.7 8.4 5.7 13.7 0 5.4-1.9 9.9-5.7 13.7-3.8 3.8-8.4 5.7-13.8 5.7s-10-1.9-13.8-5.7c-3.8-3.8-5.7-8.4-5.7-13.7 0-5.4 1.9-9.9 5.7-13.7 3.9-3.8 8.4-5.7 13.8-5.7zm-39.7 38.3v-37.8h2.1v35.7h14.7v2.1h-16.8zm-40.7-18.3v18.3h-2.1v-37.8h2.1v16.1l12.1-16.1h2.8L122.1 176l14.7 22.6h-2.6l-13.5-20.9-2.1 2.5zm-9.7 12.3 1.6 1.4c-3.7 3.4-8.1 5-13.1 5-5.4 0-10-1.9-13.8-5.7-3.8-3.8-5.7-8.3-5.7-13.7 0-5.3 1.9-9.9 5.7-13.7 3.8-3.8 8.4-5.7 13.8-5.7 5 0 9.4 1.7 13.1 5l-1.6 1.5c-3.3-2.9-7.1-4.3-11.5-4.3-4.8 0-8.8 1.7-12.2 5-3.4 3.4-5.1 7.4-5.1 12.1 0 4.8 1.7 8.8 5.1 12.2 3.4 3.4 7.4 5 12.2 5 4.4.2 8.2-1.2 11.5-4.1zm-41.7-8.4H54.1l-5.3 14.5h-2.3l14.2-38.7 14.1 38.7h-2.3l-5.3-14.5zm-.8-2.2L60.6 166l-5.8 15.9h11.6zm-40.1 16.6v-37.8h2.1v35.7h14.7v2.1H26.3zM3.1 162.9v9.7h5.2c1.2-.1 2.2-.5 3-1.3 1-.9 1.5-2 1.5-3.4s-.5-2.6-1.5-3.5c-1-.9-2.2-1.4-3.6-1.4H3.1zm0 11.9v21.6h5.2c2.6-.2 4.9-1.3 6.8-3.2 2.1-2.2 3.2-4.7 3.2-7.7s-1.1-5.5-3.2-7.6c-2.1-2.1-4.6-3.1-7.6-3.1H3.1zm4.6-14.1c1.9 0 3.6.7 5 2.1 1.4 1.4 2.1 3 2.1 5s-1 3.8-3 5.5c1.8.4 3.4 1.4 5 3.1 2.5 2.5 3.8 5.6 3.8 9.2 0 3.6-1.3 6.7-3.8 9.3-2.4 2.4-5.2 3.7-8.5 3.7H1v-37.8h6.7z" fill="#231f20"/></svg>