<svg xmlns="http://www.w3.org/2000/svg" viewBox="0 0 36 36" xml:space="preserve"><path d="m19.3 27.1-6.5 6.6c-.2.1-.4.4-1 .3-.3-.1-.6-.4-.7-.8L9.4 21.7l1.5-1.2c.2.1 3.9 2.4 3.7 2.2l4.7 2.9c.4.5.4 1.1 0 1.5z" fill="#009ae4"/><path d="m34.5 3.2-5.9 30c-.1.3-.3.6-.6.7-.1.1-.2.1-.3.1-.2 0-.4-.1-.6-.2-.2-.1-14.4-10.6-13.5-10-8.7-4.3-4.2-2-11.6-5.8-.3-.2-.5-.5-.5-.9s.2-.7.6-.9l31-14.1c.3-.1.7-.1 1 .1l.1.1c.3.3.3.6.3.9z" fill="#25d9f8"/><path d="M34.3 2.4 14.6 22.8l-1 1.1L11.9 34c-.3-.1-.6-.4-.7-.8L9.4 21.7l1.5-1.2L34.3 2.4z" fill="#00c0f1"/></svg>