<svg version="1.1" id="Слой_1" xmlns="http://www.w3.org/2000/svg" x="0" y="0" viewBox="0 0 36 36" xml:space="preserve"><style>.st1{fill:#fff}</style><path d="M2.2 35c-.2 0-.4-.1-.5-.2-.2-.2-.2-.5-.2-.7L3.7 26c-1.3-2.5-2-5.3-2-8.2C1.6 8.6 9 1 18.1 1c4.4 0 8.5 1.8 11.6 4.9 3.1 3.2 4.8 7.4 4.8 11.9 0 9.3-7.4 16.9-16.4 16.9-2.6 0-5.3-.7-7.6-1.9L2.4 35h-.2z" fill="#e5e5e5"/><path class="st1" d="m2.2 34.3 2.2-8.4c-1.4-2.4-2.1-5.2-2.1-8.1C2.3 9 9.4 1.7 18.1 1.7c4.2 0 8.2 1.7 11.1 4.7 3 3 4.6 7.1 4.6 11.4 0 8.9-7.1 16.1-15.7 16.1-2.6 0-5.2-.7-7.5-2l-8.4 2.4zm8.7-5.2.5.3c2 1.2 4.3 1.9 6.7 1.9 7.2 0 13.1-6 13.1-13.4 0-3.6-1.4-7-3.8-9.5-2.5-2.5-5.8-3.9-9.2-3.9C10.9 4.4 5 10.5 5 17.9c0 2.5.7 5 2 7.1l.3.5L6 30.4l4.9-1.3z"/><path d="M2.8 33.7 5 25.6c-1.3-2.4-2-5-2-7.8C3 9.2 9.8 2.2 18.2 2.2c4.1 0 7.9 1.6 10.7 4.6 2.9 2.9 4.4 6.9 4.4 11 0 8.6-6.8 15.6-15.2 15.6-2.5 0-5-.7-7.3-1.9l-8 2.2z" fill="#64b161"/><path class="st1" d="m2.2 34.3 2.2-8.4c-1.4-2.4-2.1-5.2-2.1-8.1C2.3 9 9.4 1.7 18.1 1.7c4.2 0 8.2 1.7 11.1 4.7 3 3 4.6 7.1 4.6 11.4 0 8.9-7.1 16.1-15.7 16.1-2.6 0-5.2-.7-7.5-2l-8.4 2.4zm8.7-5.2.5.3c2 1.2 4.3 1.9 6.7 1.9 7.2 0 13.1-6 13.1-13.4 0-3.6-1.4-7-3.8-9.5-2.5-2.5-5.8-3.9-9.2-3.9C10.9 4.4 5 10.5 5 17.9c0 2.5.7 5 2 7.1l.3.5L6 30.4l4.9-1.3z"/><path class="st1" d="M14.1 11.1c-.3-.7-.6-.7-.9-.7h-.8c-.3 0-.7.1-1 .5-.4.4-1.4 1.4-1.4 3.4s1.4 3.9 1.6 4.2c.2.3 2.7 4.5 6.7 6.1 3.3 1.3 4 1.1 4.7 1 .7-.1 2.3-1 2.7-1.9.3-.9.3-1.7.2-1.9-.1-.2-.4-.3-.8-.5s-2.3-1.2-2.7-1.3c-.4-.1-.6-.2-.9.2-.3.4-1 1.3-1.2 1.6-.1.2-.3.2-.7 0-.4-.2-1.7-.6-3.2-2-1.2-1.1-2-2.4-2.2-2.8-.2-.4 0-.6.2-.8.3-.4.9-1.1 1-1.4.1-.3.1-.5 0-.7-.2-.2-.9-2.2-1.3-3z"/></svg>