<?xml version="1.0" standalone="no"?>
<!DOCTYPE svg PUBLIC "-//W3C//DTD SVG 20010904//EN"
 "http://www.w3.org/TR/2001/REC-SVG-20010904/DTD/svg10.dtd">
<svg version="1.0" xmlns="http://www.w3.org/2000/svg"
 width="224.000000pt" height="224.000000pt" viewBox="0 0 224.000000 224.000000"
 preserveAspectRatio="xMidYMid meet">
<metadata>
Created by potrace 1.11, written by Peter Selinger 2001-2013
</metadata>
<g transform="translate(0.000000,224.000000) scale(0.100000,-0.100000)"
fill="#000000" stroke="none">
<path d="M1066 1759 c-234 -258 -253 -692 -43 -977 21 -30 37 -56 34 -58 -11
-12 -170 31 -243 66 -247 115 -408 338 -440 607 -3 30 -2 53 2 50 5 -2 36 -8
68 -12 87 -10 197 -47 277 -95 64 -38 99 -46 99 -21 0 27 -172 118 -265 141
-74 18 -84 19 -149 26 -78 8 -85 -1 -75 -97 24 -220 140 -421 320 -556 113
-85 265 -145 389 -152 25 -2 25 -2 -10 -32 -46 -40 -170 -101 -245 -122 -92
-25 -123 -29 -220 -29 -157 1 -326 59 -448 155 l-59 46 64 46 c93 69 212 122
310 139 36 6 48 14 48 32 0 45 -224 -24 -347 -107 -78 -53 -125 -98 -121 -116
5 -29 118 -112 213 -159 297 -145 641 -94 894 132 158 140 270 196 441 221 55
8 173 7 220 -1 19 -4 49 -9 65 -12 57 -11 174 -66 244 -115 39 -27 71 -53 71
-57 0 -5 -12 -20 -27 -34 -137 -124 -376 -192 -578 -163 -61 9 -174 44 -227
71 -57 29 -81 31 -76 7 7 -36 154 -97 288 -121 129 -24 352 8 463 65 85 43
217 148 217 172 0 29 -125 121 -228 169 -110 50 -214 71 -342 67 -63 -2 -131
-6 -150 -10 -74 -15 -201 -68 -271 -115 -88 -58 -92 -54 -59 71 56 219 206
398 411 493 80 37 188 66 246 66 l35 0 -6 -52 c-4 -29 -9 -69 -13 -88 -8 -46
-66 -184 -97 -230 -15 -23 -21 -42 -16 -50 35 -56 151 179 166 336 7 78 7 70
5 107 l-1 27 -70 -5 c-179 -12 -388 -109 -506 -237 -99 -107 -172 -240 -199
-366 -31 -138 -27 -133 -62 -81 -200 291 -188 658 30 923 l24 29 41 -52 c56
-71 109 -180 135 -282 16 -57 27 -84 37 -84 37 0 8 140 -55 265 -41 81 -134
200 -156 200 -9 0 -33 -18 -53 -41z"/>
</g>
</svg>
