<svg version="1.0" xmlns="http://www.w3.org/2000/svg" width="298.667" height="298.667" viewBox="0 0 224 224"><path d="M106.6 48.1c-23.4 25.8-25.3 69.2-4.3 97.7 2.1 3 3.7 5.6 3.4 5.8-1.1 1.2-17-3.1-24.3-6.6-24.7-11.5-40.8-33.8-44-60.7-.3-3-.2-5.3.2-5 .5.2 3.6.8 6.8 1.2 8.7 1 19.7 4.7 27.7 9.5 6.4 3.8 9.9 4.6 9.9 2.1 0-2.7-17.2-11.8-26.5-14.1-7.4-1.8-8.4-1.9-14.9-2.6-7.8-.8-8.5.1-7.5 9.7 2.4 22 14 42.1 32 55.6 11.3 8.5 26.5 14.5 38.9 15.2 2.5.2 2.5.2-1 3.2-4.6 4-17 10.1-24.5 12.2-9.2 2.5-12.3 2.9-22 2.9-15.7-.1-32.6-5.9-44.8-15.5l-5.9-4.6 6.4-4.6c9.3-6.9 21.2-12.2 31-13.9 3.6-.6 4.8-1.4 4.8-3.2 0-4.5-22.4 2.4-34.7 10.7-7.8 5.3-12.5 9.8-12.1 11.6.5 2.9 11.8 11.2 21.3 15.9 29.7 14.5 64.1 9.4 89.4-13.2 15.8-14 27-19.6 44.1-22.1 5.5-.8 17.3-.7 22 .1 1.9.4 4.9.9 6.5 1.2 5.7 1.1 17.4 6.6 24.4 11.5 3.9 2.7 7.1 5.3 7.1 5.7 0 .5-1.2 2-2.7 3.4-13.7 12.4-37.6 19.2-57.8 16.3-6.1-.9-17.4-4.4-22.7-7.1-5.7-2.9-8.1-3.1-7.6-.7.7 3.6 15.4 9.7 28.8 12.1 12.9 2.4 35.2-.8 46.3-6.5 8.5-4.3 21.7-14.8 21.7-17.2 0-2.9-12.5-12.1-22.8-16.9-11-5-21.4-7.1-34.2-6.7-6.3.2-13.1.6-15 1-7.4 1.5-20.1 6.8-27.1 11.5-8.8 5.8-9.2 5.4-5.9-7.1 5.6-21.9 20.6-39.8 41.1-49.3 8-3.7 18.8-6.6 24.6-6.6h3.5l-.6 5.2c-.4 2.9-.9 6.9-1.3 8.8-.8 4.6-6.6 18.4-9.7 23-1.5 2.3-2.1 4.2-1.6 5 3.5 5.6 15.1-17.9 16.6-33.6.7-7.8.7-7 .5-10.7L190 75l-7 .5c-17.9 1.2-38.8 10.9-50.6 23.7-9.9 10.7-17.2 24-19.9 36.6-3.1 13.8-2.7 13.3-6.2 8.1-20-29.1-18.8-65.8 3-92.3l2.4-2.9 4.1 5.2c5.6 7.1 10.9 18 13.5 28.2 1.6 5.7 2.7 8.4 3.7 8.4 3.7 0 .8-14-5.5-26.5-4.1-8.1-13.4-20-15.6-20-.9 0-3.3 1.8-5.3 4.1z"/></svg>