<svg version="1.1" id="Слой_1" xmlns="http://www.w3.org/2000/svg" x="0" y="0" viewBox="0 0 250 62" xml:space="preserve"><style>.st0{fill:#752c2e}</style><path class="st0" d="M0 43.8c0-1.6.3-3.1.6-4.6.4-1.5.9-3 1.5-4.4 1.2-2.9 2.8-5.6 4.6-8.1 3.6-5.1 8.1-9.5 12.9-13.5 2.4-2 4.9-3.8 7.7-5.4 1.3-.8 2.8-1.3 4.2-1.9 1.5-.6 3-1.1 4.5-1.5 6-1.9 12.2-2.9 18.4-3.1C66.9.9 79.3 3.8 90.8 8.5c5.8 2.4 11.3 5.3 16.9 8.2 5.6 2.9 11.2 5.8 16.8 8.6 5.7 2.8 11.4 5.5 17.2 7.9 5.9 2.4 11.8 4.7 18.1 6.1 1.5.4 3.1.6 4.7.9 1.5.3 3.1.5 4.6.7 1.6.2 3.1.4 4.7.6 1.6.2 3.1.4 4.7.5 6.3.6 12.6.9 19 .8 12.6-.2 25.4-2 37.2-6.5 2.9-1.1 5.9-2.5 8.5-4.4 2.6-1.8 4.8-4.3 6.1-7.3 1.2-3 .8-6.4-.6-9.3-.7-1.4-1.7-2.7-3-3.6-1.3-.9-2.9-1.4-4.4-1.3 1.6-.1 3.1.5 4.4 1.4 1.2.9 2.2 2.2 2.8 3.6 1.3 3.2 1.6 6.6.4 9.4s-3.4 5.1-6 6.9c-2.5 1.7-5.4 3-8.4 4.1-11.8 4.2-24.4 5.8-36.9 5.9-12.5 0-25.1-1.4-37.3-3.8-6.1-1.4-11.9-3.7-17.7-6.1-5.8-2.4-11.4-5.2-17.1-7.9-5.7-2.8-11.2-5.7-16.9-8.5-5.5-2.9-11.2-5.8-17.1-8.2C79.9 2.4 67.2-.5 54.4.1 48 .4 41.7 1.5 35.6 3.5c-1.5.5-3 1-4.4 1.6-1.4.6-2.9 1.2-4.3 2-2.7 1.6-5.2 3.5-7.7 5.6-4.7 4.1-9.2 8.7-12.7 13.9-1.8 2.6-3.3 5.3-4.5 8.3-.6 1.5-1 3-1.4 4.5-.5 1.3-.6 2.9-.6 4.4z"/><path class="st0" d="M4.2 46.7c1.6-5.4 4.5-10.5 8.5-14.6 1.9-2.1 4-4 6.4-5.6 2.3-1.7 4.6-3.2 7.3-4.4 2.5-1.2 5.1-2.3 7.9-3.1 2.7-.8 5.4-1.4 8.3-1.8 5.6-.8 11.3-.9 17-.4 5.7.5 11.3 1.5 16.8 2.9.6.2 1.3.4 1.7.7.4.3.7.6.8 1.1.3 1-.2 2.3-.6 3.6-.9 2.6-2.2 5-3.9 7.1-3.4 4.3-8.3 7.4-13.6 9.1s-11 2.1-16.7 1.7l-6.4-.4 6.1 2c3.1 1 5.7 3.4 7.3 6.2 1.6 2.9 2.2 6.3 1.4 9.5l.4-.4c-2.4.5-4.8.8-7.3 1.1-2.4.2-4.9.2-7.4.1-4.9-.3-9.8-1.2-14.5-2.7 4.6 1.8 9.5 2.9 14.4 3.4 2.5.2 4.9.3 7.5.2 2.5-.1 4.9-.4 7.5-.9l.3-.1.1-.3c1-3.5.4-7.3-1.3-10.5-1.6-3.2-4.4-5.9-8-7.1l-.3 1.6c5.8.5 11.7.1 17.4-1.6s10.8-5 14.6-9.6c1.9-2.3 3.4-4.9 4.3-7.7.2-.7.4-1.4.6-2.2.1-.8.2-1.6 0-2.5-.2-.9-.9-1.8-1.7-2.2-.8-.5-1.5-.7-2.3-.9-5.7-1.4-11.3-2.4-17.2-2.8-2.9-.2-5.8-.3-8.7-.2-2.9.1-5.8.3-8.7.8-2.8.5-5.7 1.1-8.5 2-2.7.9-5.4 2-8 3.4-5.1 2.7-9.8 6.3-13.5 10.7-3.8 4.1-6.6 9.3-8 14.8zm225.7-24.1c-2.3 1.2-4.7 2.3-7.2 3.2-2.4.9-4.9 1.6-7.6 2.1-5.1 1.1-10.3 1.6-15.5 1.7-2.6 0-5.2 0-7.9-.1-2.6-.1-5.2-.4-7.9-.6-5.2-.5-10.4-1.1-15.5-2.1-10.3-1.8-20.3-4.5-30.2-8.1-9.8-3.6-19.4-8-28.8-12.8 4.4 2.7 9.1 5.3 13.7 7.7 4.7 2.4 9.5 4.6 14.4 6.5 4.9 2 9.9 3.6 15 5.1 5 1.4 10.3 2.6 15.4 3.5 5.2.9 10.5 1.6 15.7 2 5.2.5 10.6.7 15.8.4 5.2-.2 10.6-.9 15.7-2.3 2.5-.7 5-1.6 7.5-2.6 2.9-.9 5.2-2.2 7.4-3.6z"/></svg>