<svg version="1.1" id="Слой_1" xmlns="http://www.w3.org/2000/svg" x="0" y="0" viewBox="0 0 36 36" xml:space="preserve"><style>.st2{fill:#fff}</style><path d="M21.4 2h-6.8C8 2 2.7 7.3 2.7 13.9V19c0 4.6 2.7 8.8 6.8 10.8v5.7c0 .5.6.8 1 .4l4.9-4.9h6c6.6 0 11.9-5.3 11.9-11.9V14c0-6.7-5.3-12-11.9-12z" fill="#665cac"/><path d="M11.2 29.8c-4.1-2-6.8-6.1-6.8-10.8v-5.1C4.4 7.3 9.7 2 16.3 2h-1.7C8 2 2.7 7.3 2.7 13.9V19c0 4.6 2.7 8.8 6.8 10.8v5.7c0 .5.6.8 1 .4l.7-.7v-5.4z" fill="#523494"/><path class="st2" d="M26.6 23.1l-.6-2.7c0-.2-.2-.4-.4-.5l-4-.8c-.2 0-.4 0-.5.2l-1.6 1.6c-2.7-1.2-4.3-2.8-5.6-5.6l1.6-1.6c.1-.1.2-.3.2-.5l-.8-4c0-.2-.2-.4-.5-.4l-2.8-.5h-.2c-.7 0-1.4.4-1.9.9-.9.9-1.3 2.3-1 3.9.4 2.7 1.8 6.5 4.2 8.9 2.5 2.4 6.2 3.8 8.9 4.2.3.1.7.1 1 .1 1.2 0 2.2-.4 2.9-1.1.5-.5.9-1.2 1.1-1.9v-.2z"/><path d="M14.9 14.2l.6-.6-.6.6zm6.2 5.1l-.6.6.6-.6zm2.6 6c-.3 0-.6 0-1-.1-2.7-.4-6.5-1.8-8.9-4.2-2.4-2.5-3.8-6.2-4.2-8.9-.2-1.3 0-2.4.5-3.3-.3.1-.5.3-.6.4-.9.9-1.3 2.3-1 3.9.4 2.7 1.8 6.5 4.2 8.9 2.5 2.4 6.2 3.8 8.9 4.2.3.1.7.1 1 .1 1.2 0 2.2-.4 2.9-1.1.2-.2.4-.4.5-.6-.7.5-1.4.7-2.3.7z" fill="#e5e5e5"/><path class="st2" d="M19.1 11.6c-.3 0-.6.3-.6.6s.3.6.6.6c1.3 0 2.3 1 2.3 2.3 0 .3.3.6.6.6s.6-.3.6-.6c-.1-1.9-1.6-3.5-3.5-3.5z"/><path class="st2" d="M19.1 9.4h-.6c-.3 0-.5.3-.5.6s.3.5.6.5h.5c2.5 0 4.5 2 4.5 4.5v.5c0 .3.2.6.5.6s.6-.2.6-.5V15c.1-3.1-2.4-5.6-5.6-5.6z"/><path class="st2" d="M19.1 7.1h-.6c-.3 0-.5.3-.5.6s.3.5.6.5h.5c3.8 0 6.8 3.1 6.8 6.8 0 .5-.1 1.1-.2 1.6-.1.3.1.6.4.7.3.1.6-.1.7-.4.1-.6.2-1.2.2-1.8.1-4.4-3.5-8-7.9-8z"/></svg>