<?xml version="1.0" standalone="no"?>
<!DOCTYPE svg PUBLIC "-//W3C//DTD SVG 1.1//EN" "http://www.w3.org/Graphics/SVG/1.1/DTD/svg11.dtd" >
<svg xmlns="http://www.w3.org/2000/svg" xmlns:xlink="http://www.w3.org/1999/xlink" version="1.1">
<metadata>
Created by FontForge 20190801 at Mon Jul 16 18:09:42 2007
 By Jimmy Wärting
Copyright (c) C) "ATRI",Graphic Bureau "Az-Zet"(R),S.Agronsky,, 1970. All rights reserved.
</metadata>
<defs>
<font id="Baskerville" horiz-adv-x="1155" >
  <font-face 
    font-family="Baskerville"
    font-weight="400"
    font-stretch="normal"
    units-per-em="4096"
    panose-1="2 2 114 0 0 0 0 0 0 0"
    ascent="3276"
    descent="-820"
    x-height="1704"
    cap-height="2736"
    bbox="-778 -1130 4309 3768"
    underline-thickness="135"
    underline-position="-202"
    unicode-range="U+0020-F002"
  />
<missing-glyph horiz-adv-x="3072" 
d="M512 0v2560h2048v-2560h-2048zM2494 66v2428h-1916v-2428h1916z" />
    <glyph glyph-name=".notdef" horiz-adv-x="3072" 
d="M512 0v2560h2048v-2560h-2048zM2494 66v2428h-1916v-2428h1916z" />
    <glyph glyph-name=".null" horiz-adv-x="0" 
 />
    <glyph glyph-name="nonmarkingreturn" horiz-adv-x="0" 
 />
    <glyph glyph-name="space" unicode=" " 
 />
    <glyph glyph-name="exclam" unicode="!" horiz-adv-x="1032" 
d="M582 926h-148q-5 143 -26 298t-58 377.5t-54 362t-17 272.5q0 196 45.5 381t183.5 185q140 0 188.5 -180t48.5 -386q0 -136 -19.5 -283t-59 -372t-59.5 -364t-25 -291zM508 -57q-92 0 -160.5 70t-68.5 167q0 91 68.5 160.5t160.5 69.5q97 0 163 -68t66 -162
q0 -100 -66 -168.5t-163 -68.5z" />
    <glyph glyph-name="quotedbl" unicode="&#x22;" horiz-adv-x="1499" 
d="M475 1638h-164l-106 1098h377zM1147 1638h-164l-106 1098h376z" />
    <glyph glyph-name="numbersign" unicode="#" horiz-adv-x="2441" 
d="M1606 942l-189 -942h-180l197 942h-598l-197 -942h-172l188 942h-475l33 156h483l115 590h-475l24 163h492l180 885h172l-180 -885h598l180 885h180l-180 -885h443l-25 -163h-459l-114 -590h450l-24 -156h-467zM1475 1098l106 590h-598l-106 -590h598z" />
    <glyph glyph-name="dollar" unicode="$" horiz-adv-x="1925" 
d="M1073 2621v-1040q9 0 41 -16q256 -125 394 -209.5t240.5 -230t102.5 -363.5q0 -147 -63 -285.5t-171 -245.5t-251 -169t-293 -62v-442h-147v442q-391 26 -656 279q-180 180 -180 303q0 67 48 115t116 48q78 0 115 -50.5t122 -201t179.5 -235.5t255.5 -111v1090
q-176 85 -296 143.5t-224 135t-169 195t-65 288.5q0 344 202 540t552 214v409h147v-409q368 -43 565 -263q148 -146 148 -295q0 -71 -42.5 -121.5t-113.5 -50.5q-76 0 -115.5 96.5t-73 197t-116.5 187.5t-252 117zM926 2621q-125 -5 -241 -57.5t-187.5 -150t-71.5 -226.5
q0 -190 137.5 -313t362.5 -227v974zM1073 147q127 12 243 83t186.5 182.5t70.5 242.5q0 101 -44.5 177.5t-115 130.5t-163 104t-177.5 96v-1016z" />
    <glyph glyph-name="percent" unicode="%" horiz-adv-x="2269" 
d="M532 1343q-165 0 -271.5 108t-155 267.5t-48.5 313.5q0 158 48.5 319t155 269t271.5 108q161 0 265.5 -109t153 -269.5t48.5 -317.5q0 -256 -117 -472.5t-350 -216.5zM532 1417q109 0 165 113.5t72.5 253t16.5 256.5q0 213 -50 417.5t-204 204.5q-153 0 -207.5 -208
t-54.5 -414q0 -207 54.5 -415t207.5 -208zM1942 2736l-1508 -2736h-147l1515 2736h140zM1704 -25q-160 0 -267.5 109.5t-157.5 270.5t-50 317q0 155 50 315.5t157.5 270.5t267.5 110t265.5 -108.5t153.5 -270t48 -317.5q0 -157 -46.5 -318t-151.5 -270t-269 -109zM1704 57
q109 0 165 113.5t72.5 253t16.5 256.5q0 213 -50 418t-204 205q-152 0 -203 -205t-51 -418q0 -214 51 -418.5t203 -204.5z" />
    <glyph glyph-name="ampersand" unicode="&#x26;" horiz-adv-x="2654" 
d="M1532 1622h844v-106q-145 -33 -241 -130t-171 -251.5t-143.5 -297.5t-149.5 -239q307 -410 557 -410q93 0 184.5 51t151.5 130l82 -107q-75 -132 -219 -221.5t-289 -89.5q-206 0 -363.5 96.5t-308.5 280.5q-118 -123 -223 -204.5t-229 -127t-277 -45.5q-180 0 -342 99
t-262.5 262t-107.5 343q0 511 622 861q-58 94 -97.5 160t-73 136.5t-54.5 148t-21 161.5q0 213 180 340t402 127q123 0 251 -48.5t213 -141.5t85 -220q0 -146 -76.5 -257t-171 -179.5t-285.5 -186.5q91 -128 273.5 -394t316.5 -449q107 127 180.5 287t73.5 303
q0 113 -88 163t-223 50v106zM926 1663q360 215 360 467q0 128 -93.5 219.5t-217.5 91.5q-122 0 -212.5 -79t-90.5 -199q0 -86 37 -159t112.5 -178t104.5 -163zM721 1409q-183 -136 -276 -258.5t-93 -306.5q0 -146 74.5 -288t201.5 -236.5t273 -106.5q302 0 492 213
q-94 126 -204.5 286t-234.5 346.5t-233 350.5z" />
    <glyph glyph-name="quotesingle" unicode="'" horiz-adv-x="860" 
d="M500 1638h-172l-107 1098h385z" />
    <glyph glyph-name="parenleft" unicode="(" horiz-adv-x="1245" 
d="M877 -1130q-178 268 -302.5 593.5t-185.5 666.5t-61 673q0 334 61 675.5t185 665t303 592.5h286q-189 -277 -317 -594.5t-192 -657.5t-64 -681q0 -337 64 -677t192.5 -660t316.5 -596h-286z" />
    <glyph glyph-name="parenright" unicode=")" horiz-adv-x="1245" 
d="M336 -1130h-287q188 276 317 596.5t193 659.5t64 677q0 340 -64 680t-192.5 658t-317.5 595h287q179 -269 303 -592.5t185 -664.5t61 -676q0 -331 -61 -672.5t-185.5 -667t-302.5 -593.5z" />
    <glyph glyph-name="asterisk" unicode="*" horiz-adv-x="1925" 
d="M1032 2171q70 23 181 104.5t170.5 115.5t140.5 34q71 0 113 -57.5t42 -131.5q0 -101 -82 -130.5t-229 -41.5h-98q-112 0 -189 -32q39 -58 158 -142t176 -137t68 -139q0 -73 -57.5 -126.5t-131.5 -53.5q-83 0 -134.5 84.5t-107.5 240t-85 191.5q-38 -44 -90.5 -198
t-102 -236t-143.5 -82q-67 0 -123.5 53t-56.5 119q0 78 58.5 136t183 151.5t159.5 146.5q-85 24 -188 24h-107q-152 13 -226.5 37t-84.5 119q0 78 40.5 141.5t114.5 63.5q81 0 126.5 -28t169.5 -118t196 -108q0 85 -49 242t-49 241q0 79 45.5 121.5t117.5 42.5
q76 0 124 -44.5t48 -119.5q0 -90 -49 -247t-49 -236z" />
    <glyph glyph-name="plus" unicode="+" horiz-adv-x="2056" 
d="M82 1516h836v794h212v-794h836v-205h-836v-795h-212v795h-836v205z" />
    <glyph glyph-name="comma" unicode="," horiz-adv-x="991" 
d="M229 -713v74q328 230 328 483q0 61 -33 156q-82 -16 -123 -16q-83 0 -148 71t-65 158q0 97 68 163t162 66q109 0 189.5 -66.5t121.5 -171t41 -212.5q0 -239 -155 -438t-386 -267z" />
    <glyph glyph-name="hyphen" unicode="-" horiz-adv-x="901" 
d="M877 991v-205h-877v205h877z" />
    <glyph glyph-name="period" unicode="." horiz-adv-x="991" 
d="M492 -57q-97 0 -163.5 69t-66.5 168q0 93 66.5 161.5t163.5 68.5q90 0 155.5 -68.5t65.5 -161.5q0 -98 -65.5 -167.5t-155.5 -69.5z" />
    <glyph glyph-name="slash" unicode="/" horiz-adv-x="991" 
d="M1253 2736l-1368 -3866h-204l1368 3866h204z" />
    <glyph glyph-name="zero" unicode="0" horiz-adv-x="1925" 
d="M958 -49q-412 0 -663 459q-213 371 -213 933q0 302 87 621t284.5 541.5t504.5 222.5q306 0 504.5 -222.5t285.5 -541.5t87 -621q0 -218 -45 -456t-147.5 -452.5t-274.5 -349t-410 -134.5zM958 57q215 0 328 238t146.5 528t33.5 529t-33.5 526.5t-146.5 523.5t-328 236
t-327.5 -235.5t-146 -523.5t-33.5 -527t33.5 -529.5t146 -528t327.5 -237.5z" />
    <glyph glyph-name="one" unicode="1" horiz-adv-x="1925" 
d="M795 2327h-336v122q171 8 269.5 44.5t208 108.5t177.5 101q0 9 8 9q17 0 17 -25v-2228q0 -195 85 -269.5t283 -74.5v-115h-1097v115q150 0 230 25.5t117.5 99.5t37.5 219v1868z" />
    <glyph glyph-name="two" unicode="2" horiz-adv-x="1925" 
d="M1835 614l-156 -614h-1589l33 172q553 456 915.5 925.5t362.5 983.5q0 222 -144 389.5t-364 167.5q-143 0 -261 -65.5t-186.5 -182t-68.5 -260.5q0 -123 67.5 -237.5t178.5 -155.5q-17 -52 -74 -79.5t-115 -27.5q-132 0 -201 131t-69 279q0 205 102.5 362t276.5 241.5
t375 84.5q171 0 319 -55t264 -159.5t180 -247.5t64 -316q0 -256 -115.5 -490t-302.5 -437.5t-371 -351.5t-481 -368h975q85 0 135.5 45t84 117.5t67.5 148.5h98z" />
    <glyph glyph-name="three" unicode="3" horiz-adv-x="1925" 
d="M442 778q-57 -130 -57 -237q0 -127 71 -232.5t187.5 -166t241.5 -60.5q259 0 395.5 185.5t136.5 453.5q0 241 -95 432t-306 207q-52 0 -140.5 -61.5t-146.5 -61.5q-55 0 -101.5 42t-54.5 97q0 123 254 123q75 0 205 -16q160 65 244 212.5t84 327.5q0 158 -51 300
t-158.5 232.5t-265.5 90.5q-148 0 -254.5 -88t-106.5 -231q0 -159 123 -295q-44 -33 -131 -33q-102 6 -169.5 80.5t-67.5 173.5q0 152 102 260t254.5 161.5t298.5 53.5q188 0 365.5 -85.5t287 -239.5t109.5 -347q0 -232 -130.5 -397.5t-361.5 -208.5q162 -33 295 -136.5
t210 -254t77 -314.5q0 -245 -131 -426.5t-346.5 -274.5t-456.5 -93q-167 0 -332.5 55.5t-277 174t-111.5 294.5q0 133 90 218t221 85z" />
    <glyph glyph-name="four" unicode="4" horiz-adv-x="1925" 
d="M1876 1024l-107 -352h-401v-287q0 -108 30 -166.5t90.5 -81t166.5 -22.5v-115h-926v115q163 0 233 55.5t70 214.5v287h-991l1262 2007q33 33 40 33q25 0 25 -33v-1860q131 0 193.5 10t110 51t97.5 144h107zM1032 819v1254l-762 -1254h762z" />
    <glyph glyph-name="five" unicode="5" horiz-adv-x="1925" 
d="M705 2343l-91 -795q159 148 426 148q195 0 361 -103.5t263 -275.5t97 -367q0 -280 -139 -509t-377 -359.5t-516 -130.5q-142 0 -293 58t-252.5 171t-101.5 262q0 84 46.5 154t125.5 76q100 0 127 -68.5t53 -226.5t89.5 -239t221.5 -81q210 0 355 137.5t214.5 345
t69.5 410.5q0 159 -41.5 302t-142.5 236t-266 93q-106 0 -213 -79t-107 -183q0 -38 -31.5 -68t-74.5 -30q-18 0 -33.5 18.5t-15.5 38.5v8l155 1393q412 -33 918 -33q105 0 197 90h106q-115 -155 -181.5 -230t-167 -127t-241.5 -52q-90 0 -270 8t-270 8z" />
    <glyph glyph-name="six" unicode="6" horiz-adv-x="1925" 
d="M508 1548q193 205 524 205q228 0 403.5 -124t271 -327t95.5 -425q0 -242 -99 -455t-286.5 -342t-433.5 -129q-297 0 -493 166.5t-285.5 430t-89.5 558.5q0 281 70 563.5t217 525.5t374.5 388t526.5 145q158 0 296 -59t138 -195q0 -63 -39.5 -105t-100.5 -42
q-62 0 -99.5 36t-91.5 115.5t-101 121t-125 46.5q-214 0 -363.5 -183.5t-224.5 -442t-84 -472.5zM1458 877q0 306 -112 550t-379 244q-251 0 -371.5 -226.5t-120.5 -502.5q0 -195 41.5 -393t153.5 -340.5t305 -142.5q184 0 292 129.5t149.5 313.5t41.5 368z" />
    <glyph glyph-name="seven" unicode="7" horiz-adv-x="1925" 
d="M1761 2621l-983 -2424q-51 -122 -100 -184t-146 -62q-80 0 -126 47t-46 125q0 74 66 188l1122 2016h-835q-176 0 -290.5 -97t-152.5 -272h-114l114 778h99q0 -115 147 -115h1245z" />
    <glyph glyph-name="eight" unicode="8" horiz-adv-x="1925" 
d="M1401 1458q225 -84 358 -277.5t133 -435.5t-132.5 -423t-349 -276t-452.5 -95q-165 0 -325 56.5t-283.5 159.5t-195.5 248.5t-72 313.5q0 225 135 404.5t348 275.5q-418 178 -418 606q0 207 120 370.5t312 253t396 89.5q208 0 402.5 -81t318 -239.5t123.5 -375.5
q0 -196 -111.5 -342t-306.5 -232zM1188 1532q311 143 311 508q0 157 -62 292.5t-181.5 216.5t-280.5 81q-148 0 -263.5 -70.5t-180 -193.5t-64.5 -269q0 -313 311 -418zM778 1335q-182 -101 -271 -236t-89 -337q0 -174 62 -332.5t187 -257t300 -98.5q176 0 306.5 91.5
t198.5 243t68 320.5q0 166 -100 291.5t-260 183.5z" />
    <glyph glyph-name="nine" unicode="9" horiz-adv-x="1925" 
d="M1417 1122q-196 -196 -499 -196q-223 0 -408 112t-290 305t-105 418q0 174 61.5 348t175.5 314.5t270 222.5t336 82q296 0 492 -183t286.5 -461t90.5 -568q0 -360 -127 -722.5t-388.5 -602.5t-639.5 -240q-125 0 -258.5 46.5t-224.5 140t-91 222.5q0 83 43.5 140
t120.5 57q67 0 93 -46t81.5 -177.5t123 -195.5t194.5 -64q216 0 366 174t223.5 421.5t73.5 452.5zM1442 1761q0 321 -105.5 603t-369.5 282q-186 0 -296 -132t-153 -318.5t-43 -368.5q0 -188 39 -372t146 -315.5t290 -131.5q182 0 292.5 117.5t155 289t44.5 346.5z" />
    <glyph glyph-name="colon" unicode=":" horiz-adv-x="991" 
d="M492 -57q-97 0 -163.5 69t-66.5 168q0 93 66.5 161.5t163.5 68.5q90 0 155.5 -68.5t65.5 -161.5q0 -98 -65.5 -167.5t-155.5 -69.5zM492 1294q-98 0 -164 66t-66 164q0 93 66 161t164 68q91 0 156 -68t65 -161q0 -97 -64.5 -163.5t-156.5 -66.5z" />
    <glyph glyph-name="semicolon" unicode=";" horiz-adv-x="991" 
d="M229 -713v74q328 230 328 483q0 61 -33 156q-82 -16 -123 -16q-83 0 -148 71t-65 158q0 97 68 163t162 66q109 0 189.5 -66.5t121.5 -171t41 -212.5q0 -239 -155 -438t-386 -267zM483 1294q-98 0 -163.5 66.5t-65.5 163.5q0 92 65.5 156.5t163.5 64.5q93 0 157.5 -64.5
t64.5 -156.5q0 -97 -64.5 -163.5t-157.5 -66.5z" />
    <glyph glyph-name="less" unicode="&#x3c;" horiz-adv-x="2056" 
d="M1876 2531v-172l-1229 -794l1229 -828v-467l-1704 1147v25z" />
    <glyph glyph-name="equal" unicode="=" horiz-adv-x="2056" 
d="M82 1802h1884v-196h-1884v196zM82 1221h1884v-197h-1884v197z" />
    <glyph glyph-name="greater" unicode="&#x3e;" horiz-adv-x="2056" 
d="M172 270v181l1229 794l-1229 819v467l1704 -1147v-24z" />
    <glyph glyph-name="question" unicode="?" horiz-adv-x="1712" 
d="M803 926h-139v835h81q53 -68 97 -103.5t108 -35.5q145 0 208 166t63 334q0 210 -92 383.5t-285 173.5q-107 0 -139.5 -37.5t-94 -141.5t-127.5 -108q-56 0 -93.5 34.5t-37.5 88.5q0 143 164.5 215t335.5 72q189 0 347 -97.5t249.5 -261.5t91.5 -354q0 -137 -63.5 -281.5
t-180.5 -238.5t-264 -94q-119 0 -229 73v-622zM737 -57q-92 0 -160.5 70t-68.5 167q0 91 68.5 160.5t160.5 69.5q97 0 163.5 -68.5t66.5 -161.5q0 -99 -66.5 -168t-163.5 -69z" />
    <glyph glyph-name="at" unicode="@" horiz-adv-x="3211" 
d="M2499 475l131 -41q-229 -229 -515 -360t-591 -131q-263 0 -500.5 109.5t-414.5 301t-274 436.5t-97 504q0 326 125 604.5t346 479t509 308t609 107.5q233 0 445.5 -76t374 -217.5t252.5 -341t91 -438.5q0 -173 -41 -345.5t-125.5 -323.5t-210.5 -265q-215 -213 -459 -213
q-135 0 -202.5 113.5t-67.5 255.5q-252 -385 -557 -385q-181 0 -283 158t-102 350q0 218 105.5 474t290.5 431.5t407 175.5q218 0 360 -213l33 164q55 5 103 10.5t126 14.5l-245 -967q-41 -198 -41 -254q0 -196 131 -196q175 0 368 229q263 309 263 770q0 209 -79.5 384.5
t-219.5 301.5t-326 195t-391 69q-198 0 -383 -45t-349.5 -137.5t-291.5 -226.5q-100 -109 -189.5 -280t-142.5 -357.5t-53 -337.5q0 -235 91.5 -449.5t256 -380.5t377.5 -258t446 -92q244 0 459.5 100.5t450.5 284.5zM1942 1450l81 254q9 16 9 57q0 112 -62 191.5t-168 79.5
q-181 0 -325.5 -181.5t-225 -430.5t-80.5 -429q0 -117 57 -210t165 -93q191 0 338 228.5t194 451.5q4 13 7.5 39t9.5 43z" />
    <glyph glyph-name="A" unicode="A" horiz-adv-x="2998" 
d="M1565 2777l1032 -2376q64 -141 151 -205.5t234 -64.5v-131h-1131v131h91q237 0 237 123q0 52 -33 147l-221 525h-1089l-213 -525q-33 -80 -33 -114q0 -156 254 -156h90v-131h-950v131q188 0 286.5 55t163.5 215l983 2376h148zM1843 1098l-352 868q-98 257 -115 328
q-14 -28 -33 -99l-442 -1097h942z" />
    <glyph glyph-name="B" unicode="B" horiz-adv-x="2482" 
d="M1384 1483q229 -10 429 -93.5t324 -247.5t124 -397q0 -221 -109 -391.5t-295.5 -262t-406.5 -91.5h-1393v131q168 6 245 23.5t121 85.5t44 219v1818q0 151 -44 219t-121 85.5t-245 23.5v131h1327q189 0 357.5 -68t270.5 -205.5t102 -332.5q0 -300 -203 -452t-527 -195z
M877 1401v-942q0 -183 101.5 -247.5t299.5 -64.5q276 0 396 181t120 475q0 278 -121 408.5t-302.5 160t-493.5 29.5zM877 1532q265 0 425 29.5t260.5 145t100.5 357.5q0 266 -102.5 399.5t-356.5 133.5h-327v-1065z" />
    <glyph glyph-name="C" unicode="C" horiz-adv-x="2867" 
d="M2679 2728l41 -983h-131q-65 268 -188.5 471.5t-321.5 320.5t-473 117q-319 0 -529.5 -184.5t-307.5 -472.5t-97 -596q0 -333 108 -624t337.5 -468.5t570.5 -177.5q307 0 590.5 191.5t400.5 480.5l147 -115q-104 -234 -298.5 -407t-443 -264t-503.5 -91
q-300 0 -555.5 105t-439 295t-282.5 449.5t-99 559.5q0 296 99 562t284 470.5t442.5 319.5t558.5 115q479 0 885 -279q37 60 90 205h115z" />
    <glyph glyph-name="D" unicode="D" horiz-adv-x="3039" 
d="M57 2605v131q91 0 275 -4t274 -4t271 4t270 4q256 0 424.5 -13.5t329.5 -68.5q427 -152 664 -501.5t237 -809.5q0 -301 -96.5 -548.5t-279 -427t-431.5 -273.5t-553 -94h-1385v131q168 6 245 23.5t121 85.5t44 219v1818q0 150 -45.5 218.5t-123 86t-241.5 23.5zM877 2589
v-1991q0 -158 22 -246t74.5 -132.5t142 -58.5t244.5 -14q262 0 447.5 96.5t297 262.5t162.5 382.5t51 463.5q0 601 -284.5 927t-870.5 326q-90 0 -286 -16z" />
    <glyph glyph-name="E" unicode="E" horiz-adv-x="2400" 
d="M2073 2736l73 -672h-123q-60 251 -186.5 392t-361.5 141h-598v-1073h262q363 0 377 377h131v-926h-131q-27 223 -94.5 312t-282.5 89h-262v-876q0 -203 111 -282t323 -79q310 0 493 60.5t310 275.5q113 228 122 369h123l-57 -844h-2245v131q168 6 245 23.5t121 85.5
t44 219v1818q0 151 -44 219t-121 85.5t-245 23.5v131h2016z" />
    <glyph glyph-name="F" unicode="F" horiz-adv-x="2138" 
d="M1622 1901v-934h-123q0 199 -80 304t-272 105h-279v-917q0 -150 45.5 -218.5t123 -86t241.5 -23.5v-131h-1221v131q168 6 245 23.5t121 85.5t44 219v1818q0 150 -45.5 218.5t-123 86t-241.5 23.5v131h1999l74 -663h-123q-46 162 -109 275t-170 181t-270 68h-590v-1081
h303q328 0 328 385h123z" />
    <glyph glyph-name="G" unicode="G" horiz-adv-x="3080" 
d="M1827 1188h1188v-123h-58q-303 0 -303 -262v-606q-155 -21 -433 -113t-394 -125t-295 -33q-378 0 -683.5 178t-478.5 488t-173 686q0 308 99.5 584.5t284 488t444.5 331.5t572 120q484 0 828 -271q64 91 90 197h115l24 -926h-139q-24 174 -99 334.5t-190.5 279t-272 187
t-339.5 68.5q-353 0 -563.5 -197t-294.5 -501.5t-84 -653.5q0 -296 95 -579t299.5 -466.5t506.5 -183.5q116 0 277 46t278 125t117 173v369q0 151 -77 206.5t-243 55.5h-98v123z" />
    <glyph glyph-name="H" unicode="H" horiz-adv-x="3121" 
d="M2236 1360h-1359v-901q0 -150 45 -218.5t122.5 -86t241.5 -23.5v-131h-1229v131q168 6 245 23.5t121 85.5t44 219v1818q0 150 -45.5 218.5t-123 86t-241.5 23.5v131h1229v-131q-205 0 -319 -57q-58 -31 -74 -98.5t-16 -172.5v-745h1359v745q0 141 -45 210.5t-127 91
t-237 26.5v131h1229v-131q-215 0 -320 -57q-58 -31 -74 -98.5t-16 -172.5v-1818q0 -155 48 -224t123 -83.5t239 -20.5v-131h-1229v131q159 5 240 26t125 90t44 212v901z" />
    <glyph glyph-name="I" unicode="I" horiz-adv-x="1368" 
d="M1286 0h-1229v131q168 6 245 23.5t121 85.5t44 219v1818q0 151 -44 219t-121 85.5t-245 23.5v131h1229v-131q-206 0 -311 -57q-64 -31 -81 -98.5t-17 -172.5v-1818q0 -150 45 -218.5t122.5 -86t241.5 -23.5v-131z" />
    <glyph glyph-name="J" unicode="J" horiz-adv-x="1327" 
d="M25 2605v131h1228v-131q-205 0 -319 -57q-58 -31 -74 -98.5t-16 -172.5v-2252q0 -242 -33 -417t-139 -321q-90 -122 -218 -210.5t-278.5 -135.5t-306.5 -47q-230 0 -438.5 84t-208.5 285q0 84 67 148.5t154 64.5q79 0 133.5 -57.5t54.5 -139.5q0 -25 -11.5 -68t-12.5 -47
q0 -86 65.5 -108.5t180.5 -22.5q581 0 581 713v2531q0 145 -47 214t-126.5 88.5t-235.5 25.5z" />
    <glyph glyph-name="K" unicode="K" horiz-adv-x="2867" 
d="M1450 1696l1049 -1368q149 -197 442 -197v-131h-1196v131q90 0 139 8q148 0 148 66q0 46 -58 123l-819 1097l-278 -254v-712q0 -150 45 -218.5t122.5 -86t241.5 -23.5v-131h-1229v131q168 6 245 23.5t121 85.5t44 219v1818q0 150 -45.5 218.5t-123 86t-241.5 23.5v131
h1229v-131q-206 0 -311 -57q-64 -31 -81 -98.5t-17 -172.5v-884l958 884q59 59 91 99.5t32 89.5q0 147 -287 147v123h1073v-123q-308 0 -549 -229z" />
    <glyph glyph-name="L" unicode="L" horiz-adv-x="2359" 
d="M2351 844l-49 -844h-2245v131q168 6 245 23.5t121 85.5t44 219v1818q0 150 -45.5 218.5t-123 86t-241.5 23.5v131h1229v-131q-205 0 -319 -57q-58 -31 -74 -98.5t-16 -172.5v-1777q0 -204 107 -282.5t319 -78.5q206 0 342 20t254 92.5t206 223.5q121 210 131 369h115z
" />
    <glyph glyph-name="M" unicode="M" horiz-adv-x="3637" 
d="M1745 0h-123l-811 1942q-40 100 -95.5 257.5t-84.5 225.5v-1802q0 -170 24 -267t112.5 -155.5t272.5 -69.5v-131h-983v131q220 6 315 105.5t95 320.5v1663q0 170 -37 250t-117.5 105t-255.5 30v131h852l623 -1491q123 -265 262 -713q22 45 33 91l876 2113h844v-131
q-206 0 -311 -57q-98 -53 -98 -271v-1818q0 -189 65 -246q82 -82 303 -82h41v-131h-1229v131q183 8 267 39.5t113.5 111t29.5 250.5v1377q0 297 25 573q-23 -87 -115 -344z" />
    <glyph glyph-name="N" unicode="N" horiz-adv-x="2998" 
d="M868 2736l1336 -1851q45 -57 155 -279q0 51 -4 143t-4 136v1310q0 152 -26.5 229t-71 103.5t-134 43t-145.5 34.5v131h942v-131q-211 0 -302 -96.5t-91 -313.5v-2220h-172l-1458 2032q-101 135 -262 410v-1737q0 -197 22 -303.5t109 -170.5t270 -75v-131h-975v131
q225 6 317.5 107t92.5 335v1704q0 150 -45.5 218.5t-123 86t-241.5 23.5v131h811z" />
    <glyph glyph-name="O" unicode="O" horiz-adv-x="3293" 
d="M1638 -74q-404 0 -736.5 186.5t-523 517t-190.5 738.5q0 412 188.5 740.5t520.5 511t741 182.5q414 0 747.5 -182.5t522.5 -511t189 -740.5q0 -409 -191 -739.5t-526 -516.5t-742 -186zM1638 74q356 0 575.5 183t313.5 474t94 637q0 258 -50.5 487t-163.5 413.5
t-305 293.5t-464 109q-269 0 -458.5 -109t-302 -293.5t-163 -414t-50.5 -486.5q0 -348 93 -639.5t311 -473t570 -181.5z" />
    <glyph glyph-name="P" unicode="P" horiz-adv-x="2228" 
d="M877 1303v-844q0 -150 45 -218.5t122.5 -86t241.5 -23.5v-131h-1229v131q168 6 245 23.5t121 85.5t44 219v1818q0 150 -45.5 218.5t-123 86t-241.5 23.5v131h959q358 0 599.5 -39t410.5 -199t169 -491q0 -191 -90.5 -353t-253.5 -253q-187 -98 -581 -98h-393zM877 1425
h311q270 0 417.5 161.5t147.5 436.5q0 217 -68 349.5t-204.5 190.5t-350.5 58q-46 0 -130 -4t-123 -4v-1188z" />
    <glyph glyph-name="Q" unicode="Q" horiz-adv-x="3293" 
d="M1647 -66q-414 0 -745 180.5t-518 508.5t-187 745q0 413 193 741t530.5 510.5t750.5 182.5q408 0 736 -182t513 -508.5t185 -735.5q0 -302 -108 -569.5t-314.5 -470.5t-487.5 -311q-127 -55 -268 -110t-315 -122.5t-301 -120.5q82 9 254 9q245 0 461.5 -66.5t500.5 -197
t446.5 -187.5t352.5 -57q184 0 294.5 83t180.5 261q16 32 33 32q41 0 41 -41q0 -165 -132 -313t-325 -236.5t-354 -88.5q-208 0 -399.5 91t-464 273t-458.5 273.5t-390 91.5q-93 0 -166.5 -30t-155.5 -78t-104 -48q-40 0 -65 33t-25 73t57 58q449 159 754 327zM2630 1417
q0 337 -94.5 620t-312 458.5t-560.5 175.5q-279 0 -471.5 -107t-307 -290.5t-163.5 -416.5t-49 -497q0 -547 226 -916.5t740 -369.5q547 0 769.5 379.5t222.5 963.5z" />
    <glyph glyph-name="R" unicode="R" horiz-adv-x="2785" 
d="M877 1294v-835q0 -150 45 -218.5t122.5 -86t241.5 -23.5v-131h-1229v131q168 6 245 23.5t121 85.5t44 219v1818q0 150 -45.5 218.5t-123 86t-241.5 23.5v131h1164q508 0 745 -180q262 -207 262 -508q0 -203 -108 -361t-284.5 -244t-377.5 -91q147 -23 257.5 -83
t192.5 -143.5t173 -218.5t147 -219q75 -115 169.5 -255.5t203 -221t258.5 -80.5v-131h-623q-139 122 -254.5 310t-270.5 449t-277 396q-129 139 -328 139h-229zM877 1425h352q289 0 419 151.5t130 455.5q0 573 -607 573h-294v-1180z" />
    <glyph glyph-name="S" unicode="S" horiz-adv-x="2097" 
d="M1778 2761v-738h-123q-47 286 -216.5 471t-447.5 185q-117 0 -222.5 -47.5t-171 -135t-65.5 -202.5q0 -218 156.5 -333.5t522 -296t552.5 -369t187 -509.5q0 -237 -103 -434t-289.5 -311.5t-427.5 -114.5q-386 0 -745 303q-69 -124 -90 -229h-131v860h131
q24 -187 128.5 -363t269.5 -283.5t356 -107.5q162 0 298 55t218 168.5t82 276.5q0 247 -174 386t-531 310t-539 339t-182 464q0 206 103.5 365.5t278.5 245.5t380 86q377 0 606 -205q44 52 90 164h99z" />
    <glyph glyph-name="T" unicode="T" horiz-adv-x="2654" 
d="M1925 0h-1220v131q166 5 245 24.5t121.5 87.5t42.5 216v2138h-459q-237 0 -352.5 -133.5t-187.5 -390.5h-131l73 663h2515l74 -663h-123q-53 168 -113 279t-164.5 178t-271.5 67h-458v-2138q0 -149 46.5 -218t124 -86.5t238.5 -23.5v-131z" />
    <glyph glyph-name="U" unicode="U" horiz-adv-x="2867" 
d="M1819 2728h991v-123q-145 -11 -203.5 -19.5t-116.5 -45.5q-64 -38 -81 -109.5t-17 -177.5v-1319q0 -482 -185 -745t-651 -263q-407 0 -637 77t-341 291t-111 624v1359q0 151 -44 219t-121 85.5t-245 23.5v123h1229v-123q-61 -2 -142.5 -5.5t-139 -29t-92.5 -96
t-35 -197.5v-1310q0 -222 21.5 -374t92 -272t207 -183.5t358.5 -63.5q267 0 416 108.5t202.5 294.5t53.5 449v1327q0 144 -44.5 216.5t-129 100t-235.5 35.5v123z" />
    <glyph glyph-name="V" unicode="V" horiz-adv-x="2998" 
d="M1548 -49h-147l-1032 2384q-122 270 -385 270v131h1130v-131h-90q-238 0 -238 -123q0 -46 33 -147l656 -1565q75 -195 114 -319q21 39 33 90l721 1794q33 85 33 123q0 91 -74 119t-188 28h-82v131h942v-131h-33q-173 -19 -259 -70.5t-151 -199.5z" />
    <glyph glyph-name="W" unicode="W" horiz-adv-x="3891" 
d="M2073 2736l540 -1573q124 -316 180 -590q19 101 91 369l393 1335q33 120 33 164q0 103 -93 133.5t-235 30.5h-33v131h942v-131q-177 0 -278.5 -53.5t-147.5 -208.5l-704 -2392h-148l-721 2081l-639 -2081h-163l-730 2392q-35 127 -135.5 194.5t-240.5 67.5v131h1106v-131
h-66q-254 0 -254 -139q0 -23 25 -90l393 -1401q24 -75 54.5 -211.5t43.5 -190.5l664 2163h123z" />
    <glyph glyph-name="X" unicode="X" horiz-adv-x="2957" 
d="M1647 1548l802 -1188q83 -122 191.5 -172.5t267.5 -56.5v-131h-1188v131h82q213 0 213 98q0 60 -57 131l-574 852l-639 -852q-47 -47 -57 -98q0 -139 287 -139q4 0 21 4t20 4v-131h-1016v131q383 0 557 229l746 992l-713 1024q-86 128 -190.5 175.5t-276.5 53.5v131h1180
v-131h-74q-205 0 -205 -90q0 -42 57 -139l467 -688l525 688q49 65 49 123q0 106 -262 106h-58v131h1008v-131q-204 -15 -329 -58.5t-220 -170.5z" />
    <glyph glyph-name="Y" unicode="Y" horiz-adv-x="2736" 
d="M1565 1221v-762q0 -145 47 -214t126.5 -88.5t235.5 -25.5v-131h-1220v131q163 5 242 25t123 88t44 215v762l-753 1163q-75 122 -171.5 168.5t-254.5 52.5v131h1179v-131h-106q-197 0 -197 -98q0 -18 41 -123l582 -1008l614 1008q33 64 33 106q0 72 -94.5 93.5
t-282.5 21.5v131h983v-131q-173 -6 -286.5 -65.5t-196.5 -196.5z" />
    <glyph glyph-name="Z" unicode="Z" horiz-adv-x="2441" 
d="M2245 729h131l-58 -729h-2277v66l1728 2514h-884q-452 0 -590 -524h-131l74 680h2080v-57l-1728 -2523h1007q276 0 422 145.5t226 427.5z" />
    <glyph glyph-name="bracketleft" unicode="[" 
d="M385 2736h696v-139h-385v-3588h385v-139h-696v3866z" />
    <glyph glyph-name="backslash" unicode="\" horiz-adv-x="991" 
d="M-311 2736h205l1368 -3866h-205z" />
    <glyph glyph-name="bracketright" unicode="]" 
d="M745 2736v-3866h-696v139h385v3588h-385v139h696z" />
    <glyph glyph-name="asciicircum" unicode="^" horiz-adv-x="2056" 
d="M2154 1163h-172l-794 1229l-828 -1229h-466l1146 1704h25z" />
    <glyph glyph-name="underscore" unicode="_" horiz-adv-x="2056" 
d="M82 -369h1884v-196h-1884v196z" />
    <glyph glyph-name="grave" unicode="`" horiz-adv-x="2056" 
d="M1196 2490l213 -508v-24q0 -25 -49 -25q-17 9 -49 25l-647 467q-25 22 -25 33q0 32 49 32h508z" />
    <glyph glyph-name="a" unicode="a" horiz-adv-x="1884" 
d="M1786 360h123q-41 -174 -143 -291.5t-267 -117.5q-140 0 -228 79t-108 216q-105 -125 -271 -206t-327 -81q-181 0 -291 118.5t-110 299.5q0 203 93 317.5t224 164.5t354.5 102t327.5 96v139q0 215 -59 320.5t-260 105.5q-121 0 -175 -51.5t-91 -153t-73 -149t-128 -47.5
q-70 0 -125 34t-55 97q0 132 110.5 223t266 134.5t278.5 43.5q305 0 480 -118t175 -406v-901q0 -171 107 -181q71 0 106 51.5t58 137.5q8 8 8 24zM1163 934q-49 -21 -194 -65.5t-234 -83t-155 -109.5t-72 -184q0 -127 78 -211t209 -84q176 0 368 163v574z" />
    <glyph glyph-name="b" unicode="b" horiz-adv-x="2228" 
d="M672 1507q103 121 251 183.5t314 62.5q254 0 439.5 -118.5t282.5 -323t97 -451.5q0 -254 -106.5 -461.5t-302.5 -327.5t-451 -120q-281 0 -590 196q-70 -51 -131 -172l-139 25v2277q0 328 -279 328v131q263 31 615 115v-1344zM672 434q189 -311 499 -311q182 0 297.5 104
t167.5 266t52 334q0 309 -107.5 523.5t-384.5 214.5q-181 0 -321 -72t-203 -223v-836z" />
    <glyph glyph-name="c" unicode="c" horiz-adv-x="1802" 
d="M1565 442l123 -41q-159 -425 -639 -450q-249 0 -452 104.5t-318 296t-115 443.5q0 262 102 478.5t297.5 344t460.5 127.5q185 0 383.5 -84.5t198.5 -243.5q0 -69 -44 -112t-112 -43q-88 0 -147 49q-13 154 -76 224.5t-211 70.5q-169 0 -273 -105.5t-149 -266t-45 -325.5
q0 -188 55 -367.5t180 -299t314 -119.5q306 0 467 319z" />
    <glyph glyph-name="d" unicode="d" horiz-adv-x="2228" 
d="M1548 1507v770q0 328 -278 328v131q290 34 614 115v-2392q0 -328 279 -328v-131q-251 0 -492 -25q-44 77 -57 172q-309 -196 -590 -196q-255 0 -451 120t-302.5 327.5t-106.5 461.5q0 247 97 451.5t282.5 323t439.5 118.5q356 0 565 -246zM1548 434v836q-63 151 -203 223
t-321 72q-271 0 -381.5 -219t-110.5 -519q0 -279 126 -491.5t391 -212.5q156 0 286.5 83t212.5 228z" />
    <glyph glyph-name="e" unicode="e" horiz-adv-x="1884" 
d="M1704 918h-1163q0 -803 524 -803q307 0 524 311l115 -66q-256 -409 -705 -409q-248 0 -437.5 115t-293.5 318t-104 452q0 245 99.5 455.5t287.5 336t440 125.5q168 0 301.5 -68t226 -187t139 -269t46.5 -311zM1343 1057v41q0 499 -376 499q-210 0 -314.5 -158.5
t-111.5 -381.5h802z" />
    <glyph glyph-name="f" unicode="f" horiz-adv-x="1114" 
d="M1049 1704v-123h-369v-1122q0 -136 36.5 -206t111 -96t212.5 -34v-123h-974v131q157 0 217.5 81.5t60.5 246.5v1122h-287v123h287q0 236 17 407t79.5 323.5t202 247.5t373.5 95q142 0 259.5 -75.5t117.5 -211.5q0 -64 -48.5 -113.5t-115.5 -49.5q-85 0 -114.5 39t-43 119
t-33 116.5t-88.5 36.5q-153 0 -211.5 -128.5t-58.5 -305.5v-500h369z" />
    <glyph glyph-name="g" unicode="g" horiz-adv-x="1974" 
d="M1458 1483q90 -146 90 -353q0 -249 -163 -410t-418 -179q-165 0 -348 -36t-193 -136q0 -82 156 -82q313 0 614 -25q292 -20 457.5 -141t165.5 -400q0 -242 -128.5 -421.5t-340.5 -272t-449 -92.5q-182 0 -378 61.5t-331 189.5t-135 314q0 119 68 216.5t179.5 153.5
t227.5 56q50 0 74 -8q-150 -122 -206 -189.5t-56 -195.5q0 -142 88.5 -238t223.5 -142t270 -46q144 0 288 46t239 147t95 249q0 155 -112 234.5t-281 93.5q-146 9 -293.5 20t-294 48t-242.5 121t-96 229q0 131 115.5 210t261.5 93q-117 37 -202 111t-130 177.5t-45 227.5
q0 290 185.5 464.5t478.5 174.5q151 0 290 -54t226 -159q170 202 377 213q76 0 136 -40t60 -116q0 -64 -37.5 -109.5t-101.5 -45.5q-39 0 -76.5 28.5t-75.5 57t-77 28.5q-69 0 -156 -73zM1229 1130q0 517 -336 517q-186 0 -261 -163t-75 -378q0 -189 76 -332t244 -143
q184 0 268 149.5t84 349.5z" />
    <glyph glyph-name="h" unicode="h" horiz-adv-x="2138" 
d="M2081 0h-885v131q151 0 210.5 81.5t59.5 246.5v721q0 173 -89.5 270.5t-262.5 97.5q-210 0 -442 -188v-901q0 -165 60.5 -246.5t217.5 -81.5v-131h-893v131q158 0 218.5 81.5t60.5 246.5v1818q0 328 -279 328v131q194 23 615 107v-1319q315 229 606 229q263 0 397.5 -152
t134.5 -413v-729q0 -165 57.5 -246.5t213.5 -81.5v-131z" />
    <glyph glyph-name="i" unicode="i" horiz-adv-x="1032" 
d="M672 1729v-1270q0 -167 57 -247.5t213 -80.5v-131h-885v131q151 0 211 81.5t60 246.5v704q0 158 -62 240t-209 88v123q205 33 615 115zM508 2015q-87 0 -154 60.5t-67 144.5t66 144.5t155 60.5q80 0 142.5 -62.5t62.5 -142.5q0 -85 -62.5 -145t-142.5 -60z" />
    <glyph glyph-name="j" unicode="j" horiz-adv-x="942" 
d="M672 1729v-2122q0 -205 -79 -372.5t-231 -266t-362 -98.5q-125 0 -255 64t-130 173q0 56 43.5 97.5t103.5 41.5q47 0 78 -25.5t76.5 -80t82 -81t91.5 -26.5q156 0 197 135t41 340v1655q0 158 -62 240t-209 88v123q205 33 615 115zM516 2015q-88 0 -154.5 58t-66.5 147
q0 84 66 144.5t155 60.5q81 0 143 -62t62 -143q0 -86 -62 -145.5t-143 -59.5z" />
    <glyph glyph-name="k" unicode="k" horiz-adv-x="2015" 
d="M999 1081l639 -737q138 -175 353 -213v-131h-779v131h74q90 0 90 57q-22 46 -57 58l-557 647l-90 -82v-352q0 -167 57 -247.5t213 -80.5v-131h-885v131q151 0 211 81.5t60 246.5v1818q0 328 -271 328v131q205 25 615 107v-1860l540 426q38 38 50 82q0 82 -132 82
q-3 0 -17 4t-23 4v123h712v-123q-224 -24 -409 -172z" />
    <glyph glyph-name="l" unicode="l" horiz-adv-x="1032" 
d="M942 0h-885v131q151 0 211 81.5t60 246.5v1818q0 328 -271 328v131q205 25 615 107v-2384q0 -167 57 -247.5t213 -80.5v-131z" />
    <glyph glyph-name="m" unicode="m" horiz-adv-x="3293" 
d="M623 1729q49 -98 49 -246q296 270 631 270q154 0 280 -70t178 -200q332 270 631 270q289 0 411 -149t122 -441v-704q0 -165 60.5 -246.5t217.5 -81.5v-131h-893v131q157 0 218 81.5t61 246.5v655q0 211 -71 318.5t-290 107.5q-115 0 -229 -54t-197 -143v-884
q0 -163 60 -245.5t211 -82.5v-131h-885v131q156 0 213 80.5t57 247.5v688q0 393 -352 393q-193 0 -434 -197v-884q0 -165 60.5 -246.5t217.5 -81.5v-131h-893v131q158 0 218.5 81.5t60.5 246.5v704q0 159 -63.5 240.5t-215.5 87.5v123q358 60 566 115z" />
    <glyph glyph-name="n" unicode="n" horiz-adv-x="2138" 
d="M614 1729q58 -116 58 -246q296 270 631 270q499 0 499 -557v-737q0 -167 57 -247.5t214 -80.5v-131h-885v131q151 0 210.5 81.5t59.5 246.5v688q0 393 -352 393q-208 0 -434 -197v-884q0 -167 57 -247.5t213 -80.5v-131h-885v131q151 0 211 81.5t60 246.5v704
q0 158 -62 240t-209 88v123q385 67 557 115z" />
    <glyph glyph-name="o" unicode="o" horiz-adv-x="2138" 
d="M1933 844q0 -258 -111.5 -462t-314 -317.5t-458.5 -113.5q-268 0 -468.5 106.5t-308.5 305.5t-108 464q0 274 107.5 484t310.5 326t475 116q276 0 474 -111.5t300 -316.5t102 -481zM1565 836q0 345 -104.5 569.5t-411.5 224.5q-517 0 -517 -819q0 -188 46.5 -354
t162 -274.5t308.5 -108.5q278 0 397 228t119 534z" />
    <glyph glyph-name="p" unicode="p" horiz-adv-x="2187" 
d="M672 147v-786q0 -197 75.5 -259t276.5 -77v-123h-967v131q151 0 211 81.5t60 246.5v1802q0 158 -62 240t-209 88v123q385 67 557 115q58 -86 58 -230q108 114 253.5 180t303.5 66q237 0 411.5 -119t266.5 -320.5t92 -437.5q0 -238 -93 -449t-274 -339.5t-428 -128.5
q-296 0 -532 196zM672 336q186 -201 434 -213q192 0 311 114t170 287t51 361q0 278 -112.5 487t-362.5 209q-284 0 -491 -336v-909z" />
    <glyph glyph-name="q" unicode="q" horiz-adv-x="2187" 
d="M1819 1729v-2368q0 -165 60.5 -246.5t217.5 -81.5v-131h-975v123q206 15 283.5 77t77.5 259v811q-235 -221 -541 -221q-237 0 -414 118.5t-270.5 319t-93.5 430.5q0 241 100.5 454t290 342.5t436.5 129.5q287 0 492 -180q168 60 336 164zM1483 1335q-195 238 -451 238
q-264 0 -382 -236t-118 -534q0 -167 49 -321.5t160 -252.5t283 -98q120 0 224 48t235 140v1016z" />
    <glyph glyph-name="r" unicode="r" horiz-adv-x="1417" 
d="M672 1294v-835q0 -189 55.5 -245.5t239.5 -90.5v-123h-910v131q151 0 211 81.5t60 246.5v704q0 158 -62 240t-209 88v123q385 67 557 115q58 -99 58 -304q227 295 483 295q98 0 172 -59.5t74 -153.5q0 -60 -42.5 -112t-105.5 -52q-40 0 -67.5 18.5t-64.5 58.5t-64.5 59.5
t-65.5 19.5q-96 0 -185 -60.5t-134 -144.5z" />
    <glyph glyph-name="s" unicode="s" horiz-adv-x="1458" 
d="M1196 1704v-565h-90q-41 188 -158.5 327.5t-300.5 139.5q-99 0 -168 -68t-69 -170q0 -119 88 -179.5t321.5 -172.5t350 -228.5t116.5 -312.5q0 -148 -64 -268.5t-179.5 -188t-264.5 -67.5q-249 0 -467 188l-73 -139h-99v590h99q25 -199 160 -337t331 -138q123 0 209 68.5
t86 185.5q0 133 -104 210.5t-322 185t-330 215t-112 290.5q0 218 123.5 350.5t334.5 132.5q228 0 410 -197l82 148h90z" />
    <glyph glyph-name="t" unicode="t" horiz-adv-x="1073" 
d="M1049 1712v-131h-451v-1057q0 -125 46.5 -226t150.5 -101q85 0 145.5 41.5t149.5 130.5l81 -66q-211 -319 -499 -319q-418 0 -418 540v1057h-197v90q135 23 226 126t133.5 244t42.5 277h139v-606h451z" />
    <glyph glyph-name="u" unicode="u" horiz-adv-x="2138" 
d="M1516 -25q-58 160 -58 254q-307 -278 -631 -278q-132 0 -245 51.5t-181.5 149.5t-72.5 233v909q0 166 -60 247t-211 81v131h615v-1188q0 -401 352 -401q215 0 434 205v925q0 166 -59.5 247t-210.5 81v131h614v-1294q0 -328 271 -328v-131q-292 0 -557 -25z" />
    <glyph glyph-name="v" unicode="v" horiz-adv-x="1925" 
d="M1925 1704v-123q-202 0 -254 -115l-672 -1466h-106l-680 1466q-52 115 -229 115v123h778v-123q-16 -8 -60.5 -13.5t-71 -17t-32.5 -43.5q0 -43 33 -123l418 -950l442 983q16 50 16 74q0 82 -139 82l-41 8v123h598z" />
    <glyph glyph-name="w" unicode="w" horiz-adv-x="2736" 
d="M1925 0h-139l-434 1229l-475 -1229h-140l-516 1417q-26 80 -73 105.5t-164 58.5v123h753v-123q-16 -8 -63 -13.5t-74 -16.5t-35 -44q0 -28 17 -90l327 -958l467 1245h140l442 -1245l377 958q24 75 24 82v8q0 30 -32.5 44.5t-78.5 20t-77 9.5v123h573v-123
q-201 -14 -254 -164z" />
    <glyph glyph-name="x" unicode="x" horiz-adv-x="2138" 
d="M2015 1704v-123q-214 0 -311 -106l-483 -533l532 -688q94 -123 320 -123v-131h-852v131h90q4 0 16 -4t16 -4q22 0 44 11.5t22 29.5q0 49 -41 90l-377 451l-418 -451q-49 -51 -49 -82q0 -41 115 -41h49v-131h-639v131q215 0 328 123l524 565l-500 623q-66 83 -129.5 111
t-173.5 28v123h803v-123h-41q-32 -4 -64 -8.5t-42 -24.5q0 -25 32 -73l336 -410l385 410q33 31 33 57q0 41 -115 41q-11 0 -40 4t-42 4v123h672z" />
    <glyph glyph-name="y" unicode="y" horiz-adv-x="1925" 
d="M1925 1704v-123l-41 -8q-90 -6 -142 -38.5t-95 -117.5l-869 -1909q-66 -152 -105.5 -235t-101.5 -176t-148 -156t-185 -63q-77 0 -137 40.5t-60 114.5q0 55 25 90q12 0 32 -4t33 -4q142 0 256 95t200.5 237t156.5 297t141 313l-639 1360q-77 152 -262 164v123h794v-123
q-180 0 -180 -90q0 -24 16 -74l443 -958l434 958q2 10 13.5 42.5t11.5 47.5v9q0 28 -26.5 41t-74.5 17.5t-55 6.5h-33v123h598z" />
    <glyph glyph-name="z" unicode="z" horiz-adv-x="1630" 
d="M1442 573h106l-32 -573h-1459v139l1049 1442h-590q-92 0 -144 -54.5t-106 -173t-69 -141.5h-115l57 500h1377v-131l-1049 -1442h565q156 0 243.5 116.5t166.5 317.5z" />
    <glyph glyph-name="braceleft" unicode="{" horiz-adv-x="2056" 
d="M426 1245v66q127 5 211.5 32.5t133 98.5t48.5 196q0 77 -4 239t-4 245q0 222 15 357.5t71.5 234.5t176 152t327.5 59h172q49 0 74 8v-99q-184 -5 -296 -40t-172.5 -130.5t-64.5 -279.5v-582q0 -223 -62 -347t-274 -169v-16q211 -39 273.5 -175.5t62.5 -373.5
q0 -94 -4 -288t-4 -294q0 -213 50 -328t165 -163.5t326 -48.5v-99h-66q-213 4 -338 17.5t-225.5 65.5t-157.5 170t-57 321q0 279 16 819q-6 196 -98.5 267.5t-294.5 84.5z" />
    <glyph glyph-name="bar" unicode="|" horiz-adv-x="2056" 
d="M901 2728h254v-3416h-254v3416z" />
    <glyph glyph-name="braceright" unicode="}" horiz-adv-x="2056" 
d="M1622 1311v-66q-194 -14 -289.5 -83.5t-95.5 -252.5q0 -138 4 -417t4 -418q0 -214 -61 -336t-189.5 -173.5t-339.5 -56.5q-41 0 -122 -4t-123 -4v99q182 0 293.5 37.5t169 136.5t61.5 284q0 122 4 370t4 376q0 404 328 467v16q-328 63 -328 402q0 327 -8 491
q0 258 -30.5 388.5t-141 196.5t-352.5 70v99q24 -8 73 -8q307 0 458 -36.5t227.5 -180.5t76.5 -463q0 -98 -4 -297t-4 -301q0 -188 92.5 -255.5t292.5 -80.5z" />
    <glyph glyph-name="asciitilde" unicode="~" horiz-adv-x="2056" 
d="M1868 1663l74 -41q-64 -107 -157 -198.5t-208 -147t-234 -55.5q-86 0 -171 20.5t-204.5 59.5t-210 61t-184.5 22q-120 0 -198 -52t-195 -169l-74 41q291 410 599 410q90 0 178 -22t209.5 -63t196.5 -60t161 -19q233 0 418 213z" />
    <glyph glyph-name="quotesinglbase" unicode="&#x201a;" 
 />
    <glyph glyph-name="florin" unicode="&#x192;" 
 />
    <glyph glyph-name="quotedblbase" unicode="&#x201e;" 
 />
    <glyph glyph-name="ellipsis" unicode="&#x2026;" 
 />
    <glyph glyph-name="dagger" unicode="&#x2020;" 
 />
    <glyph glyph-name="daggerdbl" unicode="&#x2021;" 
 />
    <glyph glyph-name="circumflex" unicode="&#x2c6;" horiz-adv-x="2056" 
d="M2154 1163h-172l-794 1229l-828 -1229h-466l1146 1704h25z" />
    <glyph glyph-name="perthousand" unicode="&#x2030;" 
 />
    <glyph glyph-name="Scaron" unicode="&#x160;" 
 />
    <glyph glyph-name="guilsinglleft" unicode="&#x2039;" horiz-adv-x="2056" 
d="M1876 2531v-172l-1229 -794l1229 -828v-467l-1704 1147v25z" />
    <glyph glyph-name="OE" unicode="&#x152;" 
 />
    <glyph glyph-name="Zcaron" unicode="&#x17d;" 
 />
    <glyph glyph-name="quoteleft" unicode="&#x2018;" horiz-adv-x="991" 
d="M729 2802v-74q-328 -230 -328 -483q0 -47 33 -148q20 0 61 4t62 4q91 0 152 -67t61 -162q0 -94 -66 -157.5t-163 -63.5q-161 0 -257 137t-96 305q0 157 71.5 302t195 251.5t274.5 151.5z" />
    <glyph glyph-name="quoteright" unicode="&#x2019;" horiz-adv-x="991" 
d="M229 1655v65q155 117 241.5 230t86.5 262q0 52 -33 147q-41 -8 -123 -8q-84 0 -148.5 67.5t-64.5 153.5q0 97 68.5 163.5t161.5 66.5q109 0 189 -66t121.5 -169t41.5 -208q0 -238 -155 -437t-386 -267z" />
    <glyph glyph-name="quotedblleft" unicode="&#x201c;" horiz-adv-x="1712" 
d="M729 2802v-74q-328 -230 -328 -483q0 -47 33 -148q20 0 61 4t62 4q91 0 152 -67t61 -162q0 -94 -66 -157.5t-163 -63.5q-161 0 -257 137t-96 305q0 157 71.5 302t195 251.5t274.5 151.5zM1425 2802v-74q-327 -231 -327 -483q0 -50 32 -148q20 0 61 4t62 4q91 0 152 -67
t61 -162q0 -94 -66 -157.5t-163 -63.5q-160 0 -256 137t-96 305q0 238 155.5 437.5t384.5 267.5z" />
    <glyph glyph-name="quotedblright" unicode="&#x201d;" horiz-adv-x="1712" 
d="M229 1655v65q155 117 241.5 230t86.5 262q0 52 -33 147q-41 -8 -123 -8q-84 0 -148.5 67.5t-64.5 153.5q0 97 68.5 163.5t161.5 66.5q109 0 189 -66t121.5 -169t41.5 -208q0 -238 -155 -437t-386 -267zM934 1655v65q152 121 235.5 232.5t83.5 259.5q0 49 -32 147
q-41 -8 -115 -8q-91 0 -156 67.5t-65 153.5q0 96 68 163t161 67q109 0 189 -66t121.5 -169t41.5 -208q0 -238 -151.5 -437t-380.5 -267z" />
    <glyph glyph-name="bullet" unicode="&#x2022;" horiz-adv-x="2482" 
d="M811 1171q0 108 53.5 199t144 143t195.5 52q107 0 200 -52t147.5 -142.5t54.5 -199.5q0 -105 -54.5 -195.5t-147.5 -144t-200 -53.5q-104 0 -195 53.5t-144.5 144.5t-53.5 195z" />
    <glyph glyph-name="emdash" unicode="&#x2013;" horiz-adv-x="1925" 
d="M1868 991v-205h-1819v205h1819z" />
    <glyph glyph-name="endash" unicode="&#x2014;" horiz-adv-x="2613" 
d="M2597 991v-205h-2597v205h2597z" />
    <glyph glyph-name="tilde" unicode="&#x2dc;" horiz-adv-x="2056" 
d="M1868 1663l74 -41q-64 -107 -157 -198.5t-208 -147t-234 -55.5q-86 0 -171 20.5t-204.5 59.5t-210 61t-184.5 22q-120 0 -198 -52t-195 -169l-74 41q291 410 599 410q90 0 178 -22t209.5 -63t196.5 -60t161 -19q233 0 418 213z" />
    <glyph glyph-name="trademark" unicode="&#x2122;" 
 />
    <glyph glyph-name="scaron" unicode="&#x161;" 
 />
    <glyph glyph-name="guilsinglright" unicode="&#x203a;" horiz-adv-x="2056" 
d="M172 270v181l1229 794l-1229 819v467l1704 -1147v-24z" />
    <glyph glyph-name="oe" unicode="&#x153;" 
 />
    <glyph glyph-name="zcaron" unicode="&#x17e;" 
 />
    <glyph glyph-name="Ydieresis" unicode="&#x178;" horiz-adv-x="1974" 
d="M893 852q-7 0 -36 -4t-38 -4q-131 0 -247.5 59.5t-184.5 160.5t-68 222q0 180 197 320q184 106 557 106h828v-131q-155 0 -209 -82t-54 -254v-778q0 -165 57.5 -246.5t213.5 -81.5v-131h-885v131q151 0 210.5 81.5t59.5 246.5v328q-229 0 -303 -50q-84 -66 -124.5 -167
t-93.5 -247t-118 -225q-102 -122 -295 -139h-65q-71 0 -156 33q-59 30 -139 115l57 114q49 -73 99 -73q18 0 90 49q28 23 72 86t59 78q23 27 71 104.5t97 138.5t136 126t212 114zM1294 926v655q-277 0 -441.5 -48.5t-164.5 -213.5q0 -13 -4 -46t-4 -44q0 -303 393 -303h221z
" />
    <glyph glyph-name="nonbreakingspace" unicode="&#xa0;" horiz-adv-x="2056" 
 />
    <glyph glyph-name="exclamdown" unicode="&#xa1;" horiz-adv-x="2998" 
d="M1499 319q4 0 -90 -147q-51 -56 -106 -97.5t-82 -58.5q-85 -41 -213 -41q-127 0 -213 58q-24 12 -69.5 80t-45.5 141q0 74 57 147q49 74 148 74q32 0 98 -16q-5 0 54 -45t118 -45q11 0 35.5 -4.5t38.5 -4.5q58 0 106 50q32 38 87 128t61 109l-1114 1688q-53 64 -97.5 117
t-81.5 85t-86.5 50t-119.5 18v131h1130v-131h-90q-238 0 -238 -123q0 -46 33 -147l869 -1344l655 1344q33 85 33 123q0 91 -74 119t-188 28h-82v131h942v-131h-33q-289 -33 -410 -270zM1614 3244q123 0 241.5 35.5t118.5 120.5q-24 123 -24 164q0 78 57.5 138t138.5 66h17
q52 0 107 -23.5t81 -49.5q57 -67 57 -181q-4 -171 -145 -266t-322.5 -127.5t-334.5 -32.5q-151 0 -329.5 32.5t-316 127.5t-141.5 266q0 114 58 181q73 73 180 73h24q82 -6 139.5 -65.5t57.5 -138.5q0 -50 -25 -164q0 -85 118.5 -120.5t242.5 -35.5z" />
    <glyph glyph-name="exclamdown" unicode="&#x40e;" horiz-adv-x="2998" 
d="M1499 319q4 0 -90 -147q-51 -56 -106 -97.5t-82 -58.5q-85 -41 -213 -41q-127 0 -213 58q-24 12 -69.5 80t-45.5 141q0 74 57 147q49 74 148 74q32 0 98 -16q-5 0 54 -45t118 -45q11 0 35.5 -4.5t38.5 -4.5q58 0 106 50q32 38 87 128t61 109l-1114 1688q-53 64 -97.5 117
t-81.5 85t-86.5 50t-119.5 18v131h1130v-131h-90q-238 0 -238 -123q0 -46 33 -147l869 -1344l655 1344q33 85 33 123q0 91 -74 119t-188 28h-82v131h942v-131h-33q-289 -33 -410 -270zM1614 3244q123 0 241.5 35.5t118.5 120.5q-24 123 -24 164q0 78 57.5 138t138.5 66h17
q52 0 107 -23.5t81 -49.5q57 -67 57 -181q-4 -171 -145 -266t-322.5 -127.5t-334.5 -32.5q-151 0 -329.5 32.5t-316 127.5t-141.5 266q0 114 58 181q73 73 180 73h24q82 -6 139.5 -65.5t57.5 -138.5q0 -50 -25 -164q0 -85 118.5 -120.5t242.5 -35.5z" />
    <glyph glyph-name="cent" unicode="&#xa2;" horiz-adv-x="1925" 
d="M385 -1081q-20 -10 -65 -25.5t-91 -15.5q-7 0 -28 4t-29 4q-71 21 -108.5 51.5t-47.5 46.5q-16 66 -16 98q0 57 25 92.5t41 47.5q66 33 98 33q42 0 75.5 -18.5t47.5 -31.5h24q24 0 123 33q93 89 173 229t173.5 354.5t104.5 235.5l-639 1360q-77 152 -262 164v123h794
v-123q-180 0 -180 -90q0 -24 16 -74l443 -958l434 958q8 28 13 45t8.5 30t3.5 24q0 28 -26.5 41t-74.5 17.5t-55 6.5h-33v123h598v-123l-41 -8q-90 -6 -142 -38.5t-95 -117.5l-869 -1909q-20 -45 -66.5 -148.5t-93 -184.5t-104 -149t-129.5 -107zM1049 2294q96 0 191 35.5
t95 111.5q-24 75 -24 131q0 61 52 121t112 60l8 -9q101 0 148.5 -56t47.5 -124v-24q-15 -149 -126.5 -233.5t-247.5 -114t-256 -29.5t-258.5 29.5t-252 114t-128.5 233.5v24q0 71 45 130t143 59h16q60 0 112 -59t52 -122q0 -56 -24 -131q0 -76 99 -111.5t196 -35.5z" />
    <glyph glyph-name="cent" unicode="&#x45e;" horiz-adv-x="1925" 
d="M385 -1081q-20 -10 -65 -25.5t-91 -15.5q-7 0 -28 4t-29 4q-71 21 -108.5 51.5t-47.5 46.5q-16 66 -16 98q0 57 25 92.5t41 47.5q66 33 98 33q42 0 75.5 -18.5t47.5 -31.5h24q24 0 123 33q93 89 173 229t173.5 354.5t104.5 235.5l-639 1360q-77 152 -262 164v123h794
v-123q-180 0 -180 -90q0 -24 16 -74l443 -958l434 958q8 28 13 45t8.5 30t3.5 24q0 28 -26.5 41t-74.5 17.5t-55 6.5h-33v123h598v-123l-41 -8q-90 -6 -142 -38.5t-95 -117.5l-869 -1909q-20 -45 -66.5 -148.5t-93 -184.5t-104 -149t-129.5 -107zM1049 2294q96 0 191 35.5
t95 111.5q-24 75 -24 131q0 61 52 121t112 60l8 -9q101 0 148.5 -56t47.5 -124v-24q-15 -149 -126.5 -233.5t-247.5 -114t-256 -29.5t-258.5 29.5t-252 114t-128.5 233.5v24q0 71 45 130t143 59h16q60 0 112 -59t52 -122q0 -56 -24 -131q0 -76 99 -111.5t196 -35.5z" />
    <glyph glyph-name="sterling" unicode="&#xa3;" horiz-adv-x="1327" 
d="M25 2605v131h1228v-131q-205 0 -319 -57q-58 -31 -74 -98.5t-16 -172.5v-2252q0 -242 -33 -417t-139 -321q-90 -122 -218 -210.5t-278.5 -135.5t-306.5 -47q-230 0 -438.5 84t-208.5 285q0 84 67 148.5t154 64.5q79 0 133.5 -57.5t54.5 -139.5q0 -25 -11.5 -68t-12.5 -47
q0 -86 65.5 -108.5t180.5 -22.5q581 0 581 713v2531q0 145 -47 214t-126.5 88.5t-235.5 25.5z" />
    <glyph glyph-name="sterling" unicode="&#x408;" horiz-adv-x="1327" 
d="M25 2605v131h1228v-131q-205 0 -319 -57q-58 -31 -74 -98.5t-16 -172.5v-2252q0 -242 -33 -417t-139 -321q-90 -122 -218 -210.5t-278.5 -135.5t-306.5 -47q-230 0 -438.5 84t-208.5 285q0 84 67 148.5t154 64.5q79 0 133.5 -57.5t54.5 -139.5q0 -25 -11.5 -68t-12.5 -47
q0 -86 65.5 -108.5t180.5 -22.5q581 0 581 713v2531q0 145 -47 214t-126.5 88.5t-235.5 25.5z" />
    <glyph glyph-name="currency" unicode="&#xa4;" horiz-adv-x="2736" 
d="M238 410l376 376q-204 329 -204 623q0 258 196 606l-377 377l140 139l376 -385q275 213 623 213q288 0 614 -213l385 385l140 -131l-393 -393q101 -162 152.5 -304t51.5 -310q0 -268 -204 -590l385 -393l-132 -140l-385 394q-326 -213 -614 -213q-307 0 -606 204
l-385 -385zM2040 1401q0 182 -90.5 338.5t-245 249t-336.5 92.5t-338 -93t-249 -249.5t-93 -337.5q0 -182 92.5 -336.5t248.5 -245t339 -90.5t337 90.5t244.5 244.5t90.5 337z" />
    <glyph glyph-name="yen" unicode="&#xa5;" horiz-adv-x="2138" 
d="M868 459q0 -150 45.5 -218.5t123 -86t241.5 -23.5v-131h-1221v131q168 6 245 23.5t121 85.5t44 219v1818q0 150 -45.5 218.5t-123 86t-241.5 23.5v131h1393q236 0 356.5 136t192.5 388h123l-74 -663h-1180v-2138z" />
    <glyph glyph-name="yen" unicode="&#x490;" horiz-adv-x="2138" 
d="M868 459q0 -150 45.5 -218.5t123 -86t241.5 -23.5v-131h-1221v131q168 6 245 23.5t121 85.5t44 219v1818q0 150 -45.5 218.5t-123 86t-241.5 23.5v131h1393q236 0 356.5 136t192.5 388h123l-74 -663h-1180v-2138z" />
    <glyph glyph-name="brokenbar" unicode="&#xa6;" horiz-adv-x="2056" 
d="M901 2728h254v-1385h-254v1385zM901 631h254v-1319h-254v1319z" />
    <glyph glyph-name="section" unicode="&#xa7;" horiz-adv-x="2310" 
d="M1606 532q245 -245 245 -475q0 -182 -97.5 -335t-259 -240.5t-339.5 -87.5q-160 0 -315.5 71t-256 201t-100.5 293q0 60 31.5 100.5t91.5 46.5q72 0 99 -45t90.5 -185t145.5 -208.5t230 -68.5q154 0 269.5 99t115.5 253q0 142 -123 244.5t-402 279.5t-421.5 334.5
t-142.5 378.5q0 295 303 598q-246 230 -246 450q0 169 93 298t244 198.5t319 69.5q115 0 254.5 -57.5t237 -158t97.5 -219.5l-122 -163q-71 0 -147.5 142.5t-130.5 208.5t-198 66q-134 0 -247 -79t-113 -207q0 -139 114.5 -239.5t390 -282.5t414 -334.5t138.5 -356.5
q0 -264 -262 -590zM877 1688q-140 -187 -140 -336q0 -112 79 -216t193 -189.5t277 -186.5t213 -137q98 228 98 335q0 113 -74 217.5t-179 187t-256 180.5t-211 145z" />
    <glyph glyph-name="dieresis" unicode="&#xa8;" horiz-adv-x="2400" 
d="M2073 2736l73 -672h-123q-60 251 -186.5 392t-361.5 141h-598v-1073h262q363 0 377 377h131v-926h-131q-27 223 -94.5 312t-282.5 89h-262v-876q0 -203 111 -282t323 -79q310 0 493 60.5t310 275.5q113 228 122 369h123l-57 -844h-2245v131q168 6 245 23.5t121 85.5
t44 219v1818q0 151 -44 219t-121 85.5t-245 23.5v131h2016zM582 3154q0 103 70.5 174.5t174.5 71.5q99 0 172.5 -71.5t73.5 -174.5q0 -98 -74 -172t-172 -74q-103 0 -174 73.5t-71 172.5zM1327 3154q0 103 73.5 174.5t172.5 71.5q104 0 175 -71t71 -175q0 -99 -71.5 -172.5
t-174.5 -73.5q-98 0 -172 74t-74 172z" />
    <glyph glyph-name="dieresis" unicode="&#x401;" horiz-adv-x="2400" 
d="M2073 2736l73 -672h-123q-60 251 -186.5 392t-361.5 141h-598v-1073h262q363 0 377 377h131v-926h-131q-27 223 -94.5 312t-282.5 89h-262v-876q0 -203 111 -282t323 -79q310 0 493 60.5t310 275.5q113 228 122 369h123l-57 -844h-2245v131q168 6 245 23.5t121 85.5
t44 219v1818q0 151 -44 219t-121 85.5t-245 23.5v131h2016zM582 3154q0 103 70.5 174.5t174.5 71.5q99 0 172.5 -71.5t73.5 -174.5q0 -98 -74 -172t-172 -74q-103 0 -174 73.5t-71 172.5zM1327 3154q0 103 73.5 174.5t172.5 71.5q104 0 175 -71t71 -175q0 -99 -71.5 -172.5
t-174.5 -73.5q-98 0 -172 74t-74 172z" />
    <glyph glyph-name="copyright" unicode="&#xa9;" horiz-adv-x="3342" 
d="M2253 2146v-475h-74q-43 163 -164.5 266t-285.5 103q-174 0 -288.5 -95t-167 -246t-52.5 -323q0 -287 118 -475t390 -188q310 0 548 344v-156q-112 -144 -267 -223.5t-331 -79.5q-213 0 -390.5 93t-278.5 263t-101 389q0 224 98.5 405.5t275.5 285.5t396 104
q59 0 115.5 -13.5t105.5 -31.5t104.5 -35.5t92.5 -17.5q23 0 38 16t25.5 40t18.5 42zM1647 -57q-382 0 -708.5 193t-518 521.5t-191.5 710.5q0 381 191.5 707.5t517.5 518t709 191.5q380 0 707 -189.5t518.5 -515.5t191.5 -712q0 -382 -192 -710.5t-518 -521.5t-707 -193z
M1647 90q346 0 642.5 172.5t470 466.5t173.5 639t-174 642t-471 470.5t-641 173.5q-346 0 -640 -173.5t-466 -470.5t-172 -642t171.5 -639t465.5 -466.5t641 -172.5z" />
    <glyph glyph-name="ordfeminine" unicode="&#xaa;" horiz-adv-x="2867" 
d="M680 1343q50 -16 82 -16q145 0 385 148q51 30 130.5 78t146.5 80t142 51.5t154 19.5q191 -4 351.5 -83t272 -204t163.5 -270l-66 -74q-71 154 -212.5 247t-295.5 105h-49q-93 0 -162.5 -28.5t-217 -101t-226.5 -91.5q-136 -33 -246 -33q-156 0 -344 58
q47 -469 302 -779.5t706 -310.5q307 0 590.5 191.5t400.5 480.5l147 -115q-104 -234 -298.5 -407t-443 -264t-503.5 -91q-300 0 -555.5 105t-439 295t-282.5 449.5t-99 559.5q0 296 99 562t284 470.5t442.5 319.5t558.5 115q481 0 885 -279q35 57 90 205h115l41 -983h-131
q-65 268 -188.5 471.5t-321.5 320.5t-473 117q-319 0 -529.5 -199.5t-307.5 -503.5t-97 -616z" />
    <glyph glyph-name="ordfeminine" unicode="&#x404;" horiz-adv-x="2867" 
d="M680 1343q50 -16 82 -16q145 0 385 148q51 30 130.5 78t146.5 80t142 51.5t154 19.5q191 -4 351.5 -83t272 -204t163.5 -270l-66 -74q-71 154 -212.5 247t-295.5 105h-49q-93 0 -162.5 -28.5t-217 -101t-226.5 -91.5q-136 -33 -246 -33q-156 0 -344 58
q47 -469 302 -779.5t706 -310.5q307 0 590.5 191.5t400.5 480.5l147 -115q-104 -234 -298.5 -407t-443 -264t-503.5 -91q-300 0 -555.5 105t-439 295t-282.5 449.5t-99 559.5q0 296 99 562t284 470.5t442.5 319.5t558.5 115q481 0 885 -279q35 57 90 205h115l41 -983h-131
q-65 268 -188.5 471.5t-321.5 320.5t-473 117q-319 0 -529.5 -199.5t-307.5 -503.5t-97 -616z" />
    <glyph glyph-name="guillemotleft" unicode="&#xab;" horiz-adv-x="1802" 
d="M1180 893l385 -492q49 -65 49 -106v-8q0 -25 -20 -41.5t-46 -16.5q-29 0 -55.5 15.5t-64 47.5t-44.5 36l-524 491q-49 35 -49 74q0 32 49 65l524 492q112 92 156 98q74 0 74 -49q0 -48 -49 -115zM524 893l394 -492q40 -53 40 -106v-8q0 -24 -19.5 -41t-45.5 -17
q-30 0 -56.5 15.5t-59.5 44t-48 39.5l-524 491q-49 33 -49 74q0 34 49 65l524 492q109 92 156 98q73 0 73 -49q0 -60 -40 -115z" />
    <glyph glyph-name="logicalnot" unicode="&#xac;" horiz-adv-x="2056" 
d="M1475 0v901h-1328v197h1762v-1098h-434z" />
    <glyph glyph-name="registered" unicode="&#xae;" horiz-adv-x="3342" 
d="M2122 623l-410 712h-270v-483q0 -82 26 -119t105 -37h74v-73h-672v73q109 0 152.5 29.5t43.5 126.5v1032q0 85 -28.5 120.5t-110.5 35.5h-74v74h697q250 0 424 -88.5t174 -321.5q0 -137 -71.5 -222t-207.5 -147l312 -532q59 -107 188 -107v-73h-352zM1442 1401h213
q161 0 244 69t83 234q0 154 -89.5 236.5t-237.5 82.5h-213v-622zM1647 -57q-382 0 -708.5 193t-518 521.5t-191.5 710.5q0 381 191.5 707.5t517.5 518t709 191.5q380 0 707 -189.5t518.5 -515.5t191.5 -712q0 -382 -192 -710.5t-518 -521.5t-707 -193zM1647 90
q346 0 642.5 172.5t470 466.5t173.5 639t-174 642t-471 470.5t-641 173.5q-346 0 -640 -173.5t-466 -470.5t-172 -642t171.5 -639t465.5 -466.5t641 -172.5z" />
    <glyph glyph-name="macron" unicode="&#xaf;" horiz-adv-x="1368" 
d="M1286 0h-1229v131q168 6 245 23.5t121 85.5t44 219v1818q0 151 -44 219t-121 85.5t-245 23.5v131h1229v-131q-206 0 -311 -57q-64 -31 -81 -98.5t-17 -172.5v-1818q0 -150 45 -218.5t122.5 -86t241.5 -23.5v-131zM49 3154q0 103 73.5 174.5t172.5 71.5q104 0 175 -71
t71 -175q0 -99 -71.5 -172.5t-174.5 -73.5q-98 0 -172 74t-74 172zM803 3154q0 103 73.5 174.5t172.5 71.5t172 -71t73 -175q0 -99 -73.5 -172.5t-171.5 -73.5t-172 74t-74 172z" />
    <glyph glyph-name="macron" unicode="&#x407;" horiz-adv-x="1368" 
d="M1286 0h-1229v131q168 6 245 23.5t121 85.5t44 219v1818q0 151 -44 219t-121 85.5t-245 23.5v131h1229v-131q-206 0 -311 -57q-64 -31 -81 -98.5t-17 -172.5v-1818q0 -150 45 -218.5t122.5 -86t241.5 -23.5v-131zM49 3154q0 103 73.5 174.5t172.5 71.5q104 0 175 -71
t71 -175q0 -99 -71.5 -172.5t-174.5 -73.5q-98 0 -172 74t-74 172zM803 3154q0 103 73.5 174.5t172.5 71.5t172 -71t73 -175q0 -99 -73.5 -172.5t-171.5 -73.5t-172 74t-74 172z" />
    <glyph glyph-name="degree" unicode="&#xb0;" horiz-adv-x="1753" 
d="M836 2613q113 0 215 -48t164.5 -138t62.5 -207q0 -99 -54.5 -182.5t-143.5 -130.5t-187 -47q-100 0 -189.5 49t-142.5 134t-53 185q0 145 92 256t236 129zM606 2228q6 -115 91.5 -192.5t203.5 -77.5q110 0 190 83t80 195q0 76 -40 138t-107 97.5t-139 35.5
q-118 0 -198.5 -78.5t-80.5 -200.5z" />
    <glyph glyph-name="plusminus" unicode="&#xb1;" horiz-adv-x="2056" 
d="M82 1556h836v795h212v-795h836v-204h-836v-779h-212v779h-836v204zM82 393h1884v-196h-1884v196z" />
    <glyph glyph-name="twosuperior" unicode="&#xb2;" horiz-adv-x="1368" 
d="M1286 0h-1229v131q168 6 245 23.5t121 85.5t44 219v1818q0 151 -44 219t-121 85.5t-245 23.5v131h1229v-131q-206 0 -311 -57q-64 -31 -81 -98.5t-17 -172.5v-1818q0 -150 45 -218.5t122.5 -86t241.5 -23.5v-131z" />
    <glyph glyph-name="twosuperior" unicode="&#x406;" horiz-adv-x="1368" 
d="M1286 0h-1229v131q168 6 245 23.5t121 85.5t44 219v1818q0 151 -44 219t-121 85.5t-245 23.5v131h1229v-131q-206 0 -311 -57q-64 -31 -81 -98.5t-17 -172.5v-1818q0 -150 45 -218.5t122.5 -86t241.5 -23.5v-131z" />
    <glyph glyph-name="threesuperior" unicode="&#xb3;" horiz-adv-x="1286" 
d="M672 1729v-1270q0 -167 57 -247.5t213 -80.5v-131h-885v131q151 0 211 81.5t60 246.5v704q0 158 -62 240t-209 88v123q205 33 615 115zM508 2015q-87 0 -154 60.5t-67 144.5t66 144.5t155 60.5q80 0 142.5 -62.5t62.5 -142.5q0 -85 -62.5 -145t-142.5 -60z" />
    <glyph glyph-name="threesuperior" unicode="&#x456;" horiz-adv-x="1286" 
d="M672 1729v-1270q0 -167 57 -247.5t213 -80.5v-131h-885v131q151 0 211 81.5t60 246.5v704q0 158 -62 240t-209 88v123q205 33 615 115zM508 2015q-87 0 -154 60.5t-67 144.5t66 144.5t155 60.5q80 0 142.5 -62.5t62.5 -142.5q0 -85 -62.5 -145t-142.5 -60z" />
    <glyph glyph-name="acute" unicode="&#xb4;" horiz-adv-x="1540" 
d="M672 1573v-1114q0 -167 57 -247.5t213 -80.5v-131h-885v131q151 0 211 81.5t60 246.5v778q0 166 -63.5 251t-215.5 85v131h934q145 0 224.5 40.5t120.5 114t89 214.5h123l-33 -500h-835z" />
    <glyph glyph-name="acute" unicode="&#x491;" horiz-adv-x="1540" 
d="M672 1573v-1114q0 -167 57 -247.5t213 -80.5v-131h-885v131q151 0 211 81.5t60 246.5v778q0 166 -63.5 251t-215.5 85v131h934q145 0 224.5 40.5t120.5 114t89 214.5h123l-33 -500h-835z" />
    <glyph glyph-name="mu" unicode="&#xb5;" horiz-adv-x="2269" 
d="M1909 1876v-1434q0 -118 28 -194t119 -76q26 0 131 41v-66l-368 -188q-9 -8 -33 -8q-101 0 -135.5 89.5t-61.5 246.5q-147 -139 -213.5 -196t-169 -107t-215.5 -50q-338 0 -459 361q0 -129 13 -252t43 -333.5t35 -250.5q0 -101 -43 -173t-138 -72q-79 0 -125.5 67
t-46.5 154q0 76 33 229q115 677 115 1450v762h344v-1180q0 -557 344 -557q245 0 459 312v1425h344z" />
    <glyph glyph-name="paragraph" unicode="&#xb6;" horiz-adv-x="2359" 
d="M2171 2736v-106h-74q-119 0 -169.5 -23t-63.5 -75.5t-13 -172.5v-2465q0 -113 43 -138.5t170 -25.5h82v-107h-499v2998h-361v-2998h-549v107h90q117 0 167.5 21t66 71t20.5 170v1442h-180q-206 0 -365.5 77.5t-249 228.5t-89.5 357q0 164 73.5 310t204.5 223
q169 106 500 106h1196zM1081 2630q-237 0 -360 -44t-176 -167.5t-53 -370.5q0 -207 113 -349.5t313 -142.5h163v1074z" />
    <glyph glyph-name="periodcentered" unicode="&#xb7;" horiz-adv-x="1032" 
d="M672 1237v-778q0 -167 57 -247.5t213 -80.5v-131h-885v131q151 0 211 81.5t60 246.5v778q0 166 -63.5 251t-215.5 85v131h885v-131q-154 0 -208 -82t-54 -254z" />
    <glyph glyph-name="cedilla" unicode="&#xb8;" horiz-adv-x="1884" 
d="M1704 918h-1163q0 -803 524 -803q307 0 524 311l115 -66q-256 -409 -705 -409q-248 0 -437.5 115t-293.5 318t-104 452q0 245 99.5 455.5t287.5 336t440 125.5q168 0 301.5 -68t226 -187t139 -269t46.5 -311zM1343 1057v41q0 499 -376 499q-210 0 -314.5 -158.5
t-111.5 -381.5h802zM311 2187q0 98 74 172t172 74q103 0 174.5 -73.5t71.5 -172.5q0 -104 -71.5 -174.5t-174.5 -70.5q-99 0 -172.5 71t-73.5 174zM1065 2187q0 98 74 172t172 74t171.5 -73.5t73.5 -172.5q0 -104 -73 -174.5t-172 -70.5t-172.5 71t-73.5 174z" />
    <glyph glyph-name="cedilla" unicode="&#x451;" horiz-adv-x="1884" 
d="M1704 918h-1163q0 -803 524 -803q307 0 524 311l115 -66q-256 -409 -705 -409q-248 0 -437.5 115t-293.5 318t-104 452q0 245 99.5 455.5t287.5 336t440 125.5q168 0 301.5 -68t226 -187t139 -269t46.5 -311zM1343 1057v41q0 499 -376 499q-210 0 -314.5 -158.5
t-111.5 -381.5h802zM311 2187q0 98 74 172t172 74q103 0 174.5 -73.5t71.5 -172.5q0 -104 -71.5 -174.5t-174.5 -70.5q-99 0 -172.5 71t-73.5 174zM1065 2187q0 98 74 172t172 74t171.5 -73.5t73.5 -172.5q0 -104 -73 -174.5t-172 -70.5t-172.5 71t-73.5 174z" />
    <glyph glyph-name="onesuperior" unicode="&#xb9;" horiz-adv-x="4366" 
d="M868 2736l1336 -1851q45 -57 155 -279q0 51 -4 143t-4 136v1310q0 152 -26.5 229t-71 103.5t-134 43t-145.5 34.5v131h942v-131q-211 0 -302 -96.5t-91 -313.5v-2220h-172l-1458 2032q-101 135 -262 410v-1737q0 -197 22 -303.5t109 -170.5t270 -75v-131h-975v131
q225 6 317.5 107t92.5 335v1704q0 150 -45.5 218.5t-123 86t-241.5 23.5v131h811zM3482 1516q156 0 277.5 -74t188 -203t66.5 -289q0 -248 -144 -414.5t-388 -166.5t-388.5 167.5t-144.5 421.5q0 153 67 280.5t188.5 202.5t277.5 75zM3482 1442q-312 0 -312 -492
q0 -499 312 -499q311 0 311 499q0 492 -311 492zM4063 123v-123h-1163v123h1163z" />
    <glyph glyph-name="onesuperior" unicode="&#x2116;" horiz-adv-x="4366" 
d="M868 2736l1336 -1851q45 -57 155 -279q0 51 -4 143t-4 136v1310q0 152 -26.5 229t-71 103.5t-134 43t-145.5 34.5v131h942v-131q-211 0 -302 -96.5t-91 -313.5v-2220h-172l-1458 2032q-101 135 -262 410v-1737q0 -197 22 -303.5t109 -170.5t270 -75v-131h-975v131
q225 6 317.5 107t92.5 335v1704q0 150 -45.5 218.5t-123 86t-241.5 23.5v131h811zM3482 1516q156 0 277.5 -74t188 -203t66.5 -289q0 -248 -144 -414.5t-388 -166.5t-388.5 167.5t-144.5 421.5q0 153 67 280.5t188.5 202.5t277.5 75zM3482 1442q-312 0 -312 -492
q0 -499 312 -499q311 0 311 499q0 492 -311 492zM4063 123v-123h-1163v123h1163z" />
    <glyph glyph-name="ordmasculine" unicode="&#xba;" horiz-adv-x="1884" 
d="M582 967q36 -49 123 -49q16 0 51 8t47 8q42 11 171.5 67t221.5 56q108 0 211 -82.5t166 -188.5l-57 -57q-88 131 -156 131h-17q-94 -21 -198 -68t-146 -55q-11 0 -44 -8t-46 -8q-92 0 -183.5 35.5t-143.5 87.5q8 -170 70.5 -329t182.5 -259t287 -100q307 0 467 319
l123 -41q-78 -212 -243 -325t-396 -125q-249 0 -451.5 104t-318 295t-115.5 444q0 262 102 478.5t298.5 344.5t460.5 128q150 0 270 -49q30 -8 73 -45t50 -37q0 10 22.5 52t26.5 54h156l57 -606h-139q-86 340 -336 459q-25 8 -79 20t-110 12q-244 0 -351 -201.5t-107 -469.5
z" />
    <glyph glyph-name="ordmasculine" unicode="&#x454;" horiz-adv-x="1884" 
d="M582 967q36 -49 123 -49q16 0 51 8t47 8q42 11 171.5 67t221.5 56q108 0 211 -82.5t166 -188.5l-57 -57q-88 131 -156 131h-17q-94 -21 -198 -68t-146 -55q-11 0 -44 -8t-46 -8q-92 0 -183.5 35.5t-143.5 87.5q8 -170 70.5 -329t182.5 -259t287 -100q307 0 467 319
l123 -41q-78 -212 -243 -325t-396 -125q-249 0 -451.5 104t-318 295t-115.5 444q0 262 102 478.5t298.5 344.5t460.5 128q150 0 270 -49q30 -8 73 -45t50 -37q0 10 22.5 52t26.5 54h156l57 -606h-139q-86 340 -336 459q-25 8 -79 20t-110 12q-244 0 -351 -201.5t-107 -469.5
z" />
    <glyph glyph-name="guillemotright" unicode="&#xbb;" horiz-adv-x="1802" 
d="M598 893l-385 491q-49 65 -49 99q0 65 65 65q66 0 164 -98l533 -492q41 -41 41 -65q0 -30 -41 -74l-533 -491q-25 -22 -49 -45t-50.5 -38.5t-55.5 -15.5q-74 0 -74 58q0 57 49 106zM1253 893l-385 491q-49 67 -49 99q0 65 66 65t164 -98l532 -492q41 -41 41 -65
q0 -30 -41 -74l-532 -491q-23 -20 -49 -43.5t-53 -39.5t-54 -16q-74 0 -74 66q0 49 49 98z" />
    <glyph glyph-name="onequarter" unicode="&#xbc;" horiz-adv-x="942" 
d="M672 1729v-2122q0 -205 -79 -372.5t-231 -266t-362 -98.5q-125 0 -255 64t-130 173q0 56 43.5 97.5t103.5 41.5q47 0 78 -25.5t76.5 -80t82 -81t91.5 -26.5q156 0 197 135t41 340v1655q0 158 -62 240t-209 88v123q205 33 615 115zM516 2015q-88 0 -154.5 58t-66.5 147
q0 84 66 144.5t155 60.5q81 0 143 -62t62 -143q0 -86 -62 -145.5t-143 -59.5z" />
    <glyph glyph-name="onequarter" unicode="&#x458;" horiz-adv-x="942" 
d="M672 1729v-2122q0 -205 -79 -372.5t-231 -266t-362 -98.5q-125 0 -255 64t-130 173q0 56 43.5 97.5t103.5 41.5q47 0 78 -25.5t76.5 -80t82 -81t91.5 -26.5q156 0 197 135t41 340v1655q0 158 -62 240t-209 88v123q205 33 615 115zM516 2015q-88 0 -154.5 58t-66.5 147
q0 84 66 144.5t155 60.5q81 0 143 -62t62 -143q0 -86 -62 -145.5t-143 -59.5z" />
    <glyph glyph-name="onehalf" unicode="&#xbd;" horiz-adv-x="2097" 
d="M1778 2761v-738h-123q-47 286 -216.5 471t-447.5 185q-117 0 -222.5 -47.5t-171 -135t-65.5 -202.5q0 -218 156.5 -333.5t522 -296t552.5 -369t187 -509.5q0 -237 -103 -434t-289.5 -311.5t-427.5 -114.5q-386 0 -745 303q-69 -124 -90 -229h-131v860h131
q24 -187 128.5 -363t269.5 -283.5t356 -107.5q162 0 298 55t218 168.5t82 276.5q0 247 -174 386t-531 310t-539 339t-182 464q0 206 103.5 365.5t278.5 245.5t380 86q377 0 606 -205q44 52 90 164h99z" />
    <glyph glyph-name="onehalf" unicode="&#x405;" horiz-adv-x="2097" 
d="M1778 2761v-738h-123q-47 286 -216.5 471t-447.5 185q-117 0 -222.5 -47.5t-171 -135t-65.5 -202.5q0 -218 156.5 -333.5t522 -296t552.5 -369t187 -509.5q0 -237 -103 -434t-289.5 -311.5t-427.5 -114.5q-386 0 -745 303q-69 -124 -90 -229h-131v860h131
q24 -187 128.5 -363t269.5 -283.5t356 -107.5q162 0 298 55t218 168.5t82 276.5q0 247 -174 386t-531 310t-539 339t-182 464q0 206 103.5 365.5t278.5 245.5t380 86q377 0 606 -205q44 52 90 164h99z" />
    <glyph glyph-name="threequarters" unicode="&#xbe;" horiz-adv-x="1458" 
d="M1196 1704v-565h-90q-41 188 -158.5 327.5t-300.5 139.5q-99 0 -168 -68t-69 -170q0 -119 88 -179.5t321.5 -172.5t350 -228.5t116.5 -312.5q0 -148 -64 -268.5t-179.5 -188t-264.5 -67.5q-249 0 -467 188l-73 -139h-99v590h99q25 -199 160 -337t331 -138q123 0 209 68.5
t86 185.5q0 133 -104 210.5t-322 185t-330 215t-112 290.5q0 218 123.5 350.5t334.5 132.5q228 0 410 -197l82 148h90z" />
    <glyph glyph-name="threequarters" unicode="&#x455;" horiz-adv-x="1458" 
d="M1196 1704v-565h-90q-41 188 -158.5 327.5t-300.5 139.5q-99 0 -168 -68t-69 -170q0 -119 88 -179.5t321.5 -172.5t350 -228.5t116.5 -312.5q0 -148 -64 -268.5t-179.5 -188t-264.5 -67.5q-249 0 -467 188l-73 -139h-99v590h99q25 -199 160 -337t331 -138q123 0 209 68.5
t86 185.5q0 133 -104 210.5t-322 185t-330 215t-112 290.5q0 218 123.5 350.5t334.5 132.5q228 0 410 -197l82 148h90z" />
    <glyph glyph-name="questiondown" unicode="&#xbf;" horiz-adv-x="1114" 
d="M672 1729v-1270q0 -167 57 -247.5t213 -80.5v-131h-885v131q151 0 211 81.5t60 246.5v704q0 158 -62 240t-209 88v123q205 33 615 115zM-123 2179q0 104 71 175t175 71t175 -71t71 -175q0 -99 -71.5 -172.5t-174.5 -73.5t-174.5 73.5t-71.5 172.5zM631 2179
q0 103 73.5 174.5t172.5 71.5t172 -71t73 -175q0 -99 -73.5 -172.5t-171.5 -73.5t-172 74t-74 172z" />
    <glyph glyph-name="questiondown" unicode="&#x457;" horiz-adv-x="1114" 
d="M672 1729v-1270q0 -167 57 -247.5t213 -80.5v-131h-885v131q151 0 211 81.5t60 246.5v704q0 158 -62 240t-209 88v123q205 33 615 115zM-123 2179q0 104 71 175t175 71t175 -71t71 -175q0 -99 -71.5 -172.5t-174.5 -73.5t-174.5 73.5t-71.5 172.5zM631 2179
q0 103 73.5 174.5t172.5 71.5t172 -71t73 -175q0 -99 -73.5 -172.5t-171.5 -73.5t-172 74t-74 172z" />
    <glyph glyph-name="Agrave" unicode="&#xc0;" horiz-adv-x="2998" 
d="M1565 2777l1032 -2376q64 -141 151 -205.5t234 -64.5v-131h-1131v131h91q237 0 237 123q0 52 -33 147l-221 525h-1089l-213 -525q-33 -80 -33 -114q0 -156 254 -156h90v-131h-950v131q188 0 286.5 55t163.5 215l983 2376h148zM1843 1098l-352 868q-98 257 -115 328
q-14 -28 -33 -99l-442 -1097h942z" />
    <glyph glyph-name="Agrave" unicode="&#x410;" horiz-adv-x="2998" 
d="M1565 2777l1032 -2376q64 -141 151 -205.5t234 -64.5v-131h-1131v131h91q237 0 237 123q0 52 -33 147l-221 525h-1089l-213 -525q-33 -80 -33 -114q0 -156 254 -156h90v-131h-950v131q188 0 286.5 55t163.5 215l983 2376h148zM1843 1098l-352 868q-98 257 -115 328
q-14 -28 -33 -99l-442 -1097h942z" />
    <glyph glyph-name="Aacute" unicode="&#xc1;" horiz-adv-x="2482" 
d="M1294 1540q295 0 512 -98.5t333.5 -278.5t121.5 -418q0 -221 -109 -391.5t-295.5 -262t-406.5 -91.5h-1393v131q168 6 245 23.5t121 85.5t44 219v1818q0 151 -44 219t-121 85.5t-245 23.5v131h1999l74 -663h-123q-46 162 -109 275t-170 181t-270 68h-581v-1065
q169 0 240 1.5t111.5 4t65.5 2.5zM877 1393v-934q0 -183 101.5 -247.5t299.5 -64.5q276 0 396 181t120 475q0 260 -102.5 389.5t-266.5 165t-417 35.5h-131z" />
    <glyph glyph-name="Aacute" unicode="&#x411;" horiz-adv-x="2482" 
d="M1294 1540q295 0 512 -98.5t333.5 -278.5t121.5 -418q0 -221 -109 -391.5t-295.5 -262t-406.5 -91.5h-1393v131q168 6 245 23.5t121 85.5t44 219v1818q0 151 -44 219t-121 85.5t-245 23.5v131h1999l74 -663h-123q-46 162 -109 275t-170 181t-270 68h-581v-1065
q169 0 240 1.5t111.5 4t65.5 2.5zM877 1393v-934q0 -183 101.5 -247.5t299.5 -64.5q276 0 396 181t120 475q0 260 -102.5 389.5t-266.5 165t-417 35.5h-131z" />
    <glyph glyph-name="Acircumflex" unicode="&#xc2;" horiz-adv-x="2482" 
d="M1384 1483q229 -10 429 -93.5t324 -247.5t124 -397q0 -221 -109 -391.5t-295.5 -262t-406.5 -91.5h-1393v131q168 6 245 23.5t121 85.5t44 219v1818q0 151 -44 219t-121 85.5t-245 23.5v131h1327q189 0 357.5 -68t270.5 -205.5t102 -332.5q0 -300 -203 -452t-527 -195z
M877 1401v-942q0 -183 101.5 -247.5t299.5 -64.5q276 0 396 181t120 475q0 278 -121 408.5t-302.5 160t-493.5 29.5zM877 1532q265 0 425 29.5t260.5 145t100.5 357.5q0 266 -102.5 399.5t-356.5 133.5h-327v-1065z" />
    <glyph glyph-name="Acircumflex" unicode="&#x412;" horiz-adv-x="2482" 
d="M1384 1483q229 -10 429 -93.5t324 -247.5t124 -397q0 -221 -109 -391.5t-295.5 -262t-406.5 -91.5h-1393v131q168 6 245 23.5t121 85.5t44 219v1818q0 151 -44 219t-121 85.5t-245 23.5v131h1327q189 0 357.5 -68t270.5 -205.5t102 -332.5q0 -300 -203 -452t-527 -195z
M877 1401v-942q0 -183 101.5 -247.5t299.5 -64.5q276 0 396 181t120 475q0 278 -121 408.5t-302.5 160t-493.5 29.5zM877 1532q265 0 425 29.5t260.5 145t100.5 357.5q0 266 -102.5 399.5t-356.5 133.5h-327v-1065z" />
    <glyph glyph-name="Atilde" unicode="&#xc3;" horiz-adv-x="2138" 
d="M868 459q0 -150 45.5 -218.5t123 -86t241.5 -23.5v-131h-1221v131q168 6 245 23.5t121 85.5t44 219v1818q0 150 -45.5 218.5t-123 86t-241.5 23.5v131h1999l74 -663h-123q-46 162 -109 275t-170 181t-270 68h-590v-2138z" />
    <glyph glyph-name="Atilde" unicode="&#x413;" horiz-adv-x="2138" 
d="M868 459q0 -150 45.5 -218.5t123 -86t241.5 -23.5v-131h-1221v131q168 6 245 23.5t121 85.5t44 219v1818q0 150 -45.5 218.5t-123 86t-241.5 23.5v131h1999l74 -663h-123q-46 162 -109 275t-170 181t-270 68h-590v-2138z" />
    <glyph glyph-name="Adieresis" unicode="&#xc4;" horiz-adv-x="2957" 
d="M2892 172l-123 -934h-148q-6 371 -119 566.5t-298 195.5h-1442q-138 0 -225.5 -40t-144 -196.5t-56.5 -476.5q0 -11 4 -44t4 -46h-156l-172 1000q23 0 51.5 -4.5t38.5 -4.5q106 0 222 58q81 45 158 157.5t112 178.5q65 144 114 262.5t110 274t126.5 327t206.5 536.5
q78 205 98 394v16q0 57 -34 100.5t-89 55.5q-60 24 -155 24v164h1876v-131q-215 0 -320 -57q-58 -31 -74 -98.5t-16 -172.5v-1728q0 -219 113.5 -298t337.5 -79zM1024 180h1008v2392h-205q-58 -17 -85.5 -30t-37.5 -19q-35 -5 -89 -58.5t-83 -88.5q-114 -155 -268.5 -515.5
t-263 -656t-156.5 -434.5q-115 -345 -115 -459q0 -43 25 -65q37 -43 77 -50t193 -16z" />
    <glyph glyph-name="Adieresis" unicode="&#x414;" horiz-adv-x="2957" 
d="M2892 172l-123 -934h-148q-6 371 -119 566.5t-298 195.5h-1442q-138 0 -225.5 -40t-144 -196.5t-56.5 -476.5q0 -11 4 -44t4 -46h-156l-172 1000q23 0 51.5 -4.5t38.5 -4.5q106 0 222 58q81 45 158 157.5t112 178.5q65 144 114 262.5t110 274t126.5 327t206.5 536.5
q78 205 98 394v16q0 57 -34 100.5t-89 55.5q-60 24 -155 24v164h1876v-131q-215 0 -320 -57q-58 -31 -74 -98.5t-16 -172.5v-1728q0 -219 113.5 -298t337.5 -79zM1024 180h1008v2392h-205q-58 -17 -85.5 -30t-37.5 -19q-35 -5 -89 -58.5t-83 -88.5q-114 -155 -268.5 -515.5
t-263 -656t-156.5 -434.5q-115 -345 -115 -459q0 -43 25 -65q37 -43 77 -50t193 -16z" />
    <glyph glyph-name="Aring" unicode="&#xc5;" horiz-adv-x="2400" 
d="M2073 2736l73 -672h-123q-60 251 -186.5 392t-361.5 141h-598v-1073h262q363 0 377 377h131v-926h-131q-27 223 -94.5 312t-282.5 89h-262v-876q0 -203 111 -282t323 -79q310 0 493 60.5t310 275.5q113 228 122 369h123l-57 -844h-2245v131q168 6 245 23.5t121 85.5
t44 219v1818q0 151 -44 219t-121 85.5t-245 23.5v131h2016z" />
    <glyph glyph-name="Aring" unicode="&#x415;" horiz-adv-x="2400" 
d="M2073 2736l73 -672h-123q-60 251 -186.5 392t-361.5 141h-598v-1073h262q363 0 377 377h131v-926h-131q-27 223 -94.5 312t-282.5 89h-262v-876q0 -203 111 -282t323 -79q310 0 493 60.5t310 275.5q113 228 122 369h123l-57 -844h-2245v131q168 6 245 23.5t121 85.5
t44 219v1818q0 151 -44 219t-121 85.5t-245 23.5v131h2016z" />
    <glyph glyph-name="AE" unicode="&#xc6;" horiz-adv-x="4153" 
d="M2277 1384v-917q0 -149 45.5 -219.5t125.5 -91t239 -25.5v-123h-1229v131q168 6 245 23.5t121 86t44 218.5v917h-139q-76 0 -176.5 -52t-151.5 -87q-99 -93 -172.5 -303t-140 -407.5t-175.5 -338.5t-299 -180q-26 -6 -89 -15t-140 -9q-90 0 -139 8q-80 16 -246 131l8 148
q80 -82 156 -82q106 0 216 131.5t243 367.5q85 162 182.5 297t275.5 285q65 58 206.5 128.5t268.5 92.5q-41 0 -131 90q-31 32 -86 102t-86 111q-142 249 -229 377t-157 178.5t-162 50.5h-17q-35 0 -102 -49t-119 -49q-6 0 -28 8.5t-38 8.5q-37 0 -104.5 54t-67.5 142
q0 9 8.5 35.5t8.5 38.5q20 67 107 123.5t204 56.5q148 0 246 -49q153 -76 442 -655q204 -342 320 -435q29 -33 89 -82t115 -49h99v779q0 149 -45.5 217.5t-123 86t-241.5 23.5v131h1229v-131q-206 0 -311 -57q-65 -32 -82 -99t-17 -171v-779h99q55 0 115.5 49t88.5 82
q116 93 320 435q289 579 442 655q98 49 246 49q117 0 204 -56.5t107 -123.5q0 -9 4.5 -34.5t4.5 -39.5q0 -89 -64 -142.5t-100 -53.5q-12 0 -39.5 -8.5t-34.5 -8.5q-51 0 -114 49t-99 49h-25q-91 0 -159.5 -50t-151.5 -175t-229 -381q-33 -41 -88.5 -109t-91.5 -104
q-90 -90 -123 -90q127 -22 268.5 -92.5t206.5 -128.5q176 -149 275 -284.5t184 -297.5q139 -246 241 -372.5t209 -126.5q84 0 164 82l8 -148q-166 -115 -246 -131q-49 -8 -147 -8q-77 0 -136.5 9t-84.5 15q-189 39 -298 180t-175 336t-140.5 407.5t-173.5 305.5
q-51 35 -151 87t-176 52h-140z" />
    <glyph glyph-name="AE" unicode="&#x416;" horiz-adv-x="4153" 
d="M2277 1384v-917q0 -149 45.5 -219.5t125.5 -91t239 -25.5v-123h-1229v131q168 6 245 23.5t121 86t44 218.5v917h-139q-76 0 -176.5 -52t-151.5 -87q-99 -93 -172.5 -303t-140 -407.5t-175.5 -338.5t-299 -180q-26 -6 -89 -15t-140 -9q-90 0 -139 8q-80 16 -246 131l8 148
q80 -82 156 -82q106 0 216 131.5t243 367.5q85 162 182.5 297t275.5 285q65 58 206.5 128.5t268.5 92.5q-41 0 -131 90q-31 32 -86 102t-86 111q-142 249 -229 377t-157 178.5t-162 50.5h-17q-35 0 -102 -49t-119 -49q-6 0 -28 8.5t-38 8.5q-37 0 -104.5 54t-67.5 142
q0 9 8.5 35.5t8.5 38.5q20 67 107 123.5t204 56.5q148 0 246 -49q153 -76 442 -655q204 -342 320 -435q29 -33 89 -82t115 -49h99v779q0 149 -45.5 217.5t-123 86t-241.5 23.5v131h1229v-131q-206 0 -311 -57q-65 -32 -82 -99t-17 -171v-779h99q55 0 115.5 49t88.5 82
q116 93 320 435q289 579 442 655q98 49 246 49q117 0 204 -56.5t107 -123.5q0 -9 4.5 -34.5t4.5 -39.5q0 -89 -64 -142.5t-100 -53.5q-12 0 -39.5 -8.5t-34.5 -8.5q-51 0 -114 49t-99 49h-25q-91 0 -159.5 -50t-151.5 -175t-229 -381q-33 -41 -88.5 -109t-91.5 -104
q-90 -90 -123 -90q127 -22 268.5 -92.5t206.5 -128.5q176 -149 275 -284.5t184 -297.5q139 -246 241 -372.5t209 -126.5q84 0 164 82l8 -148q-166 -115 -246 -131q-49 -8 -147 -8q-77 0 -136.5 9t-84.5 15q-189 39 -298 180t-175 336t-140.5 407.5t-173.5 305.5
q-51 35 -151 87t-176 52h-140z" />
    <glyph glyph-name="Ccedilla" unicode="&#xc7;" horiz-adv-x="2228" 
d="M115 319q-33 80 -33 140q0 101 60 182.5t169 87.5q252 0 271 -237q0 -16 -8.5 -53t-8.5 -54q0 -45 41 -115q95 -147 369 -147q285 0 429 172.5t144 441.5q0 244 -104.5 442t-337.5 214q-36 0 -77 -14.5t-91.5 -40t-89 -39t-78.5 -13.5q-59 0 -103.5 44.5t-52.5 103.5
q0 122 238 122h41q29 0 70.5 -4t74 -9t76.5 -11q178 65 273.5 209.5t95.5 322.5q0 247 -127 410.5t-381 163.5q-97 0 -206.5 -58.5t-162.5 -97.5q-90 -66 -151.5 -205.5t-118.5 -392.5l-172 8l33 869h131q50 -137 82 -189q35 24 76 47t63 35q208 120 467 131h49
q209 0 403 -70t317.5 -218t123.5 -367v-25q-4 -150 -81.5 -282t-211 -221.5t-305.5 -118.5q693 -142 712 -721v-25q0 -207 -119 -382t-307 -273q-139 -78 -304.5 -104.5t-366.5 -26.5q-283 0 -443 65q-276 106 -368 303z" />
    <glyph glyph-name="Ccedilla" unicode="&#x417;" horiz-adv-x="2228" 
d="M115 319q-33 80 -33 140q0 101 60 182.5t169 87.5q252 0 271 -237q0 -16 -8.5 -53t-8.5 -54q0 -45 41 -115q95 -147 369 -147q285 0 429 172.5t144 441.5q0 244 -104.5 442t-337.5 214q-36 0 -77 -14.5t-91.5 -40t-89 -39t-78.5 -13.5q-59 0 -103.5 44.5t-52.5 103.5
q0 122 238 122h41q29 0 70.5 -4t74 -9t76.5 -11q178 65 273.5 209.5t95.5 322.5q0 247 -127 410.5t-381 163.5q-97 0 -206.5 -58.5t-162.5 -97.5q-90 -66 -151.5 -205.5t-118.5 -392.5l-172 8l33 869h131q50 -137 82 -189q35 24 76 47t63 35q208 120 467 131h49
q209 0 403 -70t317.5 -218t123.5 -367v-25q-4 -150 -81.5 -282t-211 -221.5t-305.5 -118.5q693 -142 712 -721v-25q0 -207 -119 -382t-307 -273q-139 -78 -304.5 -104.5t-366.5 -26.5q-283 0 -443 65q-276 106 -368 303z" />
    <glyph glyph-name="Egrave" unicode="&#xc8;" horiz-adv-x="3121" 
d="M2236 2015l-1359 -1556q0 -150 45 -218.5t122.5 -86t241.5 -23.5v-131h-1229v131q168 6 245 23.5t121 85.5t44 219v1818q0 150 -45.5 218.5t-123 86t-241.5 23.5v131h1229v-131q-205 0 -319 -57q-58 -31 -74 -98.5t-16 -172.5v-1572l1359 1572q0 141 -45 210.5t-127 91
t-237 26.5v131h1229v-131q-215 0 -320 -57q-58 -31 -74 -98.5t-16 -172.5v-1818q0 -155 48 -224t123 -83.5t239 -20.5v-131h-1229v131q159 5 240 26t125 90t44 212v1556z" />
    <glyph glyph-name="Egrave" unicode="&#x418;" horiz-adv-x="3121" 
d="M2236 2015l-1359 -1556q0 -150 45 -218.5t122.5 -86t241.5 -23.5v-131h-1229v131q168 6 245 23.5t121 85.5t44 219v1818q0 150 -45.5 218.5t-123 86t-241.5 23.5v131h1229v-131q-205 0 -319 -57q-58 -31 -74 -98.5t-16 -172.5v-1572l1359 1572q0 141 -45 210.5t-127 91
t-237 26.5v131h1229v-131q-215 0 -320 -57q-58 -31 -74 -98.5t-16 -172.5v-1818q0 -155 48 -224t123 -83.5t239 -20.5v-131h-1229v131q159 5 240 26t125 90t44 212v1556z" />
    <glyph glyph-name="Eacute" unicode="&#xc9;" horiz-adv-x="3121" 
d="M2236 2015l-1359 -1556q0 -150 45 -218.5t122.5 -86t241.5 -23.5v-131h-1229v131q168 6 245 23.5t121 85.5t44 219v1818q0 150 -45.5 218.5t-123 86t-241.5 23.5v131h1229v-131q-205 0 -319 -57q-58 -31 -74 -98.5t-16 -172.5v-1572l1359 1572q0 141 -45 210.5t-127 91
t-237 26.5v131h1229v-131q-215 0 -320 -57q-58 -31 -74 -98.5t-16 -172.5v-1818q0 -155 48 -224t123 -83.5t239 -20.5v-131h-1229v131q159 5 240 26t125 90t44 212v1556zM1614 3244q123 0 241.5 35.5t118.5 120.5q-24 123 -24 164q0 78 57.5 138t138.5 66h17q52 0 107 -23.5
t81 -49.5q57 -67 57 -181q-4 -171 -145 -266t-322.5 -127.5t-334.5 -32.5q-151 0 -329.5 32.5t-316 127.5t-141.5 266q0 114 58 181q73 73 180 73h24q82 -6 139.5 -65.5t57.5 -138.5q0 -50 -25 -164q0 -85 118.5 -120.5t242.5 -35.5z" />
    <glyph glyph-name="Eacute" unicode="&#x419;" horiz-adv-x="3121" 
d="M2236 2015l-1359 -1556q0 -150 45 -218.5t122.5 -86t241.5 -23.5v-131h-1229v131q168 6 245 23.5t121 85.5t44 219v1818q0 150 -45.5 218.5t-123 86t-241.5 23.5v131h1229v-131q-205 0 -319 -57q-58 -31 -74 -98.5t-16 -172.5v-1572l1359 1572q0 141 -45 210.5t-127 91
t-237 26.5v131h1229v-131q-215 0 -320 -57q-58 -31 -74 -98.5t-16 -172.5v-1818q0 -155 48 -224t123 -83.5t239 -20.5v-131h-1229v131q159 5 240 26t125 90t44 212v1556zM1614 3244q123 0 241.5 35.5t118.5 120.5q-24 123 -24 164q0 78 57.5 138t138.5 66h17q52 0 107 -23.5
t81 -49.5q57 -67 57 -181q-4 -171 -145 -266t-322.5 -127.5t-334.5 -32.5q-151 0 -329.5 32.5t-316 127.5t-141.5 266q0 114 58 181q73 73 180 73h24q82 -6 139.5 -65.5t57.5 -138.5q0 -50 -25 -164q0 -85 118.5 -120.5t242.5 -35.5z" />
    <glyph glyph-name="Ecircumflex" unicode="&#xca;" horiz-adv-x="2826" 
d="M877 1524h163q75 0 139 43t91 71q114 92 319 435q289 579 443 655q98 49 245 49q117 0 204.5 -56.5t107.5 -123.5q0 -9 4 -37t4 -37q0 -89 -63 -142.5t-101 -53.5q-17 0 -41.5 -8.5t-32.5 -8.5q-51 0 -114 49t-99 49h-24q-91 0 -159.5 -50t-149.5 -172t-232 -384
q-31 -41 -84 -109.5t-88 -103.5q-73 -73 -106 -73q224 -39 450 -238q176 -149 275 -284.5t184 -297.5q139 -246 242 -372.5t208 -126.5q84 0 164 82l8 -148q-164 -115 -245 -131q-49 -8 -148 -8q-77 0 -136.5 9t-84.5 15q-189 39 -298 180t-175 336t-140.5 408t-172.5 305
q-39 37 -135.5 92.5t-225.5 55.5h-196v-934q0 -150 45 -218.5t122.5 -86t241.5 -23.5v-131h-1229v131q168 6 245 23.5t121 85.5t44 219v1818q0 150 -45.5 218.5t-123 86t-241.5 23.5v131h1229v-131q-206 0 -311 -57q-64 -31 -81 -98.5t-17 -172.5v-753z" />
    <glyph glyph-name="Ecircumflex" unicode="&#x41a;" horiz-adv-x="2826" 
d="M877 1524h163q75 0 139 43t91 71q114 92 319 435q289 579 443 655q98 49 245 49q117 0 204.5 -56.5t107.5 -123.5q0 -9 4 -37t4 -37q0 -89 -63 -142.5t-101 -53.5q-17 0 -41.5 -8.5t-32.5 -8.5q-51 0 -114 49t-99 49h-24q-91 0 -159.5 -50t-149.5 -172t-232 -384
q-31 -41 -84 -109.5t-88 -103.5q-73 -73 -106 -73q224 -39 450 -238q176 -149 275 -284.5t184 -297.5q139 -246 242 -372.5t208 -126.5q84 0 164 82l8 -148q-164 -115 -245 -131q-49 -8 -148 -8q-77 0 -136.5 9t-84.5 15q-189 39 -298 180t-175 336t-140.5 408t-172.5 305
q-39 37 -135.5 92.5t-225.5 55.5h-196v-934q0 -150 45 -218.5t122.5 -86t241.5 -23.5v-131h-1229v131q168 6 245 23.5t121 85.5t44 219v1818q0 150 -45.5 218.5t-123 86t-241.5 23.5v131h1229v-131q-206 0 -311 -57q-64 -31 -81 -98.5t-17 -172.5v-753z" />
    <glyph glyph-name="Edieresis" unicode="&#xcb;" horiz-adv-x="3170" 
d="M1368 2236q0 17 4 48t4 43q0 95 -55 158t-150 63q-75 0 -147 -25l-33 139l729 181l1057 -2450q122 -270 385 -270v-131h-1130v131h90q237 0 237 123q0 49 -32 147l-656 1565q-9 18 -62 151t-85 168q-7 -37 -33.5 -139.5t-40.5 -155.5q-85 -273 -179 -539t-197.5 -526
t-213.5 -507q-31 -57 -79 -146t-60 -108q-51 -66 -106.5 -108t-82.5 -56q-81 -41 -213 -41q-127 0 -213 57q-21 11 -63.5 80t-42.5 141q0 87 49 148q50 74 148 74q28 0 98 -17q-5 0 54 -45t118 -45q106 0 172 74q18 21 57.5 81t57.5 91q83 168 213 493.5t244.5 652.5
t156.5 500z" />
    <glyph glyph-name="Edieresis" unicode="&#x41b;" horiz-adv-x="3170" 
d="M1368 2236q0 17 4 48t4 43q0 95 -55 158t-150 63q-75 0 -147 -25l-33 139l729 181l1057 -2450q122 -270 385 -270v-131h-1130v131h90q237 0 237 123q0 49 -32 147l-656 1565q-9 18 -62 151t-85 168q-7 -37 -33.5 -139.5t-40.5 -155.5q-85 -273 -179 -539t-197.5 -526
t-213.5 -507q-31 -57 -79 -146t-60 -108q-51 -66 -106.5 -108t-82.5 -56q-81 -41 -213 -41q-127 0 -213 57q-21 11 -63.5 80t-42.5 141q0 87 49 148q50 74 148 74q28 0 98 -17q-5 0 54 -45t118 -45q106 0 172 74q18 21 57.5 81t57.5 91q83 168 213 493.5t244.5 652.5
t156.5 500z" />
    <glyph glyph-name="Igrave" unicode="&#xcc;" horiz-adv-x="3596" 
d="M1745 0h-123l-811 1942q-40 100 -95.5 257.5t-84.5 225.5v-1802q0 -170 24 -267t112.5 -155.5t272.5 -69.5v-131h-983v131q220 6 315 105.5t95 320.5v1663q0 170 -37 250t-117.5 105t-255.5 30v131h852l623 -1491q123 -265 262 -713q22 45 33 91l876 2113h844v-131
q-206 0 -311 -57q-98 -53 -98 -271v-1818q0 -189 65 -246q82 -82 303 -82h41v-131h-1229v131q183 8 267 39.5t113.5 111t29.5 250.5v1377q0 297 25 573q-23 -87 -115 -344z" />
    <glyph glyph-name="Igrave" unicode="&#x41c;" horiz-adv-x="3596" 
d="M1745 0h-123l-811 1942q-40 100 -95.5 257.5t-84.5 225.5v-1802q0 -170 24 -267t112.5 -155.5t272.5 -69.5v-131h-983v131q220 6 315 105.5t95 320.5v1663q0 170 -37 250t-117.5 105t-255.5 30v131h852l623 -1491q123 -265 262 -713q22 45 33 91l876 2113h844v-131
q-206 0 -311 -57q-98 -53 -98 -271v-1818q0 -189 65 -246q82 -82 303 -82h41v-131h-1229v131q183 8 267 39.5t113.5 111t29.5 250.5v1377q0 297 25 573q-23 -87 -115 -344z" />
    <glyph glyph-name="Iacute" unicode="&#xcd;" horiz-adv-x="3121" 
d="M2236 1360h-1359v-901q0 -150 45 -218.5t122.5 -86t241.5 -23.5v-131h-1229v131q168 6 245 23.5t121 85.5t44 219v1818q0 150 -45.5 218.5t-123 86t-241.5 23.5v131h1229v-131q-205 0 -319 -57q-58 -31 -74 -98.5t-16 -172.5v-745h1359v745q0 141 -45 210.5t-127 91
t-237 26.5v131h1229v-131q-215 0 -320 -57q-58 -31 -74 -98.5t-16 -172.5v-1818q0 -155 48 -224t123 -83.5t239 -20.5v-131h-1229v131q159 5 240 26t125 90t44 212v901z" />
    <glyph glyph-name="Iacute" unicode="&#x41d;" horiz-adv-x="3121" 
d="M2236 1360h-1359v-901q0 -150 45 -218.5t122.5 -86t241.5 -23.5v-131h-1229v131q168 6 245 23.5t121 85.5t44 219v1818q0 150 -45.5 218.5t-123 86t-241.5 23.5v131h1229v-131q-205 0 -319 -57q-58 -31 -74 -98.5t-16 -172.5v-745h1359v745q0 141 -45 210.5t-127 91
t-237 26.5v131h1229v-131q-215 0 -320 -57q-58 -31 -74 -98.5t-16 -172.5v-1818q0 -155 48 -224t123 -83.5t239 -20.5v-131h-1229v131q159 5 240 26t125 90t44 212v901z" />
    <glyph glyph-name="Icircumflex" unicode="&#xce;" horiz-adv-x="3211" 
d="M1597 -74q-404 0 -736.5 186.5t-523 517t-190.5 738.5q0 412 188.5 740.5t520.5 511t741 182.5q414 0 747.5 -182.5t522.5 -511t189 -740.5q0 -409 -191 -739.5t-526 -516.5t-742 -186zM1597 74q356 0 575.5 183t313.5 474t94 637q0 258 -50.5 487t-163.5 413.5
t-305 293.5t-464 109q-269 0 -458.5 -109t-302 -293.5t-163 -414t-50.5 -486.5q0 -348 93 -639.5t311 -473t570 -181.5z" />
    <glyph glyph-name="Icircumflex" unicode="&#x41e;" horiz-adv-x="3211" 
d="M1597 -74q-404 0 -736.5 186.5t-523 517t-190.5 738.5q0 412 188.5 740.5t520.5 511t741 182.5q414 0 747.5 -182.5t522.5 -511t189 -740.5q0 -409 -191 -739.5t-526 -516.5t-742 -186zM1597 74q356 0 575.5 183t313.5 474t94 637q0 258 -50.5 487t-163.5 413.5
t-305 293.5t-464 109q-269 0 -458.5 -109t-302 -293.5t-163 -414t-50.5 -486.5q0 -348 93 -639.5t311 -473t570 -181.5z" />
    <glyph glyph-name="Idieresis" unicode="&#xcf;" horiz-adv-x="3121" 
d="M2236 2564h-1359v-2105q0 -150 45 -218.5t122.5 -86t241.5 -23.5v-131h-1229v131q168 6 245 23.5t121 85.5t44 219v1818q0 150 -45.5 218.5t-123 86t-241.5 23.5v131h2999v-131q-215 0 -320 -57q-58 -31 -74 -98.5t-16 -172.5v-1818q0 -155 48 -224t123 -83.5t239 -20.5
v-131h-1229v131q159 5 240 26t125 90t44 212v2105z" />
    <glyph glyph-name="Idieresis" unicode="&#x41f;" horiz-adv-x="3121" 
d="M2236 2564h-1359v-2105q0 -150 45 -218.5t122.5 -86t241.5 -23.5v-131h-1229v131q168 6 245 23.5t121 85.5t44 219v1818q0 150 -45.5 218.5t-123 86t-241.5 23.5v131h2999v-131q-215 0 -320 -57q-58 -31 -74 -98.5t-16 -172.5v-1818q0 -155 48 -224t123 -83.5t239 -20.5
v-131h-1229v131q159 5 240 26t125 90t44 212v2105z" />
    <glyph glyph-name="Eth" unicode="&#xd0;" horiz-adv-x="2228" 
d="M877 1303v-844q0 -150 45 -218.5t122.5 -86t241.5 -23.5v-131h-1229v131q168 6 245 23.5t121 85.5t44 219v1818q0 150 -45.5 218.5t-123 86t-241.5 23.5v131h959q358 0 599.5 -39t410.5 -199t169 -491q0 -191 -90.5 -353t-253.5 -253q-187 -98 -581 -98h-393zM877 1425
h311q270 0 417.5 161.5t147.5 436.5q0 217 -68 349.5t-204.5 190.5t-350.5 58q-46 0 -130 -4t-123 -4v-1188z" />
    <glyph glyph-name="Eth" unicode="&#x420;" horiz-adv-x="2228" 
d="M877 1303v-844q0 -150 45 -218.5t122.5 -86t241.5 -23.5v-131h-1229v131q168 6 245 23.5t121 85.5t44 219v1818q0 150 -45.5 218.5t-123 86t-241.5 23.5v131h959q358 0 599.5 -39t410.5 -199t169 -491q0 -191 -90.5 -353t-253.5 -253q-187 -98 -581 -98h-393zM877 1425
h311q270 0 417.5 161.5t147.5 436.5q0 217 -68 349.5t-204.5 190.5t-350.5 58q-46 0 -130 -4t-123 -4v-1188z" />
    <glyph glyph-name="Ntilde" unicode="&#xd1;" horiz-adv-x="2867" 
d="M2679 2728l41 -983h-131q-65 268 -188.5 471.5t-321.5 320.5t-473 117q-319 0 -529.5 -184.5t-307.5 -472.5t-97 -596q0 -333 108 -624t337.5 -468.5t570.5 -177.5q307 0 590.5 191.5t400.5 480.5l147 -115q-104 -234 -298.5 -407t-443 -264t-503.5 -91
q-300 0 -555.5 105t-439 295t-282.5 449.5t-99 559.5q0 296 99 562t284 470.5t442.5 319.5t558.5 115q479 0 885 -279q37 60 90 205h115z" />
    <glyph glyph-name="Ntilde" unicode="&#x421;" horiz-adv-x="2867" 
d="M2679 2728l41 -983h-131q-65 268 -188.5 471.5t-321.5 320.5t-473 117q-319 0 -529.5 -184.5t-307.5 -472.5t-97 -596q0 -333 108 -624t337.5 -468.5t570.5 -177.5q307 0 590.5 191.5t400.5 480.5l147 -115q-104 -234 -298.5 -407t-443 -264t-503.5 -91
q-300 0 -555.5 105t-439 295t-282.5 449.5t-99 559.5q0 296 99 562t284 470.5t442.5 319.5t558.5 115q479 0 885 -279q37 60 90 205h115z" />
    <glyph glyph-name="Ograve" unicode="&#xd2;" horiz-adv-x="2654" 
d="M1925 0h-1220v131q166 5 245 24.5t121.5 87.5t42.5 216v2138h-459q-237 0 -352.5 -133.5t-187.5 -390.5h-131l73 663h2515l74 -663h-123q-53 168 -113 279t-164.5 178t-271.5 67h-458v-2138q0 -149 46.5 -218t124 -86.5t238.5 -23.5v-131z" />
    <glyph glyph-name="Ograve" unicode="&#x422;" horiz-adv-x="2654" 
d="M1925 0h-1220v131q166 5 245 24.5t121.5 87.5t42.5 216v2138h-459q-237 0 -352.5 -133.5t-187.5 -390.5h-131l73 663h2515l74 -663h-123q-53 168 -113 279t-164.5 178t-271.5 67h-458v-2138q0 -149 46.5 -218t124 -86.5t238.5 -23.5v-131z" />
    <glyph glyph-name="Oacute" unicode="&#xd3;" horiz-adv-x="2998" 
d="M1499 319q4 0 -90 -147q-51 -56 -106 -97.5t-82 -58.5q-85 -41 -213 -41q-127 0 -213 58q-24 12 -69.5 80t-45.5 141q0 74 57 147q49 74 148 74q32 0 98 -16q-5 0 54 -45t118 -45q11 0 35.5 -4.5t38.5 -4.5q58 0 106 50q32 38 87 128t61 109l-1114 1688q-53 64 -97.5 117
t-81.5 85t-86.5 50t-119.5 18v131h1130v-131h-90q-238 0 -238 -123q0 -46 33 -147l869 -1344l655 1344q33 85 33 123q0 91 -74 119t-188 28h-82v131h942v-131h-33q-289 -33 -410 -270z" />
    <glyph glyph-name="Oacute" unicode="&#x423;" horiz-adv-x="2998" 
d="M1499 319q4 0 -90 -147q-51 -56 -106 -97.5t-82 -58.5q-85 -41 -213 -41q-127 0 -213 58q-24 12 -69.5 80t-45.5 141q0 74 57 147q49 74 148 74q32 0 98 -16q-5 0 54 -45t118 -45q11 0 35.5 -4.5t38.5 -4.5q58 0 106 50q32 38 87 128t61 109l-1114 1688q-53 64 -97.5 117
t-81.5 85t-86.5 50t-119.5 18v131h1130v-131h-90q-238 0 -238 -123q0 -46 33 -147l869 -1344l655 1344q33 85 33 123q0 91 -74 119t-188 28h-82v131h942v-131h-33q-289 -33 -410 -270z" />
    <glyph glyph-name="Ocircumflex" unicode="&#xd4;" horiz-adv-x="3211" 
d="M999 2728h1229v-131q-144 -8 -213 -18.5t-132.5 -55.5t-63.5 -139v-115q114 65 252.5 86t205.5 21q185 0 350.5 -65t288 -182.5t192.5 -280.5t70 -349q0 -257 -112.5 -483.5t-322 -363t-490.5 -136.5l-8 8q-97 0 -235 23.5t-191 58.5v-155q0 -150 45 -218.5t122.5 -86
t241.5 -23.5v-131h-1229v131q168 6 245 23.5t121 85.5t44 219v147q-53 -34 -190.5 -58t-235.5 -24l-16 -8q-280 0 -489 136.5t-319 362.5t-110 484q0 249 120.5 449.5t328 313.5t452.5 113q271 0 459 -106q0 5 -3 13t-5 12q-5 196 -97 250t-305 61v131zM1409 2105
q-120 99 -344 99q-120 0 -246 -41q-214 -91 -296.5 -241.5t-88.5 -446.5q0 -5 -4 -17t-4 -16q0 -199 62 -370.5t181.5 -278t280.5 -113.5q8 -2 29.5 -5t52.5 -3q241 0 377 73v1360zM1819 754q135 -74 368 -74q31 0 55.5 3t34.5 5q242 13 379 232t137 530v33
q-5 204 -40.5 330t-117 210.5t-227.5 147.5q-126 41 -254 41q-214 0 -335 -98v-1360z" />
    <glyph glyph-name="Ocircumflex" unicode="&#x424;" horiz-adv-x="3211" 
d="M999 2728h1229v-131q-144 -8 -213 -18.5t-132.5 -55.5t-63.5 -139v-115q114 65 252.5 86t205.5 21q185 0 350.5 -65t288 -182.5t192.5 -280.5t70 -349q0 -257 -112.5 -483.5t-322 -363t-490.5 -136.5l-8 8q-97 0 -235 23.5t-191 58.5v-155q0 -150 45 -218.5t122.5 -86
t241.5 -23.5v-131h-1229v131q168 6 245 23.5t121 85.5t44 219v147q-53 -34 -190.5 -58t-235.5 -24l-16 -8q-280 0 -489 136.5t-319 362.5t-110 484q0 249 120.5 449.5t328 313.5t452.5 113q271 0 459 -106q0 5 -3 13t-5 12q-5 196 -97 250t-305 61v131zM1409 2105
q-120 99 -344 99q-120 0 -246 -41q-214 -91 -296.5 -241.5t-88.5 -446.5q0 -5 -4 -17t-4 -16q0 -199 62 -370.5t181.5 -278t280.5 -113.5q8 -2 29.5 -5t52.5 -3q241 0 377 73v1360zM1819 754q135 -74 368 -74q31 0 55.5 3t34.5 5q242 13 379 232t137 530v33
q-5 204 -40.5 330t-117 210.5t-227.5 147.5q-126 41 -254 41q-214 0 -335 -98v-1360z" />
    <glyph glyph-name="Otilde" unicode="&#xd5;" horiz-adv-x="2957" 
d="M1647 1548l802 -1188q83 -122 191.5 -172.5t267.5 -56.5v-131h-1188v131h82q213 0 213 98q0 60 -57 131l-574 852l-639 -852q-47 -47 -57 -98q0 -139 287 -139q4 0 21 4t20 4v-131h-1016v131q383 0 557 229l746 992l-713 1024q-86 128 -190.5 175.5t-276.5 53.5v131h1180
v-131h-74q-205 0 -205 -90q0 -42 57 -139l467 -688l525 688q49 65 49 123q0 106 -262 106h-58v131h1008v-131q-204 -15 -329 -58.5t-220 -170.5z" />
    <glyph glyph-name="Otilde" unicode="&#x425;" horiz-adv-x="2957" 
d="M1647 1548l802 -1188q83 -122 191.5 -172.5t267.5 -56.5v-131h-1188v131h82q213 0 213 98q0 60 -57 131l-574 852l-639 -852q-47 -47 -57 -98q0 -139 287 -139q4 0 21 4t20 4v-131h-1016v131q383 0 557 229l746 992l-713 1024q-86 128 -190.5 175.5t-276.5 53.5v131h1180
v-131h-74q-205 0 -205 -90q0 -42 57 -139l467 -688l525 688q49 65 49 123q0 106 -262 106h-58v131h1008v-131q-204 -15 -329 -58.5t-220 -170.5z" />
    <glyph glyph-name="Odieresis" unicode="&#xd6;" horiz-adv-x="3211" 
d="M2662 475q0 -167 98.5 -251.5t245.5 -84.5q16 0 59.5 8.5t63.5 8.5l-123 -844h-147v139q0 299 -120.5 424t-305.5 125h-2359v131q164 6 241.5 23.5t122.5 86t45 218.5v1818q0 151 -44 219t-120.5 85.5t-244.5 23.5v131h1229v-131q-165 -6 -242.5 -23.5t-122.5 -86
t-45 -218.5v-2105h1360v2105q0 143 -44 212t-126 90t-240 26v131h1229v-131q-164 -6 -239 -20.5t-123 -83.5t-48 -224v-1802z" />
    <glyph glyph-name="Odieresis" unicode="&#x426;" horiz-adv-x="3211" 
d="M2662 475q0 -167 98.5 -251.5t245.5 -84.5q16 0 59.5 8.5t63.5 8.5l-123 -844h-147v139q0 299 -120.5 424t-305.5 125h-2359v131q164 6 241.5 23.5t122.5 86t45 218.5v1818q0 151 -44 219t-120.5 85.5t-244.5 23.5v131h1229v-131q-165 -6 -242.5 -23.5t-122.5 -86
t-45 -218.5v-2105h1360v2105q0 143 -44 212t-126 90t-240 26v131h1229v-131q-164 -6 -239 -20.5t-123 -83.5t-48 -224v-1802z" />
    <glyph glyph-name="multiply" unicode="&#xd7;" horiz-adv-x="2785" 
d="M393 2277q0 150 -45 218.5t-122.5 86t-241.5 23.5v131h1171v-123q-132 0 -262 -65q-90 -36 -90 -271q0 -82 -8.5 -199t-8.5 -161q0 -221 56 -347.5t209.5 -189t447.5 -69.5q86 8 219.5 27.5t149.5 45.5v885q0 210 -75 270t-286 66v131h1180v-131q-164 -6 -241.5 -23.5
t-123 -85.5t-45.5 -219v-1818q0 -151 44 -219t121 -85.5t245 -23.5v-131h-1229v131q164 6 241.5 23.5t123 85.5t45.5 219v753q-111 -29 -263 -47t-204 -18q-25 0 -77 -4t-71 -4q-163 0 -283 27.5t-167 45.5q-426 126 -426 730q0 73 8 190t8 145z" />
    <glyph glyph-name="multiply" unicode="&#x427;" horiz-adv-x="2785" 
d="M393 2277q0 150 -45 218.5t-122.5 86t-241.5 23.5v131h1171v-123q-132 0 -262 -65q-90 -36 -90 -271q0 -82 -8.5 -199t-8.5 -161q0 -221 56 -347.5t209.5 -189t447.5 -69.5q86 8 219.5 27.5t149.5 45.5v885q0 210 -75 270t-286 66v131h1180v-131q-164 -6 -241.5 -23.5
t-123 -85.5t-45.5 -219v-1818q0 -151 44 -219t121 -85.5t245 -23.5v-131h-1229v131q164 6 241.5 23.5t123 85.5t45.5 219v753q-111 -29 -263 -47t-204 -18q-25 0 -77 -4t-71 -4q-163 0 -283 27.5t-167 45.5q-426 126 -426 730q0 73 8 190t8 145z" />
    <glyph glyph-name="Oslash" unicode="&#xd8;" horiz-adv-x="4366" 
d="M3858 459q0 -151 44 -219t121 -85.5t245 -23.5v-131h-4211v131q168 6 245 23.5t121 85.5t44 219v1818q0 151 -44 219t-121 85.5t-245 23.5v131h1188v-147h-74q-113 0 -196 -41q-64 -31 -81 -98.5t-17 -172.5v-2105h1065v2097q0 152 -32.5 217.5t-99.5 81.5t-229 21v147
h1155v-139q-161 -6 -233 -23.5t-112 -87t-40 -217.5v-2089h1098v2097q0 144 -33 208t-102 81.5t-226 22.5v147h1180v-131q-164 -6 -239 -20.5t-123 -83.5t-48 -224v-1818z" />
    <glyph glyph-name="Oslash" unicode="&#x428;" horiz-adv-x="4366" 
d="M3858 459q0 -151 44 -219t121 -85.5t245 -23.5v-131h-4211v131q168 6 245 23.5t121 85.5t44 219v1818q0 151 -44 219t-121 85.5t-245 23.5v131h1188v-147h-74q-113 0 -196 -41q-64 -31 -81 -98.5t-17 -172.5v-2105h1065v2097q0 152 -32.5 217.5t-99.5 81.5t-229 21v147
h1155v-139q-161 -6 -233 -23.5t-112 -87t-40 -217.5v-2089h1098v2097q0 144 -33 208t-102 81.5t-226 22.5v147h1180v-131q-164 -6 -239 -20.5t-123 -83.5t-48 -224v-1818z" />
    <glyph glyph-name="Ugrave" unicode="&#xd9;" horiz-adv-x="4407" 
d="M1942 172v2097q0 152 -32.5 217.5t-99.5 81.5t-229 21v147h1155v-139q-161 -6 -233 -23.5t-112 -87t-40 -217.5v-2089h1098v2097q0 144 -33 208t-102 81.5t-226 22.5v147h1180v-131q-164 -6 -239 -20.5t-123 -83.5t-48 -224v-1802q0 -168 87.5 -248t232.5 -80
q20 0 63 8.5t68 8.5l-90 -852h-164v123q0 304 -146.5 434.5t-361.5 130.5h-3490v131q168 6 245 23.5t121 85.5t44 219v1818q0 151 -44 219t-121 85.5t-245 23.5v131h1188v-147h-74q-113 0 -196 -41q-64 -31 -81 -98.5t-17 -172.5v-2105h1065z" />
    <glyph glyph-name="Ugrave" unicode="&#x429;" horiz-adv-x="4407" 
d="M1942 172v2097q0 152 -32.5 217.5t-99.5 81.5t-229 21v147h1155v-139q-161 -6 -233 -23.5t-112 -87t-40 -217.5v-2089h1098v2097q0 144 -33 208t-102 81.5t-226 22.5v147h1180v-131q-164 -6 -239 -20.5t-123 -83.5t-48 -224v-1802q0 -168 87.5 -248t232.5 -80
q20 0 63 8.5t68 8.5l-90 -852h-164v123q0 304 -146.5 434.5t-361.5 130.5h-3490v131q168 6 245 23.5t121 85.5t44 219v1818q0 151 -44 219t-121 85.5t-245 23.5v131h1188v-147h-74q-113 0 -196 -41q-64 -31 -81 -98.5t-17 -172.5v-2105h1065z" />
    <glyph glyph-name="Uacute" unicode="&#xda;" horiz-adv-x="2736" 
d="M639 2597h-57q-325 0 -459 -541h-131l90 680h1540v-131q-206 0 -311 -57q-65 -32 -82 -99t-17 -172v-745q170 0 241 1.5t111.5 4t65.5 2.5q295 0 512 -98.5t333.5 -278.5t121.5 -418q0 -221 -109 -391.5t-295.5 -262t-406.5 -91.5h-1393v131q168 6 245 23.5t121 85.5
t44 219v1818q0 116 -8 174t-43 96.5t-113 49.5zM1212 1393v-934q0 -183 102 -247.5t300 -64.5q276 0 396 181t120 475q0 260 -102.5 389.5t-267 165t-417.5 35.5h-131z" />
    <glyph glyph-name="Uacute" unicode="&#x42a;" horiz-adv-x="2736" 
d="M639 2597h-57q-325 0 -459 -541h-131l90 680h1540v-131q-206 0 -311 -57q-65 -32 -82 -99t-17 -172v-745q170 0 241 1.5t111.5 4t65.5 2.5q295 0 512 -98.5t333.5 -278.5t121.5 -418q0 -221 -109 -391.5t-295.5 -262t-406.5 -91.5h-1393v131q168 6 245 23.5t121 85.5
t44 219v1818q0 116 -8 174t-43 96.5t-113 49.5zM1212 1393v-934q0 -183 102 -247.5t300 -64.5q276 0 396 181t120 475q0 260 -102.5 389.5t-267 165t-417.5 35.5h-131z" />
    <glyph glyph-name="Ucircumflex" unicode="&#xdb;" horiz-adv-x="3727" 
d="M3629 -8h-1229v131q168 6 245 23.5t121 85.5t44 219v1818q0 150 -44 218.5t-121 86t-245 23.5v131h1229v-131q-206 0 -311 -57q-65 -33 -82 -100t-17 -171v-1818q0 -150 45.5 -218.5t123 -86t241.5 -23.5v-131zM877 2277v-745q169 0 240 1.5t111.5 4t65.5 2.5
q295 0 512 -98.5t333.5 -278.5t121.5 -418q0 -221 -109 -391.5t-295.5 -262t-406.5 -91.5h-1393v131q168 6 245 23.5t121 85.5t44 219v1818q0 151 -44 219t-121 85.5t-245 23.5v131h1229v-131q-206 0 -311 -57q-64 -31 -81 -98.5t-17 -172.5zM877 1393v-934
q0 -183 101.5 -247.5t299.5 -64.5q276 0 396 181t120 475q0 260 -102.5 389.5t-266.5 165t-417 35.5h-131z" />
    <glyph glyph-name="Ucircumflex" unicode="&#x42b;" horiz-adv-x="3727" 
d="M3629 -8h-1229v131q168 6 245 23.5t121 85.5t44 219v1818q0 150 -44 218.5t-121 86t-245 23.5v131h1229v-131q-206 0 -311 -57q-65 -33 -82 -100t-17 -171v-1818q0 -150 45.5 -218.5t123 -86t241.5 -23.5v-131zM877 2277v-745q169 0 240 1.5t111.5 4t65.5 2.5
q295 0 512 -98.5t333.5 -278.5t121.5 -418q0 -221 -109 -391.5t-295.5 -262t-406.5 -91.5h-1393v131q168 6 245 23.5t121 85.5t44 219v1818q0 151 -44 219t-121 85.5t-245 23.5v131h1229v-131q-206 0 -311 -57q-64 -31 -81 -98.5t-17 -172.5zM877 1393v-934
q0 -183 101.5 -247.5t299.5 -64.5q276 0 396 181t120 475q0 260 -102.5 389.5t-266.5 165t-417 35.5h-131z" />
    <glyph glyph-name="Udieresis" unicode="&#xdc;" horiz-adv-x="2359" 
d="M877 2277v-745q169 0 240 1.5t111.5 4t65.5 2.5q295 0 512 -98.5t333.5 -278.5t121.5 -418q0 -221 -109 -391.5t-295.5 -262t-406.5 -91.5h-1393v131q168 6 245 23.5t121 85.5t44 219v1818q0 151 -44 219t-121 85.5t-245 23.5v131h1229v-131q-206 0 -311 -57
q-64 -31 -81 -98.5t-17 -172.5zM877 1393v-934q0 -183 101.5 -247.5t299.5 -64.5q276 0 396 181t120 475q0 260 -102.5 389.5t-266.5 165t-417 35.5h-131z" />
    <glyph glyph-name="Udieresis" unicode="&#x42c;" horiz-adv-x="2359" 
d="M877 2277v-745q169 0 240 1.5t111.5 4t65.5 2.5q295 0 512 -98.5t333.5 -278.5t121.5 -418q0 -221 -109 -391.5t-295.5 -262t-406.5 -91.5h-1393v131q168 6 245 23.5t121 85.5t44 219v1818q0 151 -44 219t-121 85.5t-245 23.5v131h1229v-131q-206 0 -311 -57
q-64 -31 -81 -98.5t-17 -172.5zM877 1393v-934q0 -183 101.5 -247.5t299.5 -64.5q276 0 396 181t120 475q0 260 -102.5 389.5t-266.5 165t-417 35.5h-131z" />
    <glyph glyph-name="Yacute" unicode="&#xdd;" horiz-adv-x="2998" 
d="M2343 1327q0 312 -97 616t-307.5 503.5t-529.5 199.5q-404 0 -642.5 -246t-340.5 -663h-131l41 983h115q54 -147 90 -205q405 278 884 278q302 0 560.5 -116t441.5 -316.5t283 -469t100 -564.5q0 -300 -99 -559.5t-281.5 -449.5t-438.5 -295t-557 -105q-254 0 -503 91
t-444 264t-299 407l148 115q117 -287 400.5 -479.5t590.5 -192.5q304 0 521 147.5t337 394.5t150 547q-191 -57 -353 -57q-111 0 -237 33q-80 19 -230.5 92t-221.5 101t-163 28h-40q-155 -13 -296 -105.5t-212 -246.5l-66 73q51 143 163 269.5t274 205.5t350 83
q80 0 154 -19t145 -53t142.5 -78t131.5 -80q240 -147 377 -147q40 0 90 16z" />
    <glyph glyph-name="Yacute" unicode="&#x42d;" horiz-adv-x="2998" 
d="M2343 1327q0 312 -97 616t-307.5 503.5t-529.5 199.5q-404 0 -642.5 -246t-340.5 -663h-131l41 983h115q54 -147 90 -205q405 278 884 278q302 0 560.5 -116t441.5 -316.5t283 -469t100 -564.5q0 -300 -99 -559.5t-281.5 -449.5t-438.5 -295t-557 -105q-254 0 -503 91
t-444 264t-299 407l148 115q117 -287 400.5 -479.5t590.5 -192.5q304 0 521 147.5t337 394.5t150 547q-191 -57 -353 -57q-111 0 -237 33q-80 19 -230.5 92t-221.5 101t-163 28h-40q-155 -13 -296 -105.5t-212 -246.5l-66 73q51 143 163 269.5t274 205.5t350 83
q80 0 154 -19t145 -53t142.5 -78t131.5 -80q240 -147 377 -147q40 0 90 16z" />
    <glyph glyph-name="Thorn" unicode="&#xde;" horiz-adv-x="4448" 
d="M1360 1532q28 279 148 514.5t313.5 404.5t446.5 260t542 91q412 0 746 -182.5t523 -511t189 -740.5q0 -409 -191 -739.5t-525 -516.5t-742 -186q-402 0 -733.5 186t-520 515t-188.5 733h-491v-901q0 -150 45 -218.5t122.5 -86t241.5 -23.5v-131h-1229v131q168 6 245 23.5
t121 85.5t44 219v1818q0 150 -45.5 218.5t-123 86t-241.5 23.5v131h1229v-131q-205 0 -319 -57q-58 -31 -74 -98.5t-16 -172.5v-745h483zM2810 74q356 0 575.5 183t313.5 474t94 637q0 258 -50.5 487t-163.5 413.5t-305 293.5t-464 109q-270 0 -459.5 -109t-302 -293.5
t-163 -414t-50.5 -486.5q0 -348 93 -639.5t312 -473t570 -181.5z" />
    <glyph glyph-name="Thorn" unicode="&#x42e;" horiz-adv-x="4448" 
d="M1360 1532q28 279 148 514.5t313.5 404.5t446.5 260t542 91q412 0 746 -182.5t523 -511t189 -740.5q0 -409 -191 -739.5t-525 -516.5t-742 -186q-402 0 -733.5 186t-520 515t-188.5 733h-491v-901q0 -150 45 -218.5t122.5 -86t241.5 -23.5v-131h-1229v131q168 6 245 23.5
t121 85.5t44 219v1818q0 150 -45.5 218.5t-123 86t-241.5 23.5v131h1229v-131q-205 0 -319 -57q-58 -31 -74 -98.5t-16 -172.5v-745h483zM2810 74q356 0 575.5 183t313.5 474t94 637q0 258 -50.5 487t-163.5 413.5t-305 293.5t-464 109q-270 0 -459.5 -109t-302 -293.5
t-163 -414t-50.5 -486.5q0 -348 93 -639.5t312 -473t570 -181.5z" />
    <glyph glyph-name="germandbls" unicode="&#xdf;" horiz-adv-x="2785" 
d="M1901 1294h-263q-81 0 -155 -24q-67 -22 -132 -64.5t-73 -58.5q-72 -91 -119.5 -184.5t-114 -256t-111 -261t-114.5 -207.5q-57 -88 -162.5 -162t-197.5 -92q-93 -17 -148 -17q-82 0 -123 8q-127 28 -245 148l24 139q105 -74 172 -74q112 0 198 99.5t212 294.5
q92 151 142.5 229t134.5 175t207.5 192.5t285.5 173.5q-322 26 -546 209t-224 487q0 301 262 508q237 180 745 180h1164v-131q-164 -6 -241.5 -23.5t-123 -85.5t-45.5 -219v-1818q0 -151 44 -219t121 -85.5t245 -23.5v-131h-1229v131q164 6 241.5 23.5t123 85.5t45.5 219
v835zM1901 1425v1180h-295q-301 0 -462 -122.5t-161 -409.5q0 -17 -4 -58t-4 -57q0 -250 154 -391.5t419 -141.5h353z" />
    <glyph glyph-name="germandbls" unicode="&#x42f;" horiz-adv-x="2785" 
d="M1901 1294h-263q-81 0 -155 -24q-67 -22 -132 -64.5t-73 -58.5q-72 -91 -119.5 -184.5t-114 -256t-111 -261t-114.5 -207.5q-57 -88 -162.5 -162t-197.5 -92q-93 -17 -148 -17q-82 0 -123 8q-127 28 -245 148l24 139q105 -74 172 -74q112 0 198 99.5t212 294.5
q92 151 142.5 229t134.5 175t207.5 192.5t285.5 173.5q-322 26 -546 209t-224 487q0 301 262 508q237 180 745 180h1164v-131q-164 -6 -241.5 -23.5t-123 -85.5t-45.5 -219v-1818q0 -151 44 -219t121 -85.5t245 -23.5v-131h-1229v131q164 6 241.5 23.5t123 85.5t45.5 219
v835zM1901 1425v1180h-295q-301 0 -462 -122.5t-161 -409.5q0 -17 -4 -58t-4 -57q0 -250 154 -391.5t419 -141.5h353z" />
    <glyph glyph-name="agrave" unicode="&#xe0;" horiz-adv-x="1884" 
d="M1786 360h123q-41 -174 -143 -291.5t-267 -117.5q-140 0 -228 79t-108 216q-105 -125 -271 -206t-327 -81q-181 0 -291 118.5t-110 299.5q0 203 93 317.5t224 164.5t354.5 102t327.5 96v139q0 215 -59 320.5t-260 105.5q-121 0 -175 -51.5t-91 -153t-73 -149t-128 -47.5
q-70 0 -125 34t-55 97q0 132 110.5 223t266 134.5t278.5 43.5q305 0 480 -118t175 -406v-901q0 -171 107 -181q71 0 106 51.5t58 137.5q8 8 8 24zM1163 934q-49 -21 -194 -65.5t-234 -83t-155 -109.5t-72 -184q0 -127 78 -211t209 -84q176 0 368 163v574z" />
    <glyph glyph-name="agrave" unicode="&#x430;" horiz-adv-x="1884" 
d="M1786 360h123q-41 -174 -143 -291.5t-267 -117.5q-140 0 -228 79t-108 216q-105 -125 -271 -206t-327 -81q-181 0 -291 118.5t-110 299.5q0 203 93 317.5t224 164.5t354.5 102t327.5 96v139q0 215 -59 320.5t-260 105.5q-121 0 -175 -51.5t-91 -153t-73 -149t-128 -47.5
q-70 0 -125 34t-55 97q0 132 110.5 223t266 134.5t278.5 43.5q305 0 480 -118t175 -406v-901q0 -171 107 -181q71 0 106 51.5t58 137.5q8 8 8 24zM1163 934q-49 -21 -194 -65.5t-234 -83t-155 -109.5t-72 -184q0 -127 78 -211t209 -84q176 0 368 163v574z" />
    <glyph glyph-name="aacute" unicode="&#xe1;" horiz-adv-x="2097" 
d="M1024 1753q269 0 471.5 -119t312 -330t109.5 -477q0 -255 -114.5 -453.5t-316.5 -306.5t-454 -108h-33q-292 28 -462 138t-256 303t-134 509q0 18 -8 72t-8 84q0 164 49 565q36 254 166 521.5t334 420.5q150 110 360 172q97 25 238 25q180 0 270 -57q67 -41 115 -41
q55 0 98 34.5t49 79.5h99q0 -92 -37 -165.5t-62 -104.5q-117 -106 -204 -123q-13 0 -42 -8t-40 -8q-132 0 -271 98q-45 33 -129 82t-141 49q-45 0 -110.5 -37t-102.5 -86q-74 -97 -133.5 -258t-90 -345t-30.5 -363q0 -5 4 -21t4 -20v-9q10 17 27 42.5t31 39.5q60 62 123 107
q26 28 131.5 63t187.5 35zM516 836q0 -306 119.5 -534t396.5 -228q193 0 307.5 108t161.5 275.5t47 353.5q0 819 -524 819q-508 0 -508 -794z" />
    <glyph glyph-name="aacute" unicode="&#x431;" horiz-adv-x="2097" 
d="M1024 1753q269 0 471.5 -119t312 -330t109.5 -477q0 -255 -114.5 -453.5t-316.5 -306.5t-454 -108h-33q-292 28 -462 138t-256 303t-134 509q0 18 -8 72t-8 84q0 164 49 565q36 254 166 521.5t334 420.5q150 110 360 172q97 25 238 25q180 0 270 -57q67 -41 115 -41
q55 0 98 34.5t49 79.5h99q0 -92 -37 -165.5t-62 -104.5q-117 -106 -204 -123q-13 0 -42 -8t-40 -8q-132 0 -271 98q-45 33 -129 82t-141 49q-45 0 -110.5 -37t-102.5 -86q-74 -97 -133.5 -258t-90 -345t-30.5 -363q0 -5 4 -21t4 -20v-9q10 17 27 42.5t31 39.5q60 62 123 107
q26 28 131.5 63t187.5 35zM516 836q0 -306 119.5 -534t396.5 -228q193 0 307.5 108t161.5 275.5t47 353.5q0 819 -524 819q-508 0 -508 -794z" />
    <glyph glyph-name="acircumflex" unicode="&#xe2;" horiz-adv-x="1925" 
d="M672 819v-360q0 -167 57 -247.5t213 -80.5q227 0 343 98.5t116 270.5q0 232 -221 286q-76 23 -205 33h-303zM672 942q8 0 25 -4t24 -4q17 0 60 4t55 4q21 0 51 3.5t65 9.5t72 12q121 25 195.5 108.5t74.5 210.5q0 287 -360 287h-262v-631zM1106 918q282 -7 468.5 -112.5
t186.5 -338.5v-8q0 -138 -84 -242.5t-228.5 -160.5t-318.5 -56h-1073v131q151 0 211 81.5t60 246.5v778q0 166 -63.5 251t-215.5 85v131h885q8 0 33 -4t32 -4q287 0 467.5 -65.5t180.5 -287.5v-16q0 -154 -71 -240t-187 -120.5t-283 -48.5z" />
    <glyph glyph-name="acircumflex" unicode="&#x432;" horiz-adv-x="1925" 
d="M672 819v-360q0 -167 57 -247.5t213 -80.5q227 0 343 98.5t116 270.5q0 232 -221 286q-76 23 -205 33h-303zM672 942q8 0 25 -4t24 -4q17 0 60 4t55 4q21 0 51 3.5t65 9.5t72 12q121 25 195.5 108.5t74.5 210.5q0 287 -360 287h-262v-631zM1106 918q282 -7 468.5 -112.5
t186.5 -338.5v-8q0 -138 -84 -242.5t-228.5 -160.5t-318.5 -56h-1073v131q151 0 211 81.5t60 246.5v778q0 166 -63.5 251t-215.5 85v131h885q8 0 33 -4t32 -4q287 0 467.5 -65.5t180.5 -287.5v-16q0 -154 -71 -240t-187 -120.5t-283 -48.5z" />
    <glyph glyph-name="atilde" unicode="&#xe3;" horiz-adv-x="1589" 
d="M672 1573v-1114q0 -167 57 -247.5t213 -80.5v-131h-885v131q151 0 211 81.5t60 246.5v778q0 166 -63.5 251t-215.5 85v131h1467l32 -508h-123q-70 203 -159 290t-299 87h-295z" />
    <glyph glyph-name="atilde" unicode="&#x433;" horiz-adv-x="1589" 
d="M672 1573v-1114q0 -167 57 -247.5t213 -80.5v-131h-885v131q151 0 211 81.5t60 246.5v778q0 166 -63.5 251t-215.5 85v131h1467l32 -508h-123q-70 203 -159 290t-299 87h-295z" />
    <glyph glyph-name="adieresis" unicode="&#xe4;" horiz-adv-x="2138" 
d="M1450 0h-885q-56 -13 -105.5 -26.5t-87.5 -51.5t-61.5 -127t-23.5 -254h-148l-123 623q11 0 30 -8.5t28 -8.5q47 0 94 15.5t70 25.5q62 52 100 113t47 76q81 136 410 926q16 48 16 106q0 74 -25 98q-24 34 -77 42t-103 16v139h1360v-139q-154 0 -208 -82t-54 -254v-778
q0 -336 287 -336l24 8l-106 -582h-148q0 459 -311 459zM1360 1556h-82q-62 0 -152 -54.5t-135 -149.5q-255 -554 -401 -918q-58 -151 -58 -180q0 -21 25 -74q12 -8 49.5 -20.5t98.5 -12.5h655v1409z" />
    <glyph glyph-name="adieresis" unicode="&#x434;" horiz-adv-x="2138" 
d="M1450 0h-885q-56 -13 -105.5 -26.5t-87.5 -51.5t-61.5 -127t-23.5 -254h-148l-123 623q11 0 30 -8.5t28 -8.5q47 0 94 15.5t70 25.5q62 52 100 113t47 76q81 136 410 926q16 48 16 106q0 74 -25 98q-24 34 -77 42t-103 16v139h1360v-139q-154 0 -208 -82t-54 -254v-778
q0 -336 287 -336l24 8l-106 -582h-148q0 459 -311 459zM1360 1556h-82q-62 0 -152 -54.5t-135 -149.5q-255 -554 -401 -918q-58 -151 -58 -180q0 -21 25 -74q12 -8 49.5 -20.5t98.5 -12.5h655v1409z" />
    <glyph glyph-name="aring" unicode="&#xe5;" horiz-adv-x="1802" 
d="M1663 918h-1163q0 -803 524 -803q307 0 524 311l115 -66q-256 -409 -705 -409q-248 0 -437.5 115t-293.5 318t-104 452q0 245 99.5 455.5t287.5 336t440 125.5q168 0 301.5 -68t226 -187t139 -269t46.5 -311zM1303 1057v41q0 499 -377 499q-210 0 -314.5 -158.5
t-111.5 -381.5h803z" />
    <glyph glyph-name="aring" unicode="&#x435;" horiz-adv-x="1802" 
d="M1663 918h-1163q0 -803 524 -803q307 0 524 311l115 -66q-256 -409 -705 -409q-248 0 -437.5 115t-293.5 318t-104 452q0 245 99.5 455.5t287.5 336t440 125.5q168 0 301.5 -68t226 -187t139 -269t46.5 -311zM1303 1057v41q0 499 -377 499q-210 0 -314.5 -158.5
t-111.5 -381.5h803z" />
    <glyph glyph-name="ae" unicode="&#xe6;" horiz-adv-x="3170" 
d="M2015 139v-131h-885v131q151 0 211 81.5t60 246.5v393h-123q-37 0 -101.5 -25.5t-103.5 -64.5q-29 -24 -75.5 -121.5t-71.5 -156.5q-63 -194 -123 -288.5t-180 -178.5q-33 -12 -105.5 -31t-140.5 -19q-58 0 -82 9q-27 0 -107.5 39t-138.5 108l57 115q69 -82 115 -82
q47 0 92 47t102 140t68 108q123 163 295 336q29 27 90.5 73t122.5 66l90 33l-73 73q-38 32 -118 150.5t-143 197t-149 128.5q-29 -2 -72 -13t-43 -37q-41 -73 -164 -73q-10 0 -16 3t-8 5q-50 6 -94.5 52.5t-44.5 94.5q0 4 4 17t4 16q26 75 56 103.5t108 52.5q11 0 40 4t42 4
q65 0 141 -17.5t104 -31.5q90 -57 178 -166t154.5 -218t85.5 -141q121 -180 254 -180h74v254q0 166 -63.5 251t-215.5 85v131h885v-131q-154 0 -208 -82t-54 -254v-262h82q134 0 254 180q26 43 89 146t150.5 211.5t178.5 167.5q29 15 101 32t136 17q13 0 46 -4t44 -4
q78 -23 109 -53t55 -103v-33q0 -49 -41 -95t-90 -52q-4 -2 -13 -5.5t-20 -3.5q-113 0 -155 74q0 26 -43 36.5t-72 12.5q-86 -50 -148 -126t-143 -196.5t-119 -152.5l-73 -74l90 -32q61 -20 122.5 -66.5t90.5 -73.5q171 -171 295 -335q5 -7 62.5 -104t100.5 -144t91 -47
q55 0 122 82l58 -115q-58 -69 -138.5 -108.5t-107.5 -39.5q-13 0 -46 -4t-44 -4q-72 0 -139.5 18.5t-98.5 30.5q-120 85 -180 179t-123 288q-24 60 -71 158t-76 121q-39 39 -103 64.5t-102 25.5h-131v-483q13 -116 74.5 -173t195.5 -57z" />
    <glyph glyph-name="ae" unicode="&#x436;" horiz-adv-x="3170" 
d="M2015 139v-131h-885v131q151 0 211 81.5t60 246.5v393h-123q-37 0 -101.5 -25.5t-103.5 -64.5q-29 -24 -75.5 -121.5t-71.5 -156.5q-63 -194 -123 -288.5t-180 -178.5q-33 -12 -105.5 -31t-140.5 -19q-58 0 -82 9q-27 0 -107.5 39t-138.5 108l57 115q69 -82 115 -82
q47 0 92 47t102 140t68 108q123 163 295 336q29 27 90.5 73t122.5 66l90 33l-73 73q-38 32 -118 150.5t-143 197t-149 128.5q-29 -2 -72 -13t-43 -37q-41 -73 -164 -73q-10 0 -16 3t-8 5q-50 6 -94.5 52.5t-44.5 94.5q0 4 4 17t4 16q26 75 56 103.5t108 52.5q11 0 40 4t42 4
q65 0 141 -17.5t104 -31.5q90 -57 178 -166t154.5 -218t85.5 -141q121 -180 254 -180h74v254q0 166 -63.5 251t-215.5 85v131h885v-131q-154 0 -208 -82t-54 -254v-262h82q134 0 254 180q26 43 89 146t150.5 211.5t178.5 167.5q29 15 101 32t136 17q13 0 46 -4t44 -4
q78 -23 109 -53t55 -103v-33q0 -49 -41 -95t-90 -52q-4 -2 -13 -5.5t-20 -3.5q-113 0 -155 74q0 26 -43 36.5t-72 12.5q-86 -50 -148 -126t-143 -196.5t-119 -152.5l-73 -74l90 -32q61 -20 122.5 -66.5t90.5 -73.5q171 -171 295 -335q5 -7 62.5 -104t100.5 -144t91 -47
q55 0 122 82l58 -115q-58 -69 -138.5 -108.5t-107.5 -39.5q-13 0 -46 -4t-44 -4q-72 0 -139.5 18.5t-98.5 30.5q-120 85 -180 179t-123 288q-24 60 -71 158t-76 121q-39 39 -103 64.5t-102 25.5h-131v-483q13 -116 74.5 -173t195.5 -57z" />
    <glyph glyph-name="ccedilla" unicode="&#xe7;" horiz-adv-x="1712" 
d="M172 205q-41 85 -41 131q0 102 98 188q25 25 82 25q54 0 112 -41.5t85 -130.5q2 -7 2.5 -45t11 -72.5t43.5 -71.5q66 -82 238 -82q395 0 409 361q0 154 -71.5 268t-239.5 125q-43 0 -115 -28.5t-114 -28.5q-43 0 -83.5 36t-47.5 70q0 55 61.5 85t118.5 30q34 0 100 -8
t88 -8q254 84 254 303q0 327 -352 327q-73 0 -155.5 -39.5t-123.5 -66.5q-60 -30 -118 -142t-70 -227l-147 33l49 557l164 8q6 -14 12.5 -48t19.5 -58q27 16 49.5 26.5t32.5 14.5q149 64 303 73h41q277 0 478.5 -97.5t201.5 -336.5q0 -194 -127 -273.5t-356 -111.5
q253 -48 401 -142.5t148 -324.5q0 -204 -131.5 -319t-321 -156t-399.5 -41q-161 0 -311 49q-214 71 -279 189z" />
    <glyph glyph-name="ccedilla" unicode="&#x437;" horiz-adv-x="1712" 
d="M172 205q-41 85 -41 131q0 102 98 188q25 25 82 25q54 0 112 -41.5t85 -130.5q2 -7 2.5 -45t11 -72.5t43.5 -71.5q66 -82 238 -82q395 0 409 361q0 154 -71.5 268t-239.5 125q-43 0 -115 -28.5t-114 -28.5q-43 0 -83.5 36t-47.5 70q0 55 61.5 85t118.5 30q34 0 100 -8
t88 -8q254 84 254 303q0 327 -352 327q-73 0 -155.5 -39.5t-123.5 -66.5q-60 -30 -118 -142t-70 -227l-147 33l49 557l164 8q6 -14 12.5 -48t19.5 -58q27 16 49.5 26.5t32.5 14.5q149 64 303 73h41q277 0 478.5 -97.5t201.5 -336.5q0 -194 -127 -273.5t-356 -111.5
q253 -48 401 -142.5t148 -324.5q0 -204 -131.5 -319t-321 -156t-399.5 -41q-161 0 -311 49q-214 71 -279 189z" />
    <glyph glyph-name="egrave" unicode="&#xe8;" horiz-adv-x="2138" 
d="M1442 1360q-41 213 -262 213v131h884v-131q-154 0 -208 -82t-54 -254v-778q0 -167 57 -247.5t214 -80.5v-131h-885v131q151 0 210.5 81.5t59.5 246.5v712l-786 -811q13 -116 74.5 -172.5t195.5 -56.5v-131h-885v131q151 0 211 81.5t60 246.5v778q0 166 -63.5 251
t-215.5 85v131h885v-131q-154 0 -208 -82t-54 -254v-664z" />
    <glyph glyph-name="egrave" unicode="&#x438;" horiz-adv-x="2138" 
d="M1442 1360q-41 213 -262 213v131h884v-131q-154 0 -208 -82t-54 -254v-778q0 -167 57 -247.5t214 -80.5v-131h-885v131q151 0 210.5 81.5t59.5 246.5v712l-786 -811q13 -116 74.5 -172.5t195.5 -56.5v-131h-885v131q151 0 211 81.5t60 246.5v778q0 166 -63.5 251
t-215.5 85v131h885v-131q-154 0 -208 -82t-54 -254v-664z" />
    <glyph glyph-name="eacute" unicode="&#xe9;" horiz-adv-x="2138" 
d="M1442 1360q-41 213 -262 213v131h884v-131q-154 0 -208 -82t-54 -254v-778q0 -167 57 -247.5t214 -80.5v-131h-885v131q151 0 210.5 81.5t59.5 246.5v712l-786 -811q13 -116 74.5 -172.5t195.5 -56.5v-131h-885v131q151 0 211 81.5t60 246.5v778q0 166 -63.5 251
t-215.5 85v131h885v-131q-154 0 -208 -82t-54 -254v-664zM1098 2269q96 0 191 36.5t95 111.5q-24 72 -24 131q0 61 51.5 120.5t112.5 59.5l8 -8q100 0 148.5 -56t48.5 -124v-25q-15 -149 -127 -233.5t-248 -114t-256 -29.5q-206 0 -411.5 82t-227.5 295v25q0 71 45 129.5
t143 58.5h17q60 0 111.5 -58.5t51.5 -121.5q0 -59 -24 -131q0 -75 99 -111.5t196 -36.5z" />
    <glyph glyph-name="eacute" unicode="&#x439;" horiz-adv-x="2138" 
d="M1442 1360q-41 213 -262 213v131h884v-131q-154 0 -208 -82t-54 -254v-778q0 -167 57 -247.5t214 -80.5v-131h-885v131q151 0 210.5 81.5t59.5 246.5v712l-786 -811q13 -116 74.5 -172.5t195.5 -56.5v-131h-885v131q151 0 211 81.5t60 246.5v778q0 166 -63.5 251
t-215.5 85v131h885v-131q-154 0 -208 -82t-54 -254v-664zM1098 2269q96 0 191 36.5t95 111.5q-24 72 -24 131q0 61 51.5 120.5t112.5 59.5l8 -8q100 0 148.5 -56t48.5 -124v-25q-15 -149 -127 -233.5t-248 -114t-256 -29.5q-206 0 -411.5 82t-227.5 295v25q0 71 45 129.5
t143 58.5h17q60 0 111.5 -58.5t51.5 -121.5q0 -59 -24 -131q0 -75 99 -111.5t196 -36.5z" />
    <glyph glyph-name="ecircumflex" unicode="&#xea;" horiz-adv-x="2138" 
d="M1122 1024l-73 -74l90 -32q61 -20 122.5 -66.5t90.5 -73.5q168 -168 295 -336q13 -17 66.5 -109t97.5 -139t90 -47q53 0 122 82l58 -114q-58 -69 -138.5 -108.5t-107.5 -39.5q-13 0 -46 -4t-44 -4q-72 0 -139.5 18.5t-98.5 30.5q-120 85 -180 179t-123 288
q-24 60 -71 158t-76 121q-39 39 -103 64.5t-102 25.5h-180v-484q13 -116 74.5 -172.5t195.5 -56.5v-131h-885v131q151 0 211 81.5t60 246.5v778q0 166 -63.5 251t-215.5 85v131h885v-131q-154 0 -208 -82t-54 -254v-262h131q134 0 254 180q26 43 89 146t151 212t178 166
q27 15 100 32.5t137 17.5q18 0 48.5 -4.5t41.5 -4.5q79 -23 109.5 -52.5t54.5 -102.5v-33q0 -51 -40 -95.5t-91 -52.5q-4 -2 -13 -5t-20 -3q-113 0 -155 74q0 26 -43 36.5t-72 12.5q-87 -51 -147.5 -125.5t-142.5 -196t-120 -153.5z" />
    <glyph glyph-name="ecircumflex" unicode="&#x43a;" horiz-adv-x="2138" 
d="M1122 1024l-73 -74l90 -32q61 -20 122.5 -66.5t90.5 -73.5q168 -168 295 -336q13 -17 66.5 -109t97.5 -139t90 -47q53 0 122 82l58 -114q-58 -69 -138.5 -108.5t-107.5 -39.5q-13 0 -46 -4t-44 -4q-72 0 -139.5 18.5t-98.5 30.5q-120 85 -180 179t-123 288
q-24 60 -71 158t-76 121q-39 39 -103 64.5t-102 25.5h-180v-484q13 -116 74.5 -172.5t195.5 -56.5v-131h-885v131q151 0 211 81.5t60 246.5v778q0 166 -63.5 251t-215.5 85v131h885v-131q-154 0 -208 -82t-54 -254v-262h131q134 0 254 180q26 43 89 146t151 212t178 166
q27 15 100 32.5t137 17.5q18 0 48.5 -4.5t41.5 -4.5q79 -23 109.5 -52.5t54.5 -102.5v-33q0 -51 -40 -95.5t-91 -52.5q-4 -2 -13 -5t-20 -3q-113 0 -155 74q0 26 -43 36.5t-72 12.5q-87 -51 -147.5 -125.5t-142.5 -196t-120 -153.5z" />
    <glyph glyph-name="edieresis" unicode="&#xeb;" horiz-adv-x="2187" 
d="M1073 1278q0 -20 -6 -54t-10 -53q-47 -134 -112.5 -276.5t-135 -278t-137.5 -264.5q-129 -236 -279 -336q-20 -10 -65 -25.5t-90 -15.5q-9 0 -27.5 4.5t-30.5 4.5q-71 20 -108 51t-47 47q-2 9 -6.5 22t-8.5 24t-7 22.5t-3 21.5q0 56 28 94.5t46 52.5q47 25 98 25
q44 0 76.5 -15.5t46.5 -25.5q4 0 12 -4t12 -4q20 0 70.5 20t52.5 21q51 26 100.5 98t71.5 115q39 90 121.5 263.5t127.5 274t95 240.5v25q0 28 -20 63t-70 51h-57q-66 0 -90 -8l-41 123l532 180l697 -1515q52 -115 229 -115v-123h-778v123q16 8 60.5 13.5t70 16.5t33.5 44
q0 38 -33 123z" />
    <glyph glyph-name="edieresis" unicode="&#x43b;" horiz-adv-x="2187" 
d="M1073 1278q0 -20 -6 -54t-10 -53q-47 -134 -112.5 -276.5t-135 -278t-137.5 -264.5q-129 -236 -279 -336q-20 -10 -65 -25.5t-90 -15.5q-9 0 -27.5 4.5t-30.5 4.5q-71 20 -108 51t-47 47q-2 9 -6.5 22t-8.5 24t-7 22.5t-3 21.5q0 56 28 94.5t46 52.5q47 25 98 25
q44 0 76.5 -15.5t46.5 -25.5q4 0 12 -4t12 -4q20 0 70.5 20t52.5 21q51 26 100.5 98t71.5 115q39 90 121.5 263.5t127.5 274t95 240.5v25q0 28 -20 63t-70 51h-57q-66 0 -90 -8l-41 123l532 180l697 -1515q52 -115 229 -115v-123h-778v123q16 8 60.5 13.5t70 16.5t33.5 44
q0 38 -33 123z" />
    <glyph glyph-name="igrave" unicode="&#xec;" horiz-adv-x="2695" 
d="M319 1270q0 161 -57.5 232t-212.5 71v131h672l614 -1262l590 1262h672v-131q-154 0 -208 -82t-54 -254v-778q0 -167 57 -247.5t213 -80.5v-131h-885v131q151 0 211 81.5t60 246.5v991l-713 -1450h-90l-713 1442v-1155l-8 -17q0 -7 8 -32t8 -33l49 -49q14 -8 173 -33v-123
h-639v123q253 18 253 188v959z" />
    <glyph glyph-name="igrave" unicode="&#x43c;" horiz-adv-x="2695" 
d="M319 1270q0 161 -57.5 232t-212.5 71v131h672l614 -1262l590 1262h672v-131q-154 0 -208 -82t-54 -254v-778q0 -167 57 -247.5t213 -80.5v-131h-885v131q151 0 211 81.5t60 246.5v991l-713 -1450h-90l-713 1442v-1155l-8 -17q0 -7 8 -32t8 -33l49 -49q14 -8 173 -33v-123
h-639v123q253 18 253 188v959z" />
    <glyph glyph-name="iacute" unicode="&#xed;" horiz-adv-x="2138" 
d="M934 1573q-154 0 -208 -82t-54 -254v-295h778v442q-36 189 -270 189v131h884v-131q-154 0 -208 -82t-54 -254v-778q0 -167 57 -247.5t214 -80.5v-131h-885v131q150 0 206 81t56 247v344h-778v-443q13 -116 74.5 -172.5t195.5 -56.5v-131h-885v131q151 0 211 81.5
t60 246.5v778q0 166 -63.5 251t-215.5 85v131h885v-131z" />
    <glyph glyph-name="iacute" unicode="&#x43d;" horiz-adv-x="2138" 
d="M934 1573q-154 0 -208 -82t-54 -254v-295h778v442q-36 189 -270 189v131h884v-131q-154 0 -208 -82t-54 -254v-778q0 -167 57 -247.5t214 -80.5v-131h-885v131q150 0 206 81t56 247v344h-778v-443q13 -116 74.5 -172.5t195.5 -56.5v-131h-885v131q151 0 211 81.5
t60 246.5v778q0 166 -63.5 251t-215.5 85v131h885v-131z" />
    <glyph glyph-name="icircumflex" unicode="&#xee;" horiz-adv-x="2015" 
d="M1884 844q0 -258 -111 -462t-314.5 -317.5t-459.5 -113.5q-267 0 -467.5 106.5t-308.5 305.5t-108 464q0 274 107.5 484t310.5 326t475 116q276 0 474 -111.5t300 -316.5t102 -481zM1516 836q0 345 -104.5 569.5t-412.5 224.5q-516 0 -516 -819q0 -188 47 -354.5
t162.5 -274.5t306.5 -108q278 0 397.5 228t119.5 534z" />
    <glyph glyph-name="icircumflex" unicode="&#x43e;" horiz-adv-x="2015" 
d="M1884 844q0 -258 -111 -462t-314.5 -317.5t-459.5 -113.5q-267 0 -467.5 106.5t-308.5 305.5t-108 464q0 274 107.5 484t310.5 326t475 116q276 0 474 -111.5t300 -316.5t102 -481zM1516 836q0 345 -104.5 569.5t-412.5 224.5q-516 0 -516 -819q0 -188 47 -354.5
t162.5 -274.5t306.5 -108q278 0 397.5 228t119.5 534z" />
    <glyph glyph-name="idieresis" unicode="&#xef;" horiz-adv-x="2138" 
d="M2064 1704v-131q-154 0 -208 -82t-54 -254v-778q0 -167 57 -247.5t214 -80.5v-131h-885v131q150 0 206 81t56 247v1106h-778v-1205q13 -116 74.5 -172.5t195.5 -56.5v-131h-885v131q151 0 211 81.5t60 246.5v778q0 166 -63.5 251t-215.5 85v131h2015z" />
    <glyph glyph-name="idieresis" unicode="&#x43f;" horiz-adv-x="2138" 
d="M2064 1704v-131q-154 0 -208 -82t-54 -254v-778q0 -167 57 -247.5t214 -80.5v-131h-885v131q150 0 206 81t56 247v1106h-778v-1205q13 -116 74.5 -172.5t195.5 -56.5v-131h-885v131q151 0 211 81.5t60 246.5v778q0 166 -63.5 251t-215.5 85v131h2015z" />
    <glyph glyph-name="eth" unicode="&#xf0;" horiz-adv-x="2187" 
d="M672 147v-786q0 -197 75.5 -259t276.5 -77v-123h-967v131q151 0 211 81.5t60 246.5v1802q0 158 -62 240t-209 88v123q385 67 557 115q58 -86 58 -230q108 114 253.5 180t303.5 66q237 0 411.5 -119t266.5 -320.5t92 -437.5q0 -238 -93 -449t-274 -339.5t-428 -128.5
q-296 0 -532 196zM672 336q186 -201 434 -213q192 0 311 114t170 287t51 361q0 278 -112.5 487t-362.5 209q-284 0 -491 -336v-909z" />
    <glyph glyph-name="eth" unicode="&#x440;" horiz-adv-x="2187" 
d="M672 147v-786q0 -197 75.5 -259t276.5 -77v-123h-967v131q151 0 211 81.5t60 246.5v1802q0 158 -62 240t-209 88v123q385 67 557 115q58 -86 58 -230q108 114 253.5 180t303.5 66q237 0 411.5 -119t266.5 -320.5t92 -437.5q0 -238 -93 -449t-274 -339.5t-428 -128.5
q-296 0 -532 196zM672 336q186 -201 434 -213q192 0 311 114t170 287t51 361q0 278 -112.5 487t-362.5 209q-284 0 -491 -336v-909z" />
    <glyph glyph-name="ntilde" unicode="&#xf1;" horiz-adv-x="1712" 
d="M1524 442l123 -41q-159 -425 -639 -450q-249 0 -452 104.5t-318 296t-115 443.5q0 262 102 478.5t297.5 344t460.5 127.5q185 0 383.5 -84.5t198.5 -243.5q0 -69 -44 -112t-112 -43q-86 0 -147 49q-13 154 -76 224.5t-211 70.5q-169 0 -273 -105.5t-149 -266t-45 -325.5
q0 -188 55 -367.5t180 -299t314 -119.5q306 0 467 319z" />
    <glyph glyph-name="ntilde" unicode="&#x441;" horiz-adv-x="1712" 
d="M1524 442l123 -41q-159 -425 -639 -450q-249 0 -452 104.5t-318 296t-115 443.5q0 262 102 478.5t297.5 344t460.5 127.5q185 0 383.5 -84.5t198.5 -243.5q0 -69 -44 -112t-112 -43q-86 0 -147 49q-13 154 -76 224.5t-211 70.5q-169 0 -273 -105.5t-149 -266t-45 -325.5
q0 -188 55 -367.5t180 -299t314 -119.5q306 0 467 319z" />
    <glyph glyph-name="ograve" unicode="&#xf2;" horiz-adv-x="1843" 
d="M721 1573h-180q-146 0 -231.5 -42.5t-134 -122t-93.5 -212.5h-123l33 508h1802l33 -508h-123q-45 133 -93.5 212.5t-133.5 122t-232 42.5h-180v-1114q0 -167 57 -247.5t213 -80.5v-131h-884v131q151 0 210.5 81.5t59.5 246.5v1114z" />
    <glyph glyph-name="ograve" unicode="&#x442;" horiz-adv-x="1843" 
d="M721 1573h-180q-146 0 -231.5 -42.5t-134 -122t-93.5 -212.5h-123l33 508h1802l33 -508h-123q-45 133 -93.5 212.5t-133.5 122t-232 42.5h-180v-1114q0 -167 57 -247.5t213 -80.5v-131h-884v131q151 0 210.5 81.5t59.5 246.5v1114z" />
    <glyph glyph-name="oacute" unicode="&#xf3;" horiz-adv-x="1925" 
d="M385 -1081q-20 -10 -65 -25.5t-91 -15.5q-7 0 -28 4t-29 4q-71 21 -108.5 51.5t-47.5 46.5q-16 66 -16 98q0 57 25 92.5t41 47.5q66 33 98 33q42 0 75.5 -18.5t47.5 -31.5h24q24 0 123 33q93 89 173 229t173.5 354.5t104.5 235.5l-639 1360q-77 152 -262 164v123h794
v-123q-180 0 -180 -90q0 -24 16 -74l443 -958l434 958q8 28 13 45t8.5 30t3.5 24q0 28 -26.5 41t-74.5 17.5t-55 6.5h-33v123h598v-123l-41 -8q-90 -6 -142 -38.5t-95 -117.5l-869 -1909q-20 -45 -66.5 -148.5t-93 -184.5t-104 -149t-129.5 -107z" />
    <glyph glyph-name="oacute" unicode="&#x443;" horiz-adv-x="1925" 
d="M385 -1081q-20 -10 -65 -25.5t-91 -15.5q-7 0 -28 4t-29 4q-71 21 -108.5 51.5t-47.5 46.5q-16 66 -16 98q0 57 25 92.5t41 47.5q66 33 98 33q42 0 75.5 -18.5t47.5 -31.5h24q24 0 123 33q93 89 173 229t173.5 354.5t104.5 235.5l-639 1360q-77 152 -262 164v123h794
v-123q-180 0 -180 -90q0 -24 16 -74l443 -958l434 958q8 28 13 45t8.5 30t3.5 24q0 28 -26.5 41t-74.5 17.5t-55 6.5h-33v123h598v-123l-41 -8q-90 -6 -142 -38.5t-95 -117.5l-869 -1909q-20 -45 -66.5 -148.5t-93 -184.5t-104 -149t-129.5 -107z" />
    <glyph glyph-name="ocircumflex" unicode="&#xf4;" horiz-adv-x="3293" 
d="M1466 156q-235 -197 -532 -197q-247 0 -427.5 128.5t-274 340t-93.5 449.5q0 235 92 437t266.5 320.5t411.5 118.5q177 0 361 -98q113 -63 196 -148v779q0 157 -61.5 239t-208.5 88v123q379 66 557 115q57 -85 57 -172v-1172q108 114 253.5 180t303.5 66q237 0 412 -119
t267 -320.5t92 -436.5q0 -238 -93.5 -449.5t-274 -340t-427.5 -128.5q-296 0 -533 197v-787q0 -135 35.5 -204.5t108 -95.5t209.5 -36v-123h-967v132q151 0 210.5 81t59.5 246v787zM1466 1253q-207 336 -491 336q-250 0 -362.5 -210.5t-112.5 -485.5q0 -185 51 -359.5
t171 -288.5t310 -114q248 12 434 213v909zM1810 344q188 -201 435 -213q279 0 405.5 230t126.5 532q0 278 -112.5 487t-362.5 209q-283 0 -492 -336v-909z" />
    <glyph glyph-name="ocircumflex" unicode="&#x444;" horiz-adv-x="3293" 
d="M1466 156q-235 -197 -532 -197q-247 0 -427.5 128.5t-274 340t-93.5 449.5q0 235 92 437t266.5 320.5t411.5 118.5q177 0 361 -98q113 -63 196 -148v779q0 157 -61.5 239t-208.5 88v123q379 66 557 115q57 -85 57 -172v-1172q108 114 253.5 180t303.5 66q237 0 412 -119
t267 -320.5t92 -436.5q0 -238 -93.5 -449.5t-274 -340t-427.5 -128.5q-296 0 -533 197v-787q0 -135 35.5 -204.5t108 -95.5t209.5 -36v-123h-967v132q151 0 210.5 81t59.5 246v787zM1466 1253q-207 336 -491 336q-250 0 -362.5 -210.5t-112.5 -485.5q0 -185 51 -359.5
t171 -288.5t310 -114q248 12 434 213v909zM1810 344q188 -201 435 -213q279 0 405.5 230t126.5 532q0 278 -112.5 487t-362.5 209q-283 0 -492 -336v-909z" />
    <glyph glyph-name="otilde" unicode="&#xf5;" horiz-adv-x="2138" 
d="M2015 1704v-123q-214 0 -311 -106l-483 -533l532 -688q94 -123 320 -123v-131h-852v131h90q4 0 16 -4t16 -4q22 0 44 11.5t22 29.5q0 49 -41 90l-377 451l-418 -451q-49 -51 -49 -82q0 -41 115 -41h49v-131h-639v131q215 0 328 123l524 565l-500 623q-66 83 -129.5 111
t-173.5 28v123h803v-123h-41q-32 -4 -64 -8.5t-42 -24.5q0 -25 32 -73l336 -410l385 410q33 31 33 57q0 41 -115 41q-11 0 -40 4t-42 4v123h672z" />
    <glyph glyph-name="otilde" unicode="&#x445;" horiz-adv-x="2138" 
d="M2015 1704v-123q-214 0 -311 -106l-483 -533l532 -688q94 -123 320 -123v-131h-852v131h90q4 0 16 -4t16 -4q22 0 44 11.5t22 29.5q0 49 -41 90l-377 451l-418 -451q-49 -51 -49 -82q0 -41 115 -41h49v-131h-639v131q215 0 328 123l524 565l-500 623q-66 83 -129.5 111
t-173.5 28v123h803v-123h-41q-32 -4 -64 -8.5t-42 -24.5q0 -25 32 -73l336 -410l385 410q33 31 33 57q0 41 -115 41q-11 0 -40 4t-42 4v123h672z" />
    <glyph glyph-name="odieresis" unicode="&#xf6;" horiz-adv-x="2269" 
d="M1516 0h-1434v131q152 0 215 86t63 250v778q0 166 -59.5 247t-210.5 81v131h885v-131q-136 0 -196.5 -56t-73.5 -174v-1196h778v1098q0 168 -56 248t-206 80v131h884v-131q-156 0 -213 -80t-57 -248v-778q0 -344 279 -344q11 0 44 4t46 4l-82 -532h-131q0 184 -53 270.5
t-148.5 108.5t-273.5 22z" />
    <glyph glyph-name="odieresis" unicode="&#x446;" horiz-adv-x="2269" 
d="M1516 0h-1434v131q152 0 215 86t63 250v778q0 166 -59.5 247t-210.5 81v131h885v-131q-136 0 -196.5 -56t-73.5 -174v-1196h778v1098q0 168 -56 248t-206 80v131h884v-131q-156 0 -213 -80t-57 -248v-778q0 -344 279 -344q11 0 44 4t46 4l-82 -532h-131q0 184 -53 270.5
t-148.5 108.5t-273.5 22z" />
    <glyph glyph-name="divide" unicode="&#xf7;" horiz-adv-x="2150" 
d="M918 1581q-111 0 -164 -42t-74 -130v-287q37 -156 197 -213q111 -41 229 -41q110 0 328 50v475q-18 99 -82.5 143.5t-188.5 44.5v131h885v-131q-154 0 -208 -82t-54 -254v-778q0 -167 57 -247.5t213 -80.5v-131h-885v131q150 0 206.5 80.5t56.5 247.5v311
q-138 -57 -377 -57q-25 0 -72 4t-67 4q-279 0 -447 122.5t-168 369.5l8 24v33q0 175 -63 239t-215 64v131h885v-131z" />
    <glyph glyph-name="divide" unicode="&#x447;" horiz-adv-x="2150" 
d="M918 1581q-111 0 -164 -42t-74 -130v-287q37 -156 197 -213q111 -41 229 -41q110 0 328 50v475q-18 99 -82.5 143.5t-188.5 44.5v131h885v-131q-154 0 -208 -82t-54 -254v-778q0 -167 57 -247.5t213 -80.5v-131h-885v131q150 0 206.5 80.5t56.5 247.5v311
q-138 -57 -377 -57q-25 0 -72 4t-67 4q-279 0 -447 122.5t-168 369.5l8 24v33q0 175 -63 239t-215 64v131h885v-131z" />
    <glyph glyph-name="oslash" unicode="&#xf8;" horiz-adv-x="3219" 
d="M2884 459q0 -167 57 -247.5t213 -80.5v-131h-3048v131q151 0 211 81.5t60 246.5v778q0 166 -63.5 251t-215.5 85v131h885v-131q-154 0 -208 -82t-54 -254v-1090h745v1098q0 166 -59.5 247t-210.5 81v131h868v-131q-134 0 -186.5 -54t-67.5 -176v-1196h721v1098
q0 168 -52 244t-202 76v139h877v-131q-156 0 -213 -80t-57 -248v-786z" />
    <glyph glyph-name="oslash" unicode="&#x448;" horiz-adv-x="3219" 
d="M2884 459q0 -167 57 -247.5t213 -80.5v-131h-3048v131q151 0 211 81.5t60 246.5v778q0 166 -63.5 251t-215.5 85v131h885v-131q-154 0 -208 -82t-54 -254v-1090h745v1098q0 166 -59.5 247t-210.5 81v131h868v-131q-134 0 -186.5 -54t-67.5 -176v-1196h721v1098
q0 168 -52 244t-202 76v139h877v-131q-156 0 -213 -80t-57 -248v-786z" />
    <glyph glyph-name="ugrave" unicode="&#xf9;" horiz-adv-x="3293" 
d="M672 1237v-1090h745v1098q0 166 -59.5 247t-210.5 81v131h868v-131q-134 0 -186.5 -54t-67.5 -176v-1196h721v1098q0 168 -52 244t-202 76v139h877v-131q-156 0 -213.5 -80.5t-57.5 -247.5v-778q0 -147 71 -245.5t216 -98.5q13 0 46 8t44 8l-90 -557h-123
q-12 176 -67 266.5t-152.5 121t-263.5 30.5h-2458v131q151 0 211 81.5t60 246.5v778q0 166 -63.5 251t-215.5 85v131h885v-131q-154 0 -208 -82t-54 -254z" />
    <glyph glyph-name="ugrave" unicode="&#x449;" horiz-adv-x="3293" 
d="M672 1237v-1090h745v1098q0 166 -59.5 247t-210.5 81v131h868v-131q-134 0 -186.5 -54t-67.5 -176v-1196h721v1098q0 168 -52 244t-202 76v139h877v-131q-156 0 -213.5 -80.5t-57.5 -247.5v-778q0 -147 71 -245.5t216 -98.5q13 0 46 8t44 8l-90 -557h-123
q-12 176 -67 266.5t-152.5 121t-263.5 30.5h-2458v131q151 0 211 81.5t60 246.5v778q0 166 -63.5 251t-215.5 85v131h885v-131q-154 0 -208 -82t-54 -254z" />
    <glyph glyph-name="uacute" unicode="&#xfa;" horiz-adv-x="2187" 
d="M451 1548q-130 0 -190 -91.5t-122 -276.5h-147l41 524h1204v-131q-154 0 -208 -82t-54 -254v-295q8 0 25 -4t24 -4q17 0 60 4t55 4h41q328 0 524.5 -56t278 -161.5t81.5 -265.5q0 -138 -84 -242.5t-228.5 -160.5t-317.5 -56h-1074v131q151 0 211 81.5t60 246.5v778
q0 30 -8.5 74.5t-8.5 64.5q-14 91 -24 121t-38.5 40.5t-100.5 10.5zM975 819v-360q0 -167 57 -247.5t213 -80.5q227 0 343 98.5t116 270.5q0 232 -221 286q-76 23 -205 33h-303z" />
    <glyph glyph-name="uacute" unicode="&#x44a;" horiz-adv-x="2187" 
d="M451 1548q-130 0 -190 -91.5t-122 -276.5h-147l41 524h1204v-131q-154 0 -208 -82t-54 -254v-295q8 0 25 -4t24 -4q17 0 60 4t55 4h41q328 0 524.5 -56t278 -161.5t81.5 -265.5q0 -138 -84 -242.5t-228.5 -160.5t-317.5 -56h-1074v131q151 0 211 81.5t60 246.5v778
q0 30 -8.5 74.5t-8.5 64.5q-14 91 -24 121t-38.5 40.5t-100.5 10.5zM975 819v-360q0 -167 57 -247.5t213 -80.5q227 0 343 98.5t116 270.5q0 232 -221 286q-76 23 -205 33h-303z" />
    <glyph glyph-name="ucircumflex" unicode="&#xfb;" horiz-adv-x="2785" 
d="M672 1237v-295q3 0 22 -4t27 -4q16 0 57 4t58 4h41q329 0 525 -56t277.5 -162.5t81.5 -264.5q0 -138 -84 -242.5t-228.5 -160.5t-318.5 -56h-1073v131q151 0 211 81.5t60 246.5v778q0 166 -63.5 251t-215.5 85v131h885v-131q-154 0 -208 -82t-54 -254zM672 819v-360
q0 -167 57 -247.5t213 -80.5q227 0 343 98.5t116 270.5q0 232 -221 286q-76 23 -205 33h-303zM2449 1237v-778q0 -165 57.5 -246.5t213.5 -81.5v-131h-885v131q151 0 210.5 81.5t59.5 246.5v778q0 165 -63 250.5t-215 85.5v131h885v-131q-155 0 -209 -82t-54 -254z" />
    <glyph glyph-name="ucircumflex" unicode="&#x44b;" horiz-adv-x="2785" 
d="M672 1237v-295q3 0 22 -4t27 -4q16 0 57 4t58 4h41q329 0 525 -56t277.5 -162.5t81.5 -264.5q0 -138 -84 -242.5t-228.5 -160.5t-318.5 -56h-1073v131q151 0 211 81.5t60 246.5v778q0 166 -63.5 251t-215.5 85v131h885v-131q-154 0 -208 -82t-54 -254zM672 819v-360
q0 -167 57 -247.5t213 -80.5q227 0 343 98.5t116 270.5q0 232 -221 286q-76 23 -205 33h-303zM2449 1237v-778q0 -165 57.5 -246.5t213.5 -81.5v-131h-885v131q151 0 210.5 81.5t59.5 246.5v778q0 165 -63 250.5t-215 85.5v131h885v-131q-155 0 -209 -82t-54 -254z" />
    <glyph glyph-name="udieresis" unicode="&#xfc;" horiz-adv-x="1843" 
d="M672 1237v-295q3 0 22 -4t27 -4q16 0 57 4t58 4h41q329 0 525 -56t277.5 -162.5t81.5 -264.5q0 -138 -84 -242.5t-228.5 -160.5t-318.5 -56h-1073v131q151 0 211 81.5t60 246.5v778q0 166 -63.5 251t-215.5 85v131h885v-131q-154 0 -208 -82t-54 -254zM672 819v-360
q0 -167 57 -247.5t213 -80.5q227 0 343 98.5t116 270.5q0 232 -221 286q-76 23 -205 33h-303z" />
    <glyph glyph-name="udieresis" unicode="&#x44c;" horiz-adv-x="1843" 
d="M672 1237v-295q3 0 22 -4t27 -4q16 0 57 4t58 4h41q329 0 525 -56t277.5 -162.5t81.5 -264.5q0 -138 -84 -242.5t-228.5 -160.5t-318.5 -56h-1073v131q151 0 211 81.5t60 246.5v778q0 166 -63.5 251t-215.5 85v131h885v-131q-154 0 -208 -82t-54 -254zM672 819v-360
q0 -167 57 -247.5t213 -80.5q227 0 343 98.5t116 270.5q0 232 -221 286q-76 23 -205 33h-303z" />
    <glyph glyph-name="yacute" unicode="&#xfd;" horiz-adv-x="1843" 
d="M1327 983q0 271 -107 471.5t-352 200.5q-60 0 -111.5 -12.5t-76.5 -20.5q-252 -119 -336 -459h-139l57 606h156q2 -6 25.5 -50t23.5 -56q3 0 45 36t78 46q117 49 270 49q265 0 460.5 -127.5t297.5 -344t102 -478.5q0 -252 -115 -443.5t-317.5 -296t-451.5 -104.5
q-482 25 -639 451l122 41q161 -320 467 -320q170 0 289 101t181.5 260t70.5 327q-49 -49 -149 -86t-187 -37q-11 0 -38.5 8.5t-43.5 8.5q-34 6 -138.5 53.5t-205.5 69.5h-24q-61 0 -148 -132l-57 58q64 107 166.5 188.5t210.5 81.5q92 0 221 -56t172 -67q10 0 41 -8t49 -8
q95 0 131 49z" />
    <glyph glyph-name="yacute" unicode="&#x44d;" horiz-adv-x="1843" 
d="M1327 983q0 271 -107 471.5t-352 200.5q-60 0 -111.5 -12.5t-76.5 -20.5q-252 -119 -336 -459h-139l57 606h156q2 -6 25.5 -50t23.5 -56q3 0 45 36t78 46q117 49 270 49q265 0 460.5 -127.5t297.5 -344t102 -478.5q0 -252 -115 -443.5t-317.5 -296t-451.5 -104.5
q-482 25 -639 451l122 41q161 -320 467 -320q170 0 289 101t181.5 260t70.5 327q-49 -49 -149 -86t-187 -37q-11 0 -38.5 8.5t-43.5 8.5q-34 6 -138.5 53.5t-205.5 69.5h-24q-61 0 -148 -132l-57 58q64 107 166.5 188.5t210.5 81.5q92 0 221 -56t172 -67q10 0 41 -8t49 -8
q95 0 131 49z" />
    <glyph glyph-name="thorn" unicode="&#xfe;" horiz-adv-x="2908" 
d="M1040 803h-368v-443q13 -116 74.5 -172.5t195.5 -56.5v-131h-885v131q151 0 211 81.5t60 246.5v778q0 166 -63.5 251t-215.5 85v131h885v-131q-154 0 -208 -82t-54 -254v-295h368q21 246 133 429t307.5 282.5t452.5 99.5q277 0 475 -111.5t300 -316.5t102 -481
q0 -258 -112 -462t-314.5 -317.5t-458.5 -113.5q-266 0 -464 101.5t-307.5 295t-113.5 455.5zM2441 836q0 345 -103.5 569.5t-412.5 224.5q-516 0 -516 -819q0 -188 47 -354.5t162.5 -274.5t306.5 -108q278 0 397 227t119 535z" />
    <glyph glyph-name="thorn" unicode="&#x44e;" horiz-adv-x="2908" 
d="M1040 803h-368v-443q13 -116 74.5 -172.5t195.5 -56.5v-131h-885v131q151 0 211 81.5t60 246.5v778q0 166 -63.5 251t-215.5 85v131h885v-131q-154 0 -208 -82t-54 -254v-295h368q21 246 133 429t307.5 282.5t452.5 99.5q277 0 475 -111.5t300 -316.5t102 -481
q0 -258 -112 -462t-314.5 -317.5t-458.5 -113.5q-266 0 -464 101.5t-307.5 295t-113.5 455.5zM2441 836q0 345 -103.5 569.5t-412.5 224.5q-516 0 -516 -819q0 -188 47 -354.5t162.5 -274.5t306.5 -108q278 0 397 227t119 535z" />
    <glyph glyph-name="ydieresis" unicode="&#xff;" horiz-adv-x="1974" 
d="M893 852q-7 0 -36 -4t-38 -4q-131 0 -247.5 59.5t-184.5 160.5t-68 222q0 180 197 320q184 106 557 106h828v-131q-155 0 -209 -82t-54 -254v-778q0 -165 57.5 -246.5t213.5 -81.5v-131h-885v131q151 0 210.5 81.5t59.5 246.5v328q-229 0 -303 -50q-84 -66 -124.5 -167
t-93.5 -247t-118 -225q-102 -122 -295 -139h-65q-71 0 -156 33q-59 30 -139 115l57 114q49 -73 99 -73q18 0 90 49q28 23 72 86t59 78q23 27 71 104.5t97 138.5t136 126t212 114zM1294 926v655q-277 0 -441.5 -48.5t-164.5 -213.5q0 -13 -4 -46t-4 -44q0 -303 393 -303h221z
" />
    <glyph glyph-name="ydieresis" unicode="&#x44f;" horiz-adv-x="1974" 
d="M893 852q-7 0 -36 -4t-38 -4q-131 0 -247.5 59.5t-184.5 160.5t-68 222q0 180 197 320q184 106 557 106h828v-131q-155 0 -209 -82t-54 -254v-778q0 -165 57.5 -246.5t213.5 -81.5v-131h-885v131q151 0 210.5 81.5t59.5 246.5v328q-229 0 -303 -50q-84 -66 -124.5 -167
t-93.5 -247t-118 -225q-102 -122 -295 -139h-65q-71 0 -156 33q-59 30 -139 115l57 114q49 -73 99 -73q18 0 90 49q28 23 72 86t59 78q23 27 71 104.5t97 138.5t136 126t212 114zM1294 926v655q-277 0 -441.5 -48.5t-164.5 -213.5q0 -13 -4 -46t-4 -44q0 -303 393 -303h221z
" />
    <glyph glyph-name="fraction" unicode="&#x2044;" horiz-adv-x="991" 
d="M1253 2736l-1368 -3866h-204l1368 3866h204z" />
    <glyph glyph-name="fi" unicode="&#xf001;" 
 />
    <glyph glyph-name="fl" unicode="&#xf002;" 
 />
    <glyph glyph-name="breve" unicode="&#x2d8;" 
 />
    <glyph glyph-name="dotaccent" unicode="&#x2d9;" 
 />
    <glyph glyph-name="ring" unicode="&#x2da;" 
 />
    <glyph glyph-name="hungarumlaut" unicode="&#x2dd;" 
 />
    <glyph glyph-name="ogonek" unicode="&#x2db;" 
 />
    <glyph glyph-name="caron" unicode="&#x2c7;" 
 />
    <glyph glyph-name="Lslash" unicode="&#x141;" 
 />
    <glyph glyph-name="dotlessi" unicode="&#x131;" 
 />
    <glyph glyph-name="lslash" unicode="&#x142;" 
 />
    <glyph glyph-name="minus" unicode="&#x2212;" horiz-adv-x="901" 
d="M877 991v-205h-877v205h877z" />
    <glyph glyph-name=".null" horiz-adv-x="0" 
 />
  </font>
</defs>
</svg>
